<svg version="1.1" xmlns="http://www.w3.org/2000/svg" xmlns:xlink="http://www.w3.org/1999/xlink" width="788" height="465"><defs><clipPath id="JuGonplMcttF"><path fill="none" stroke="none" d=" M 0 0 L 788 0 L 788 465 L 0 465 L 0 0 Z"/></clipPath></defs><g transform="scale(1,1)" clip-path="url(#JuGonplMcttF)"><g><rect fill="rgb(255,255,255)" stroke="none" x="0" y="0" width="788" height="465" fill-opacity="1"/><path fill="none" stroke="rgb(0,0,0)" paint-order="fill stroke markers" d=" M 125.5 2.5 L 125.5 391.5" stroke-opacity="1" stroke-miterlimit="10"/><path fill="none" stroke="rgb(0,0,0)" paint-order="fill stroke markers" d=" M 125.5 1.5 L 121.5 5.5" stroke-opacity="1" stroke-miterlimit="10"/><path fill="none" stroke="rgb(0,0,0)" paint-order="fill stroke markers" d=" M 125.5 1.5 L 129.5 5.5" stroke-opacity="1" stroke-miterlimit="10"/><text fill="rgb(0,0,0)" stroke="none" font-family="geogebra-sans-serif, sans-serif" font-size="16px" font-style="normal" font-weight="normal" text-decoration="normal" x="702" y="387" text-anchor="start" dominant-baseline="alphabetic" fill-opacity="1">TumorSize</text><path fill="none" stroke="rgb(0,0,0)" paint-order="fill stroke markers" d=" M 125.5 391.5 L 786.5 391.5" stroke-opacity="1" stroke-miterlimit="10"/><path fill="none" stroke="rgb(0,0,0)" paint-order="fill stroke markers" d=" M 787.5 391.5 L 783.5 387.5" stroke-opacity="1" stroke-miterlimit="10"/><path fill="none" stroke="rgb(0,0,0)" paint-order="fill stroke markers" d=" M 787.5 391.5 L 783.5 395.5" stroke-opacity="1" stroke-miterlimit="10"/><path fill="none" stroke="rgb(0,0,0)" paint-order="fill stroke markers" d=" M 125.5 391.5 L 125.5 394.5" stroke-opacity="1" stroke-miterlimit="10"/><path fill="none" stroke="rgb(0,0,0)" paint-order="fill stroke markers" d=" M 166.5 391.5 L 166.5 394.5" stroke-opacity="1" stroke-miterlimit="10"/><path fill="none" stroke="rgb(0,0,0)" paint-order="fill stroke markers" d=" M 206.5 391.5 L 206.5 394.5" stroke-opacity="1" stroke-miterlimit="10"/><path fill="none" stroke="rgb(0,0,0)" paint-order="fill stroke markers" d=" M 246.5 391.5 L 246.5 394.5" stroke-opacity="1" stroke-miterlimit="10"/><path fill="none" stroke="rgb(0,0,0)" paint-order="fill stroke markers" d=" M 287.5 391.5 L 287.5 394.5" stroke-opacity="1" stroke-miterlimit="10"/><path fill="none" stroke="rgb(0,0,0)" paint-order="fill stroke markers" d=" M 327.5 391.5 L 327.5 394.5" stroke-opacity="1" stroke-miterlimit="10"/><path fill="none" stroke="rgb(0,0,0)" paint-order="fill stroke markers" d=" M 367.5 391.5 L 367.5 394.5" stroke-opacity="1" stroke-miterlimit="10"/><path fill="none" stroke="rgb(0,0,0)" paint-order="fill stroke markers" d=" M 408.5 391.5 L 408.5 394.5" stroke-opacity="1" stroke-miterlimit="10"/><path fill="none" stroke="rgb(0,0,0)" paint-order="fill stroke markers" d=" M 448.5 391.5 L 448.5 394.5" stroke-opacity="1" stroke-miterlimit="10"/><path fill="none" stroke="rgb(0,0,0)" paint-order="fill stroke markers" d=" M 488.5 391.5 L 488.5 394.5" stroke-opacity="1" stroke-miterlimit="10"/><path fill="none" stroke="rgb(0,0,0)" paint-order="fill stroke markers" d=" M 529.5 391.5 L 529.5 394.5" stroke-opacity="1" stroke-miterlimit="10"/><path fill="none" stroke="rgb(0,0,0)" paint-order="fill stroke markers" d=" M 569.5 391.5 L 569.5 394.5" stroke-opacity="1" stroke-miterlimit="10"/><path fill="none" stroke="rgb(0,0,0)" paint-order="fill stroke markers" d=" M 609.5 391.5 L 609.5 394.5" stroke-opacity="1" stroke-miterlimit="10"/><path fill="none" stroke="rgb(0,0,0)" paint-order="fill stroke markers" d=" M 650.5 391.5 L 650.5 394.5" stroke-opacity="1" stroke-miterlimit="10"/><path fill="none" stroke="rgb(0,0,0)" paint-order="fill stroke markers" d=" M 690.5 391.5 L 690.5 394.5" stroke-opacity="1" stroke-miterlimit="10"/><path fill="none" stroke="rgb(0,0,0)" paint-order="fill stroke markers" d=" M 730.5 391.5 L 730.5 394.5" stroke-opacity="1" stroke-miterlimit="10"/><path fill="none" stroke="rgb(0,0,0)" paint-order="fill stroke markers" d=" M 771.5 391.5 L 771.5 394.5" stroke-opacity="1" stroke-miterlimit="10"/><path fill="none" stroke="rgb(0,0,0)" paint-order="fill stroke markers" d=" M 122.5 332.5 L 125.5 332.5" stroke-opacity="1" stroke-miterlimit="10"/><path fill="none" stroke="rgb(0,0,0)" paint-order="fill stroke markers" d=" M 122.5 273.5 L 125.5 273.5" stroke-opacity="1" stroke-miterlimit="10"/><path fill="none" stroke="rgb(0,0,0)" paint-order="fill stroke markers" d=" M 122.5 214.5 L 125.5 214.5" stroke-opacity="1" stroke-miterlimit="10"/><path fill="none" stroke="rgb(0,0,0)" paint-order="fill stroke markers" d=" M 122.5 156.5 L 125.5 156.5" stroke-opacity="1" stroke-miterlimit="10"/><path fill="none" stroke="rgb(0,0,0)" paint-order="fill stroke markers" d=" M 122.5 97.5 L 125.5 97.5" stroke-opacity="1" stroke-miterlimit="10"/><path fill="none" stroke="rgb(0,0,0)" paint-order="fill stroke markers" d=" M 122.5 38.5 L 125.5 38.5" stroke-opacity="1" stroke-miterlimit="10"/><path fill="none" stroke="rgb(0,0,0)" paint-order="fill stroke markers" d=" M 108.53963962329186 470 L 793 8.311134438957765" stroke-opacity="0.6980392156862745" stroke-linecap="round" stroke-linejoin="round" stroke-miterlimit="10" stroke-width="2.5"/><path fill="none" stroke="rgb(102,102,102)" paint-order="fill stroke markers" d=" M 129.29379154178997 470 L 608.3196649070838 -5" stroke-opacity="0.6980392156862745" stroke-linecap="round" stroke-linejoin="round" stroke-miterlimit="10" stroke-width="2.5"/><path fill="none" stroke="rgb(255,85,0)" paint-order="fill stroke markers" d=" M 441.95816499359717 245.0992904095573 L 125.68639798488661 244.33301797540173" stroke-opacity="0.6980392156862745" stroke-linejoin="round" stroke-miterlimit="10" stroke-width="2.5" stroke-dasharray="10.5,8"/><path fill="none" stroke="rgb(255,85,0)" paint-order="fill stroke markers" d=" M 441.95816499359717 245.0992904095573 L 443 391.4440239672027" stroke-opacity="0.6980392156862745" stroke-linejoin="round" stroke-miterlimit="10" stroke-width="2.5" stroke-dasharray="10.5,8"/><path fill="none" stroke="rgb(0,0,255)" paint-order="fill stroke markers" d=" M 401.08476070528957 92.22201198360074 L 411.08476070528957 102.22201198360074" stroke-opacity="1" stroke-linecap="square" stroke-miterlimit="10" stroke-width="2.5"/><path fill="none" stroke="rgb(0,0,255)" paint-order="fill stroke markers" d=" M 401.08476070528957 102.22201198360074 L 411.08476070528957 92.22201198360074" stroke-opacity="1" stroke-linecap="square" stroke-miterlimit="10" stroke-width="2.5"/><text fill="none" stroke="rgb(255,255,255)" font-family="geogebra-sans-serif, sans-serif" font-size="16px" font-style="normal" font-weight="normal" text-decoration="normal" x="406" y="85" text-anchor="start" dominant-baseline="alphabetic" stroke-opacity="1" stroke-linecap="square" stroke-linejoin="bevel" stroke-miterlimit="10" stroke-width="3">A</text><text fill="rgb(0,0,255)" stroke="none" font-family="geogebra-sans-serif, sans-serif" font-size="16px" font-style="normal" font-weight="normal" text-decoration="normal" x="406" y="85" text-anchor="start" dominant-baseline="alphabetic" fill-opacity="1">A</text><path fill="none" stroke="rgb(244,0,153)" paint-order="fill stroke markers" d=" M 501.4661821569381 90.99747632927023 L 511.4661821569381 100.99747632927023" stroke-opacity="1" stroke-linecap="square" stroke-miterlimit="10" stroke-width="2.5"/><path fill="none" stroke="rgb(244,0,153)" paint-order="fill stroke markers" d=" M 501.4661821569381 100.99747632927023 L 511.4661821569381 90.99747632927023" stroke-opacity="1" stroke-linecap="square" stroke-miterlimit="10" stroke-width="2.5"/><path fill="none" stroke="rgb(244,0,153)" paint-order="fill stroke markers" d=" M 570.0436288927602 90.99747632927023 L 580.0436288927602 100.99747632927023" stroke-opacity="1" stroke-linecap="square" stroke-miterlimit="10" stroke-width="2.5"/><path fill="none" stroke="rgb(244,0,153)" paint-order="fill stroke markers" d=" M 570.0436288927602 100.99747632927023 L 580.0436288927602 90.99747632927023" stroke-opacity="1" stroke-linecap="square" stroke-miterlimit="10" stroke-width="2.5"/><path fill="none" stroke="rgb(244,0,153)" paint-order="fill stroke markers" d=" M 436.69859357310577 90.99747632927023 L 446.69859357310577 100.99747632927023" stroke-opacity="1" stroke-linecap="square" stroke-miterlimit="10" stroke-width="2.5"/><path fill="none" stroke="rgb(244,0,153)" paint-order="fill stroke markers" d=" M 436.69859357310577 100.99747632927023 L 446.69859357310577 90.99747632927023" stroke-opacity="1" stroke-linecap="square" stroke-miterlimit="10" stroke-width="2.5"/><path fill="none" stroke="rgb(244,0,153)" paint-order="fill stroke markers" d=" M 600.5224941086813 90.99747632927023 L 610.5224941086813 100.99747632927023" stroke-opacity="1" stroke-linecap="square" stroke-miterlimit="10" stroke-width="2.5"/><path fill="none" stroke="rgb(244,0,153)" paint-order="fill stroke markers" d=" M 600.5224941086813 100.99747632927023 L 610.5224941086813 90.99747632927023" stroke-opacity="1" stroke-linecap="square" stroke-miterlimit="10" stroke-width="2.5"/><path fill="rgb(0,0,255)" stroke="none" paint-order="stroke fill markers" d=" M 173.51205995047005 391.4440239672027 C 173.51205995047005 394.2054477163567 171.27348369962402 396.4440239672027 168.51205995047005 396.4440239672027 C 165.75063620131607 396.4440239672027 163.51205995047005 394.2054477163567 163.51205995047005 391.4440239672027 C 163.51205995047005 388.6826002180488 165.75063620131607 386.4440239672027 168.51205995047005 386.4440239672027 C 171.27348369962402 386.4440239672027 173.51205995047005 388.6826002180488 173.51205995047005 391.4440239672027 Z" fill-opacity="1"/><path fill="none" stroke="rgb(0,0,0)" paint-order="fill stroke markers" d=" M 173.51205995047005 391.4440239672027 C 173.51205995047005 394.2054477163567 171.27348369962402 396.4440239672027 168.51205995047005 396.4440239672027 C 165.75063620131607 396.4440239672027 163.51205995047005 394.2054477163567 163.51205995047005 391.4440239672027 C 163.51205995047005 388.6826002180488 165.75063620131607 386.4440239672027 168.51205995047005 386.4440239672027 C 171.27348369962402 386.4440239672027 173.51205995047005 388.6826002180488 173.51205995047005 391.4440239672027 Z" stroke-opacity="1" stroke-linecap="round" stroke-linejoin="round" stroke-miterlimit="10"/><path fill="rgb(0,0,255)" stroke="none" paint-order="stroke fill markers" d=" M 213.51557054636646 391.4440239672027 C 213.51557054636646 394.2054477163567 211.27699429552044 396.4440239672027 208.51557054636646 396.4440239672027 C 205.75414679721248 396.4440239672027 203.51557054636646 394.2054477163567 203.51557054636646 391.4440239672027 C 203.51557054636646 388.6826002180488 205.75414679721248 386.4440239672027 208.51557054636646 386.4440239672027 C 211.27699429552044 386.4440239672027 213.51557054636646 388.6826002180488 213.51557054636646 391.4440239672027 Z" fill-opacity="1"/><path fill="none" stroke="rgb(0,0,0)" paint-order="fill stroke markers" d=" M 213.51557054636646 391.4440239672027 C 213.51557054636646 394.2054477163567 211.27699429552044 396.4440239672027 208.51557054636646 396.4440239672027 C 205.75414679721248 396.4440239672027 203.51557054636646 394.2054477163567 203.51557054636646 391.4440239672027 C 203.51557054636646 388.6826002180488 205.75414679721248 386.4440239672027 208.51557054636646 386.4440239672027 C 211.27699429552044 386.4440239672027 213.51557054636646 388.6826002180488 213.51557054636646 391.4440239672027 Z" stroke-opacity="1" stroke-linecap="round" stroke-linejoin="round" stroke-miterlimit="10"/><path fill="rgb(0,0,255)" stroke="none" paint-order="stroke fill markers" d=" M 253.51908114226285 391.4440239672027 C 253.51908114226285 394.2054477163567 251.28050489141683 396.4440239672027 248.51908114226285 396.4440239672027 C 245.75765739310887 396.4440239672027 243.51908114226285 394.2054477163567 243.51908114226285 391.4440239672027 C 243.51908114226285 388.6826002180488 245.75765739310887 386.4440239672027 248.51908114226285 386.4440239672027 C 251.28050489141683 386.4440239672027 253.51908114226285 388.6826002180488 253.51908114226285 391.4440239672027 Z" fill-opacity="1"/><path fill="none" stroke="rgb(0,0,0)" paint-order="fill stroke markers" d=" M 253.51908114226285 391.4440239672027 C 253.51908114226285 394.2054477163567 251.28050489141683 396.4440239672027 248.51908114226285 396.4440239672027 C 245.75765739310887 396.4440239672027 243.51908114226285 394.2054477163567 243.51908114226285 391.4440239672027 C 243.51908114226285 388.6826002180488 245.75765739310887 386.4440239672027 248.51908114226285 386.4440239672027 C 251.28050489141683 386.4440239672027 253.51908114226285 388.6826002180488 253.51908114226285 391.4440239672027 Z" stroke-opacity="1" stroke-linecap="round" stroke-linejoin="round" stroke-miterlimit="10"/><path fill="rgb(0,0,255)" stroke="none" paint-order="stroke fill markers" d=" M 282.09301728218884 391.4440239672027 C 282.09301728218884 394.2054477163567 279.8544410313428 396.4440239672027 277.09301728218884 396.4440239672027 C 274.3315935330349 396.4440239672027 272.09301728218884 394.2054477163567 272.09301728218884 391.4440239672027 C 272.09301728218884 388.6826002180488 274.3315935330349 386.4440239672027 277.09301728218884 386.4440239672027 C 279.8544410313428 386.4440239672027 282.09301728218884 388.6826002180488 282.09301728218884 391.4440239672027 Z" fill-opacity="1"/><path fill="none" stroke="rgb(0,0,0)" paint-order="fill stroke markers" d=" M 282.09301728218884 391.4440239672027 C 282.09301728218884 394.2054477163567 279.8544410313428 396.4440239672027 277.09301728218884 396.4440239672027 C 274.3315935330349 396.4440239672027 272.09301728218884 394.2054477163567 272.09301728218884 391.4440239672027 C 272.09301728218884 388.6826002180488 274.3315935330349 386.4440239672027 277.09301728218884 386.4440239672027 C 279.8544410313428 386.4440239672027 282.09301728218884 388.6826002180488 282.09301728218884 391.4440239672027 Z" stroke-opacity="1" stroke-linecap="round" stroke-linejoin="round" stroke-miterlimit="10"/><path fill="rgb(0,0,255)" stroke="none" paint-order="stroke fill markers" d=" M 446.95816499359717 245.0992904095573 C 446.95816499359717 247.8607141587113 444.7195887427511 250.0992904095573 441.95816499359717 250.0992904095573 C 439.1967412444432 250.0992904095573 436.95816499359717 247.8607141587113 436.95816499359717 245.0992904095573 C 436.95816499359717 242.33786666040334 439.1967412444432 240.0992904095573 441.95816499359717 240.0992904095573 C 444.7195887427511 240.0992904095573 446.95816499359717 242.33786666040334 446.95816499359717 245.0992904095573 Z" fill-opacity="1"/><path fill="none" stroke="rgb(0,0,0)" paint-order="fill stroke markers" d=" M 446.95816499359717 245.0992904095573 C 446.95816499359717 247.8607141587113 444.7195887427511 250.0992904095573 441.95816499359717 250.0992904095573 C 439.1967412444432 250.0992904095573 436.95816499359717 247.8607141587113 436.95816499359717 245.0992904095573 C 436.95816499359717 242.33786666040334 439.1967412444432 240.0992904095573 441.95816499359717 240.0992904095573 C 444.7195887427511 240.0992904095573 446.95816499359717 242.33786666040334 446.95816499359717 245.0992904095573 Z" stroke-opacity="1" stroke-linecap="round" stroke-linejoin="round" stroke-miterlimit="10"/><path fill="rgb(0,0,255)" stroke="none" paint-order="stroke fill markers" d=" M 448 391.4440239672027 C 448 394.2054477163567 445.76142374915395 396.4440239672027 443 396.4440239672027 C 440.23857625084605 396.4440239672027 438 394.2054477163567 438 391.4440239672027 C 438 388.6826002180488 440.23857625084605 386.4440239672027 443 386.4440239672027 C 445.76142374915395 386.4440239672027 448 388.6826002180488 448 391.4440239672027 Z" fill-opacity="1"/><path fill="none" stroke="rgb(0,0,0)" paint-order="fill stroke markers" d=" M 448 391.4440239672027 C 448 394.2054477163567 445.76142374915395 396.4440239672027 443 396.4440239672027 C 440.23857625084605 396.4440239672027 438 394.2054477163567 438 391.4440239672027 C 438 388.6826002180488 440.23857625084605 386.4440239672027 443 386.4440239672027 C 445.76142374915395 386.4440239672027 448 388.6826002180488 448 391.4440239672027 Z" stroke-opacity="1" stroke-linecap="round" stroke-linejoin="round" stroke-miterlimit="10"/><path fill="none" stroke="rgb(244,0,153)" paint-order="fill stroke markers" d=" M 709.7246851385389 92.22201198360074 L 719.7246851385389 102.22201198360074" stroke-opacity="1" stroke-linecap="square" stroke-miterlimit="10" stroke-width="2.5"/><path fill="none" stroke="rgb(244,0,153)" paint-order="fill stroke markers" d=" M 709.7246851385389 102.22201198360074 L 719.7246851385389 92.22201198360074" stroke-opacity="1" stroke-linecap="square" stroke-miterlimit="10" stroke-width="2.5"/><path fill="none" stroke="rgb(244,0,153)" paint-order="fill stroke markers" d=" M 749.604080764424 92.22201198360074 L 759.604080764424 102.22201198360074" stroke-opacity="1" stroke-linecap="square" stroke-miterlimit="10" stroke-width="2.5"/><path fill="none" stroke="rgb(244,0,153)" paint-order="fill stroke markers" d=" M 749.604080764424 102.22201198360074 L 759.604080764424 92.22201198360074" stroke-opacity="1" stroke-linecap="square" stroke-miterlimit="10" stroke-width="2.5"/><text fill="rgb(0,0,0)" stroke="none" font-family="geogebra-sans-serif, sans-serif" font-size="16px" font-style="normal" font-weight="normal" text-decoration="normal" x="66" y="108" text-anchor="start" dominant-baseline="alphabetic" fill-opacity="1">(Yes) 1</text><text fill="rgb(0,0,0)" stroke="none" font-family="geogebra-sans-serif, sans-serif" font-size="16px" font-style="normal" font-weight="normal" text-decoration="normal" x="12" y="250" text-anchor="start" dominant-baseline="alphabetic" fill-opacity="1">Malignant? 0.5</text><text fill="rgb(0,0,0)" stroke="none" font-family="geogebra-sans-serif, sans-serif" font-size="16px" font-style="normal" font-weight="normal" text-decoration="normal" x="64" y="397" text-anchor="start" dominant-baseline="alphabetic" fill-opacity="1">(No) 0</text><text fill="rgb(0,0,0)" stroke="none" font-family="geogebra-sans-serif, sans-serif" font-size="16px" font-style="normal" font-weight="normal" text-decoration="normal" x="564" y="188" text-anchor="start" dominant-baseline="alphabetic" fill-opacity="1">New hypothesis</text></g></g></svg>