<svg version="1.1" xmlns="http://www.w3.org/2000/svg" xmlns:xlink="http://www.w3.org/1999/xlink" width="699" height="361"><defs><clipPath id="XneNCgUEVfoA"><path fill="none" stroke="none" d=" M 0 0 L 699 0 L 699 361 L 0 361 L 0 0 Z"/></clipPath></defs><g transform="scale(1,1)" clip-path="url(#XneNCgUEVfoA)"><g><rect fill="rgb(255,255,255)" stroke="none" x="0" y="0" width="699" height="361" fill-opacity="1"/><path fill="none" stroke="rgb(0,0,0)" paint-order="fill stroke markers" d=" M 121.5 2.5 L 121.5 332.5" stroke-opacity="1" stroke-miterlimit="10"/><path fill="none" stroke="rgb(0,0,0)" paint-order="fill stroke markers" d=" M 121.5 1.5 L 117.5 5.5" stroke-opacity="1" stroke-miterlimit="10"/><path fill="none" stroke="rgb(0,0,0)" paint-order="fill stroke markers" d=" M 121.5 1.5 L 125.5 5.5" stroke-opacity="1" stroke-miterlimit="10"/><text fill="rgb(0,0,0)" stroke="none" font-family="geogebra-sans-serif, sans-serif" font-size="16px" font-style="normal" font-weight="normal" text-decoration="normal" x="613" y="328" text-anchor="start" dominant-baseline="alphabetic" fill-opacity="1">TumorSize</text><path fill="none" stroke="rgb(0,0,0)" paint-order="fill stroke markers" d=" M 121.5 332.5 L 697.5 332.5" stroke-opacity="1" stroke-miterlimit="10"/><path fill="none" stroke="rgb(0,0,0)" paint-order="fill stroke markers" d=" M 698.5 332.5 L 694.5 328.5" stroke-opacity="1" stroke-miterlimit="10"/><path fill="none" stroke="rgb(0,0,0)" paint-order="fill stroke markers" d=" M 698.5 332.5 L 694.5 336.5" stroke-opacity="1" stroke-miterlimit="10"/><path fill="none" stroke="rgb(0,0,0)" paint-order="fill stroke markers" d=" M 121.5 332.5 L 121.5 335.5" stroke-opacity="1" stroke-miterlimit="10"/><path fill="none" stroke="rgb(0,0,0)" paint-order="fill stroke markers" d=" M 162.5 332.5 L 162.5 335.5" stroke-opacity="1" stroke-miterlimit="10"/><path fill="none" stroke="rgb(0,0,0)" paint-order="fill stroke markers" d=" M 202.5 332.5 L 202.5 335.5" stroke-opacity="1" stroke-miterlimit="10"/><path fill="none" stroke="rgb(0,0,0)" paint-order="fill stroke markers" d=" M 242.5 332.5 L 242.5 335.5" stroke-opacity="1" stroke-miterlimit="10"/><path fill="none" stroke="rgb(0,0,0)" paint-order="fill stroke markers" d=" M 283.5 332.5 L 283.5 335.5" stroke-opacity="1" stroke-miterlimit="10"/><path fill="none" stroke="rgb(0,0,0)" paint-order="fill stroke markers" d=" M 323.5 332.5 L 323.5 335.5" stroke-opacity="1" stroke-miterlimit="10"/><path fill="none" stroke="rgb(0,0,0)" paint-order="fill stroke markers" d=" M 363.5 332.5 L 363.5 335.5" stroke-opacity="1" stroke-miterlimit="10"/><path fill="none" stroke="rgb(0,0,0)" paint-order="fill stroke markers" d=" M 404.5 332.5 L 404.5 335.5" stroke-opacity="1" stroke-miterlimit="10"/><path fill="none" stroke="rgb(0,0,0)" paint-order="fill stroke markers" d=" M 444.5 332.5 L 444.5 335.5" stroke-opacity="1" stroke-miterlimit="10"/><path fill="none" stroke="rgb(0,0,0)" paint-order="fill stroke markers" d=" M 484.5 332.5 L 484.5 335.5" stroke-opacity="1" stroke-miterlimit="10"/><path fill="none" stroke="rgb(0,0,0)" paint-order="fill stroke markers" d=" M 525.5 332.5 L 525.5 335.5" stroke-opacity="1" stroke-miterlimit="10"/><path fill="none" stroke="rgb(0,0,0)" paint-order="fill stroke markers" d=" M 565.5 332.5 L 565.5 335.5" stroke-opacity="1" stroke-miterlimit="10"/><path fill="none" stroke="rgb(0,0,0)" paint-order="fill stroke markers" d=" M 605.5 332.5 L 605.5 335.5" stroke-opacity="1" stroke-miterlimit="10"/><path fill="none" stroke="rgb(0,0,0)" paint-order="fill stroke markers" d=" M 646.5 332.5 L 646.5 335.5" stroke-opacity="1" stroke-miterlimit="10"/><path fill="none" stroke="rgb(0,0,0)" paint-order="fill stroke markers" d=" M 686.5 332.5 L 686.5 335.5" stroke-opacity="1" stroke-miterlimit="10"/><path fill="none" stroke="rgb(0,0,0)" paint-order="fill stroke markers" d=" M 118.5 273.5 L 121.5 273.5" stroke-opacity="1" stroke-miterlimit="10"/><path fill="none" stroke="rgb(0,0,0)" paint-order="fill stroke markers" d=" M 118.5 214.5 L 121.5 214.5" stroke-opacity="1" stroke-miterlimit="10"/><path fill="none" stroke="rgb(0,0,0)" paint-order="fill stroke markers" d=" M 118.5 155.5 L 121.5 155.5" stroke-opacity="1" stroke-miterlimit="10"/><path fill="none" stroke="rgb(0,0,0)" paint-order="fill stroke markers" d=" M 118.5 97.5 L 121.5 97.5" stroke-opacity="1" stroke-miterlimit="10"/><path fill="none" stroke="rgb(0,0,0)" paint-order="fill stroke markers" d=" M 118.5 38.5 L 121.5 38.5" stroke-opacity="1" stroke-miterlimit="10"/><path fill="none" stroke="rgb(153,51,0)" paint-order="fill stroke markers" d=" M 0 332.44399190855796 L 5.4609375 332.4439819416331 L 10.921875 332.4439688760255 L 16.3828125 332.44395174836563 L 21.843750000000014 332.4439292957761 L 27.304687500000014 332.44389986275627 L 32.765625 332.44386127911713 L 38.2265625 332.4438106999679 L 43.6875 332.4437443959555 L 49.1484375 332.44365747829085 L 54.609375 332.4435435382905 L 60.07031250000001 332.4433941748559 L 65.53125 332.4431983750548 L 70.9921875 332.44294170214016 L 76.453125 332.44260523114644 L 81.9140625 332.44216415360313 L 87.375 332.44158594851854 L 92.8359375 332.4408279848342 L 98.29687500000001 332.43983437867115 L 103.75781250000001 332.4385318738145 L 109.21875000000001 332.4368244419882 L 114.67968750000001 332.43458620529054 L 120.14062500000001 332.4316521598129 L 125.60156250000001 332.42780601797074 L 131.0625 332.42276427570647 L 136.5234375 332.41615533423186 L 141.984375 332.4074921445206 L 147.4453125 332.39613637065514 L 152.90625 332.38125145220175 L 158.3671875 332.36174114343794 L 163.828125 332.3361690641666 L 169.2890625 332.3026534443905 L 174.75 332.25872949777283 L 180.2109375 332.2011696120317 L 185.671875 332.12574867408875 L 191.1328125 332.0269382131513 L 196.59375 331.89750849865874 L 202.05468750000003 331.7280121418574 L 207.51562500000003 331.50611605420397 L 212.97656250000003 331.21574090222106 L 218.43750000000003 330.83595887247526 L 223.89843750000003 330.33959262140496 L 229.35937500000003 329.6914527853816 L 234.82031250000003 328.84615220097226 L 240.28125000000003 327.7454487430264 L 245.74218750000003 326.3151065233482 L 251.20312500000006 324.46134438874714 L 256.66406250000006 322.06708618437887 L 262.125 318.9884713109807 L 267.5859375 315.0524601517721 L 273.046875 310.05689365693553 L 278.5078125 303.77500049977033 L 283.96875 295.9669263302473 L 289.4296875 286.40101743022757 L 292.16015625 280.8965803140387 L 294.890625 274.8867034188113 L 297.62109375000006 268.36116935626137 L 300.3515625 261.3181500941152 L 303.08203125000006 253.7656994149203 L 305.8125 245.72302837492396 L 308.54296875000006 237.22142153224445 L 311.2734375 228.30465329098985 L 314.00390625000006 219.02878409072795 L 316.734375 209.46125713266605 L 319.46484375000006 199.67927596411053 L 322.1953125 189.76751535591998 L 324.92578125000006 179.8152925222236 L 327.65625000000006 169.91339075647386 L 330.38671875 160.15077139925955 L 333.1171875 150.61142444391487 L 335.84765625000006 141.37159024166337 L 338.57812500000006 132.49753813616 L 341.30859375 124.04402119165763 L 344.0390625 116.05345126823914 L 346.76953125000006 108.55576751768493 L 349.50000000000006 101.56891355357195 L 352.23046875 95.0997998103725 L 354.9609375 89.14560941379969 L 357.69140625 83.69530613113403 L 360.42187500000006 78.73121725778284 L 365.8828125 70.16702537225365 L 371.34375000000006 63.234917992729436 L 376.8046875 57.695397904490676 L 382.26562500000006 53.31392017139575 L 387.7265625 49.876449997827535 L 393.18750000000006 47.196755454798506 L 398.6484375 45.11816360172128 L 404.10937500000006 43.51205518024619 L 409.5703125 42.27473205625273 L 415.03125000000006 41.323707824492885 L 420.4921875 40.59402964695198 L 425.95312500000006 40.03494027099879 L 431.4140625 39.60700403236552 L 436.87500000000006 39.27971546358742 L 442.3359375 39.02955543384991 L 447.79687500000006 38.83843695695663 L 453.2578125 38.69247729524187 L 458.71875000000006 38.58103630606047 L 464.1796875 38.49596816853881 L 469.64062500000006 38.43104195471204 L 475.10156250000006 38.381494572923714 L 480.56250000000006 38.343686785565126 L 486.02343750000006 38.314839083200184 L 491.48437500000006 38.29282919386668 L 496.94531250000006 38.276037029211636 L 502.40625000000006 38.26322606184522 L 507.86718750000006 38.253452636451755 L 513.3281250000001 38.24599667296002 L 518.7890625000001 38.24030873681903 L 524.25 38.235969622926746 L 529.7109375000001 38.23265950186976 L 535.171875 38.23013437021257 L 540.6328125000001 38.22820807815731 L 546.09375 38.22673861506718 L 551.5546875000001 38.22561764493338 L 557.015625 38.224762522116634 L 562.4765625000001 38.224110199770905 L 567.9375 38.223612582449505 L 573.3984375000001 38.22323298059962 L 578.859375 38.22294340574712 L 584.3203125000001 38.222722507060666 L 589.78125 38.22255399722923 L 595.2421875000001 38.22242545162834 L 600.703125 38.222327392260524 L 606.1640625000001 38.22225258893934 L 611.625 38.22219552620072 L 617.0859375000001 38.2221519966389 L 622.5468750000001 38.22211879068624 L 628.0078125000001 38.2220934599643 L 633.4687500000001 38.22207413675898 L 638.9296875000001 38.22205939630851 L 644.390625 38.222048151752006 L 649.8515625000001 38.22203957399199 L 655.3125 38.2220330305621 L 660.7734375000001 38.222028038993926 L 666.234375 38.222024231242756 L 671.6953125000001 38.2220213265507 L 677.15625 38.22201911074518 L 682.6171875000001 38.222017420447514 L 688.078125 38.22201613102658 L 693.5390625000001 38.22201514740897 L 699 38.22201439706947" stroke-opacity="0.6980392156862745" stroke-linecap="round" stroke-linejoin="round" stroke-miterlimit="10" stroke-width="2.5"/><path fill="none" stroke="rgb(0,100,0)" paint-order="fill stroke markers" d=" M 0 332.4440239671991 L 5.4609375 332.44402396719653 L 10.921875 332.44402396719227 L 16.3828125 332.4440239671848 L 21.843750000000014 332.4440239671721 L 27.304687500000014 332.4440239671502 L 32.765625 332.44402396711257 L 38.2265625 332.44402396704794 L 43.6875 332.4440239669369 L 49.1484375 332.44402396674604 L 54.609375 332.44402396641806 L 60.07031250000001 332.44402396585446 L 65.53125 332.4440239648859 L 70.9921875 332.4440239632215 L 76.453125 332.44402396036133 L 81.9140625 332.4440239554463 L 87.375 332.444023947 L 92.8359375 332.4440239324855 L 98.29687500000001 332.444023907543 L 103.75781250000001 332.4440238646806 L 109.21875000000001 332.4440237910237 L 114.67968750000001 332.44402366444797 L 120.14062500000001 332.4440234469339 L 125.60156250000001 332.4440230731468 L 131.0625 332.44402243081237 L 136.5234375 332.44402132699275 L 141.984375 332.4440194301337 L 147.4453125 332.4440161704762 L 152.90625 332.4440105689176 L 158.3671875 332.444000942919 L 163.828125 332.4439844011222 L 169.2890625 332.44395597487403 L 174.75 332.4439071257975 L 180.2109375 332.4438231811347 L 185.671875 332.4436789265315 L 191.1328125 332.44343103252334 L 196.59375 332.4430050400137 L 202.05468750000003 332.44227299602034 L 207.51562500000003 332.4410150234488 L 212.97656250000003 332.43885328547225 L 218.43750000000003 332.4351385208081 L 223.89843750000003 332.4287551021669 L 229.35937500000003 332.4177861626811 L 234.82031250000003 332.39893849775063 L 240.28125000000003 332.36655536602734 L 245.74218750000003 332.3109232194429 L 251.20312500000006 332.21537128801 L 256.66406250000006 332.05131501034083 L 262.125 331.76981974011426 L 267.5859375 331.2873419026713 L 273.046875 330.4619219156506 L 278.5078125 329.0542868876126 L 283.96875 326.66675000788086 L 286.69921875 324.9165675239822 L 289.4296875 322.6541753964691 L 292.16015625 319.74194288090314 L 294.890625 316.0134386170033 L 297.62109375000006 311.27279415088407 L 300.3515625 305.2980146925032 L 303.08203125000006 297.85070181250086 L 305.8125 288.69495010540965 L 307.177734375 283.4105701359683 L 308.54296875000006 277.62758968871776 L 309.908203125 271.3325614277362 L 311.2734375 264.51972721147933 L 312.638671875 257.19256444677455 L 314.00390625000006 249.3651753026538 L 315.369140625 241.06338085184038 L 316.734375 232.32537667166366 L 318.099609375 223.201818043085 L 319.46484375000006 213.75523467299251 L 320.830078125 204.05872668476445 L 322.1953125 194.19396120618924 L 323.560546875 184.2485638042373 L 324.92578125000006 174.3130698422828 L 326.29101562500006 164.47765539568832 L 327.65625000000006 154.82889557979075 L 329.02148437500006 145.44679460433147 L 330.38671875 136.40229725674544 L 331.751953125 127.75543243767856 L 333.1171875 119.55416660054695 L 334.482421875 111.83397072642714 L 335.84765625000006 104.61803973222942 L 337.21289062500006 97.91805554148888 L 338.57812500000006 91.73535777338603 L 339.94335937500006 86.06237847692714 L 341.30859375 80.88420599995214 L 344.0390625 71.92530833100767 L 346.76953125000006 64.6500978473652 L 349.50000000000006 58.821144503605126 L 354.9609375 50.57050259137719 L 356.326171875 49.064857765348336 L 357.69140625 47.73659861323023 L 360.42187500000006 45.53618256449556 L 365.8828125 42.522972833306255 L 368.61328125 41.51435658328205 L 371.34375000000006 40.74021598301073 L 376.8046875 39.69266696949734 L 382.26562500000006 39.07960727971869 L 387.7265625 38.721672489412185 L 393.18750000000006 38.51298087190014 L 398.6484375 38.391402552383624 L 404.10937500000006 38.320607427136224 L 409.5703125 38.27939465550935 L 415.03125000000006 38.25540681474223 L 420.4921875 38.24144601646975 L 425.95312500000006 38.2333213428052 L 431.4140625 38.228593228463296 L 436.87500000000006 38.22584177555956 L 442.3359375 38.22424062717937 L 447.79687500000006 38.22330887934686 L 453.2578125 38.22276667419612 L 458.71875000000006 38.22245115340883 L 464.1796875 38.22226754533028 L 469.64062500000006 38.22216070006385 L 475.10156250000006 38.22209852466091 L 480.56250000000006 38.22206234355605 L 486.02343750000006 38.222041289053664 L 491.48437500000006 38.222029037022196 L 496.94531250000006 38.22202190732304 L 502.40625000000006 38.22201775841046 L 507.86718750000006 38.222015344076226 L 513.3281250000001 38.222013939127635 L 518.7890625000001 38.22201312156028 L 524.25 38.22201264580178 L 529.7109375000001 38.22201236894847 L 535.171875 38.22201220784211 L 540.6328125000001 38.22201211409106 L 546.09375 38.22201205953553 L 551.5546875000001 38.22201202778865 L 557.015625 38.222012009314426 L 562.4765625000001 38.22201199856397 L 567.9375 38.22201199230801 L 573.3984375000001 38.22201198866759 L 578.859375 38.22201198654915 L 584.3203125000001 38.22201198531633 L 589.78125 38.22201198459902 L 595.2421875000001 38.22201198418156 L 600.703125 38.22201198393867 L 606.1640625000001 38.2220119837973 L 611.625 38.22201198371505 L 617.0859375000001 38.22201198366713 L 622.5468750000001 38.22201198363928 L 628.0078125000001 38.22201198362308 L 633.4687500000001 38.22201198361364 L 638.9296875000001 38.22201198360813 L 644.390625 38.22201198360494 L 649.8515625000001 38.222011983603124 L 655.3125 38.22201198360199 L 660.7734375000001 38.22201198360136 L 666.234375 38.22201198360102 L 671.6953125000001 38.22201198360085 L 677.15625 38.22201198360068 L 682.6171875000001 38.22201198360062 L 688.078125 38.22201198360057 L 693.5390625000001 38.22201198360057 L 699 38.22201198360051" stroke-opacity="0.6980392156862745" stroke-linecap="round" stroke-linejoin="round" stroke-miterlimit="10" stroke-width="2.5"/><path fill="none" stroke="rgb(153,51,255)" paint-order="fill stroke markers" d=" M 0 332.44393682278775 L 5.4609375 332.44390972988896 L 10.921875 332.44387421390536 L 16.3828125 332.4438276561333 L 21.843750000000014 332.44376662372673 L 27.304687500000014 332.44368661658586 L 32.765625 332.4435817355564 L 38.2265625 332.4434442474761 L 43.6875 332.4432640150026 L 49.1484375 332.4430277491857 L 54.609375 332.4427180296852 L 60.07031250000001 332.4423120204075 L 65.53125 332.44177978589005 L 70.9921875 332.4410820843441 L 76.453125 332.440167474715 L 81.9140625 332.43896852460045 L 87.375 332.4373968396749 L 92.8359375 332.43533654855565 L 98.29687500000001 332.4326357634705 L 103.75781250000001 332.42909538836926 L 109.21875000000001 332.42445445145574 L 114.67968750000001 332.41837088442554 L 120.14062500000001 332.4103963376677 L 125.60156250000001 332.3999431855876 L 131.0625 332.3862413083341 L 136.5234375 332.36828149609624 L 141.984375 332.3447413592891 L 147.4453125 332.3138883784172 L 152.90625 332.27345311109303 L 158.3671875 332.2204634920425 L 163.828125 332.1510284967133 L 169.2890625 332.06005605401515 L 174.75 331.94088584172584 L 180.2109375 331.78481234003556 L 185.671875 331.5804671620622 L 191.1328125 331.3130222538471 L 196.59375 330.96316734615374 L 202.05468750000003 330.5058068251782 L 207.51562500000003 329.9084146362995 L 212.97656250000003 329.1289841358362 L 218.43750000000003 328.11351864868476 L 223.89843750000003 326.7930374433528 L 229.35937500000003 325.08013609675453 L 234.82031250000003 322.8652623164961 L 240.28125000000003 320.0130784912253 L 245.74218750000003 316.35961481356185 L 251.20312500000006 311.7113965667214 L 256.66406250000006 305.84833974929967 L 262.125 298.5328346472237 L 267.5859375 289.5277789871251 L 270.31640625 284.32466916384243 L 273.046875 278.6258334574334 L 275.77734375 272.4166984460517 L 278.5078125 265.69011590383076 L 281.23828125 258.44792304613185 L 283.96875 250.70236712461445 L 286.69921875 242.47725870006667 L 289.4296875 233.8087099731472 L 292.16015625 224.74532302795072 L 294.890625 215.3477211785314 L 297.62109375000006 205.68736527102985 L 300.3515625 195.84466223334115 L 303.08203125000006 185.90644759811482 L 305.8125 175.96299609135818 L 308.54296875000006 166.10477243912646 L 311.2734375 156.4191676767634 L 314.00390625000006 146.98746811751488 L 316.734375 137.88227438693997 L 319.46484375000006 129.16553225920688 L 322.1953125 120.88726569363263 L 324.92578125000006 113.08502766549793 L 327.65625000000006 105.78401743785219 L 330.38671875 98.99776206275234 L 333.1171875 92.7292291783697 L 335.84765625000006 86.97222753681496 L 338.57812500000006 81.71295799187959 L 344.0390625 72.60381167624888 L 349.50000000000006 65.19730446864469 L 354.9609375 59.25714002461041 L 360.42187500000006 54.5451494954396 L 365.8828125 50.839920280534784 L 371.34375000000006 47.946319624305204 L 376.8046875 45.69867558735177 L 382.26562500000006 43.96006640353232 L 387.7265625 42.61954985263918 L 393.18750000000006 41.58854836164045 L 398.6484375 40.7971171974645 L 404.10937500000006 40.19048253500051 L 409.5703125 39.72601986068992 L 415.03125000000006 39.37071689138719 L 420.4921875 39.099098284236845 L 425.95312500000006 38.89155890159441 L 431.4140625 38.73304269871517 L 436.87500000000006 38.61200557816011 L 442.3359375 38.51960693354539 L 447.79687500000006 38.4490827810593 L 453.2578125 38.39526161507513 L 458.71875000000006 38.35419160679538 L 464.1796875 38.32285418557399 L 469.64062500000006 38.298944362117425 L 475.10156250000006 38.280702459140514 L 480.56250000000006 38.26678534604298 L 486.02343750000006 38.25616797699843 L 491.48437500000006 38.248068143706746 L 496.94531250000006 38.24188899431334 L 502.40625000000006 38.23717513831457 L 507.86718750000006 38.23357913474632 L 513.3281250000001 38.23083591241448 L 518.7890625000001 38.228743247553155 L 524.25 38.227146866136934 L 529.7109375000001 38.225929076277225 L 535.171875 38.22500009479245 L 540.6328125000001 38.22429142974744 L 546.09375 38.22375083180094 L 551.5546875000001 38.22333844255223 L 557.015625 38.22302385615228 L 562.4765625000001 38.222783877672384 L 567.9375 38.22260081303551 L 573.3984375000001 38.22246116447252 L 578.859375 38.22235463534497 L 584.3203125000001 38.22227337097303 L 589.78125 38.22221137950356 L 595.2421875000001 38.22216409012265 L 600.703125 38.2221280160407 L 606.1640625000001 38.22210049740386 L 611.625 38.22207950517634 L 617.0859375000001 38.2220634915343 L 622.5468750000001 38.22205127574051 L 628.0078125000001 38.22204195708497 L 633.4687500000001 38.22203484847279 L 638.9296875000001 38.2220294257628 L 644.390625 38.22202528912095 L 649.8515625000001 38.22202213353887 L 655.3125 38.222019726345366 L 660.7734375000001 38.22201789004987 L 666.234375 38.222016489256475 L 671.6953125000001 38.222015420679895 L 677.15625 38.222014605530546 L 682.6171875000001 38.22201398370481 L 688.078125 38.2220135093533 L 693.5390625000001 38.22201314750066 L 699 38.22201287146612" stroke-opacity="0.6980392156862745" stroke-linecap="round" stroke-linejoin="round" stroke-miterlimit="10" stroke-width="2.5"/><path fill="none" stroke="rgb(255,85,0)" paint-order="fill stroke markers" d=" M 323 186.83466085954385 L 121.68639798488654 187.99999999999986" stroke-opacity="0.6980392156862745" stroke-linejoin="round" stroke-miterlimit="10" stroke-width="2.5" stroke-dasharray="10.5,8"/><path fill="none" stroke="rgb(244,0,153)" paint-order="fill stroke markers" d=" M 397.0847607052895 33.22201198360051 L 407.0847607052895 43.22201198360051" stroke-opacity="1" stroke-linecap="square" stroke-miterlimit="10" stroke-width="2.5"/><path fill="none" stroke="rgb(244,0,153)" paint-order="fill stroke markers" d=" M 397.0847607052895 43.22201198360051 L 407.0847607052895 33.22201198360051" stroke-opacity="1" stroke-linecap="square" stroke-miterlimit="10" stroke-width="2.5"/><path fill="none" stroke="rgb(244,0,153)" paint-order="fill stroke markers" d=" M 497.46618215693803 31.99747632927 L 507.46618215693803 41.99747632927" stroke-opacity="1" stroke-linecap="square" stroke-miterlimit="10" stroke-width="2.5"/><path fill="none" stroke="rgb(244,0,153)" paint-order="fill stroke markers" d=" M 497.46618215693803 41.99747632927 L 507.46618215693803 31.99747632927" stroke-opacity="1" stroke-linecap="square" stroke-miterlimit="10" stroke-width="2.5"/><path fill="none" stroke="rgb(244,0,153)" paint-order="fill stroke markers" d=" M 566.0436288927602 31.99747632927 L 576.0436288927602 41.99747632927" stroke-opacity="1" stroke-linecap="square" stroke-miterlimit="10" stroke-width="2.5"/><path fill="none" stroke="rgb(244,0,153)" paint-order="fill stroke markers" d=" M 566.0436288927602 41.99747632927 L 576.0436288927602 31.99747632927" stroke-opacity="1" stroke-linecap="square" stroke-miterlimit="10" stroke-width="2.5"/><path fill="none" stroke="rgb(244,0,153)" paint-order="fill stroke markers" d=" M 432.69859357310565 31.99747632927 L 442.69859357310565 41.99747632927" stroke-opacity="1" stroke-linecap="square" stroke-miterlimit="10" stroke-width="2.5"/><path fill="none" stroke="rgb(244,0,153)" paint-order="fill stroke markers" d=" M 432.69859357310565 41.99747632927 L 442.69859357310565 31.99747632927" stroke-opacity="1" stroke-linecap="square" stroke-miterlimit="10" stroke-width="2.5"/><path fill="none" stroke="rgb(244,0,153)" paint-order="fill stroke markers" d=" M 596.5224941086813 31.99747632927 L 606.5224941086813 41.99747632927" stroke-opacity="1" stroke-linecap="square" stroke-miterlimit="10" stroke-width="2.5"/><path fill="none" stroke="rgb(244,0,153)" paint-order="fill stroke markers" d=" M 596.5224941086813 41.99747632927 L 606.5224941086813 31.99747632927" stroke-opacity="1" stroke-linecap="square" stroke-miterlimit="10" stroke-width="2.5"/><path fill="rgb(0,0,255)" stroke="none" paint-order="stroke fill markers" d=" M 169.51205995047 332.44402396720255 C 169.51205995047 335.2054477163565 167.27348369962397 337.44402396720255 164.51205995047 337.44402396720255 C 161.750636201316 337.44402396720255 159.51205995047 335.2054477163565 159.51205995047 332.44402396720255 C 159.51205995047 329.6826002180486 161.750636201316 327.44402396720255 164.51205995047 327.44402396720255 C 167.27348369962397 327.44402396720255 169.51205995047 329.6826002180486 169.51205995047 332.44402396720255 Z" fill-opacity="1"/><path fill="none" stroke="rgb(0,0,0)" paint-order="fill stroke markers" d=" M 169.51205995047 332.44402396720255 C 169.51205995047 335.2054477163565 167.27348369962397 337.44402396720255 164.51205995047 337.44402396720255 C 161.750636201316 337.44402396720255 159.51205995047 335.2054477163565 159.51205995047 332.44402396720255 C 159.51205995047 329.6826002180486 161.750636201316 327.44402396720255 164.51205995047 327.44402396720255 C 167.27348369962397 327.44402396720255 169.51205995047 329.6826002180486 169.51205995047 332.44402396720255 Z" stroke-opacity="1" stroke-linecap="round" stroke-linejoin="round" stroke-miterlimit="10"/><path fill="rgb(0,0,255)" stroke="none" paint-order="stroke fill markers" d=" M 209.5155705463664 332.44402396720255 C 209.5155705463664 335.2054477163565 207.27699429552038 337.44402396720255 204.5155705463664 337.44402396720255 C 201.75414679721243 337.44402396720255 199.5155705463664 335.2054477163565 199.5155705463664 332.44402396720255 C 199.5155705463664 329.6826002180486 201.75414679721243 327.44402396720255 204.5155705463664 327.44402396720255 C 207.27699429552038 327.44402396720255 209.5155705463664 329.6826002180486 209.5155705463664 332.44402396720255 Z" fill-opacity="1"/><path fill="none" stroke="rgb(0,0,0)" paint-order="fill stroke markers" d=" M 209.5155705463664 332.44402396720255 C 209.5155705463664 335.2054477163565 207.27699429552038 337.44402396720255 204.5155705463664 337.44402396720255 C 201.75414679721243 337.44402396720255 199.5155705463664 335.2054477163565 199.5155705463664 332.44402396720255 C 199.5155705463664 329.6826002180486 201.75414679721243 327.44402396720255 204.5155705463664 327.44402396720255 C 207.27699429552038 327.44402396720255 209.5155705463664 329.6826002180486 209.5155705463664 332.44402396720255 Z" stroke-opacity="1" stroke-linecap="round" stroke-linejoin="round" stroke-miterlimit="10"/><path fill="rgb(0,0,255)" stroke="none" paint-order="stroke fill markers" d=" M 249.5190811422628 332.44402396720255 C 249.5190811422628 335.2054477163565 247.28050489141677 337.44402396720255 244.5190811422628 337.44402396720255 C 241.75765739310881 337.44402396720255 239.5190811422628 335.2054477163565 239.5190811422628 332.44402396720255 C 239.5190811422628 329.6826002180486 241.75765739310881 327.44402396720255 244.5190811422628 327.44402396720255 C 247.28050489141677 327.44402396720255 249.5190811422628 329.6826002180486 249.5190811422628 332.44402396720255 Z" fill-opacity="1"/><path fill="none" stroke="rgb(0,0,0)" paint-order="fill stroke markers" d=" M 249.5190811422628 332.44402396720255 C 249.5190811422628 335.2054477163565 247.28050489141677 337.44402396720255 244.5190811422628 337.44402396720255 C 241.75765739310881 337.44402396720255 239.5190811422628 335.2054477163565 239.5190811422628 332.44402396720255 C 239.5190811422628 329.6826002180486 241.75765739310881 327.44402396720255 244.5190811422628 327.44402396720255 C 247.28050489141677 327.44402396720255 249.5190811422628 329.6826002180486 249.5190811422628 332.44402396720255 Z" stroke-opacity="1" stroke-linecap="round" stroke-linejoin="round" stroke-miterlimit="10"/><path fill="rgb(0,0,255)" stroke="none" paint-order="stroke fill markers" d=" M 278.0930172821888 332.44402396720255 C 278.0930172821888 335.2054477163565 275.85444103134273 337.44402396720255 273.0930172821888 337.44402396720255 C 270.33159353303483 337.44402396720255 268.0930172821888 335.2054477163565 268.0930172821888 332.44402396720255 C 268.0930172821888 329.6826002180486 270.33159353303483 327.44402396720255 273.0930172821888 327.44402396720255 C 275.85444103134273 327.44402396720255 278.0930172821888 329.6826002180486 278.0930172821888 332.44402396720255 Z" fill-opacity="1"/><path fill="none" stroke="rgb(0,0,0)" paint-order="fill stroke markers" d=" M 278.0930172821888 332.44402396720255 C 278.0930172821888 335.2054477163565 275.85444103134273 337.44402396720255 273.0930172821888 337.44402396720255 C 270.33159353303483 337.44402396720255 268.0930172821888 335.2054477163565 268.0930172821888 332.44402396720255 C 268.0930172821888 329.6826002180486 270.33159353303483 327.44402396720255 273.0930172821888 327.44402396720255 C 275.85444103134273 327.44402396720255 278.0930172821888 329.6826002180486 278.0930172821888 332.44402396720255 Z" stroke-opacity="1" stroke-linecap="round" stroke-linejoin="round" stroke-miterlimit="10"/><text fill="rgb(0,0,0)" stroke="none" font-family="geogebra-sans-serif, sans-serif" font-size="16px" font-style="normal" font-weight="normal" text-decoration="normal" x="62" y="49" text-anchor="start" dominant-baseline="alphabetic" fill-opacity="1">(Yes) 1</text><text fill="rgb(0,0,0)" stroke="none" font-family="geogebra-sans-serif, sans-serif" font-size="16px" font-style="normal" font-weight="normal" text-decoration="normal" x="8" y="191" text-anchor="start" dominant-baseline="alphabetic" fill-opacity="1">Malignant? 0.5</text><text fill="rgb(0,0,0)" stroke="none" font-family="geogebra-sans-serif, sans-serif" font-size="16px" font-style="normal" font-weight="normal" text-decoration="normal" x="60" y="338" text-anchor="start" dominant-baseline="alphabetic" fill-opacity="1">(No) 0</text></g></g></svg>