<svg version="1.1" xmlns="http://www.w3.org/2000/svg" xmlns:xlink="http://www.w3.org/1999/xlink" width="752" height="382"><defs><clipPath id="qgIpAGRTxZTd"><path fill="none" stroke="none" d=" M 0 0 L 752 0 L 752 382 L 0 382 L 0 0 Z"/></clipPath></defs><g transform="scale(1,1)" clip-path="url(#qgIpAGRTxZTd)"><g><rect fill="rgb(255,255,255)" stroke="none" x="0" y="0" width="752" height="382" fill-opacity="1"/><path fill="none" stroke="rgb(0,0,0)" paint-order="fill stroke markers" d=" M 119.5 2.5 L 119.5 349.5" stroke-opacity="1" stroke-miterlimit="10"/><path fill="none" stroke="rgb(0,0,0)" paint-order="fill stroke markers" d=" M 119.5 1.5 L 115.5 5.5" stroke-opacity="1" stroke-miterlimit="10"/><path fill="none" stroke="rgb(0,0,0)" paint-order="fill stroke markers" d=" M 119.5 1.5 L 123.5 5.5" stroke-opacity="1" stroke-miterlimit="10"/><text fill="rgb(0,0,0)" stroke="none" font-family="geogebra-sans-serif, sans-serif" font-size="16px" font-style="normal" font-weight="normal" text-decoration="normal" x="666" y="345" text-anchor="start" dominant-baseline="alphabetic" fill-opacity="1">TumorSize</text><path fill="none" stroke="rgb(0,0,0)" paint-order="fill stroke markers" d=" M 119.5 349.5 L 750.5 349.5" stroke-opacity="1" stroke-miterlimit="10"/><path fill="none" stroke="rgb(0,0,0)" paint-order="fill stroke markers" d=" M 751.5 349.5 L 747.5 345.5" stroke-opacity="1" stroke-miterlimit="10"/><path fill="none" stroke="rgb(0,0,0)" paint-order="fill stroke markers" d=" M 751.5 349.5 L 747.5 353.5" stroke-opacity="1" stroke-miterlimit="10"/><path fill="none" stroke="rgb(0,0,0)" paint-order="fill stroke markers" d=" M 119.5 349.5 L 119.5 352.5" stroke-opacity="1" stroke-miterlimit="10"/><path fill="none" stroke="rgb(0,0,0)" paint-order="fill stroke markers" d=" M 160.5 349.5 L 160.5 352.5" stroke-opacity="1" stroke-miterlimit="10"/><path fill="none" stroke="rgb(0,0,0)" paint-order="fill stroke markers" d=" M 200.5 349.5 L 200.5 352.5" stroke-opacity="1" stroke-miterlimit="10"/><path fill="none" stroke="rgb(0,0,0)" paint-order="fill stroke markers" d=" M 240.5 349.5 L 240.5 352.5" stroke-opacity="1" stroke-miterlimit="10"/><path fill="none" stroke="rgb(0,0,0)" paint-order="fill stroke markers" d=" M 281.5 349.5 L 281.5 352.5" stroke-opacity="1" stroke-miterlimit="10"/><path fill="none" stroke="rgb(0,0,0)" paint-order="fill stroke markers" d=" M 321.5 349.5 L 321.5 352.5" stroke-opacity="1" stroke-miterlimit="10"/><path fill="none" stroke="rgb(0,0,0)" paint-order="fill stroke markers" d=" M 361.5 349.5 L 361.5 352.5" stroke-opacity="1" stroke-miterlimit="10"/><path fill="none" stroke="rgb(0,0,0)" paint-order="fill stroke markers" d=" M 402.5 349.5 L 402.5 352.5" stroke-opacity="1" stroke-miterlimit="10"/><path fill="none" stroke="rgb(0,0,0)" paint-order="fill stroke markers" d=" M 442.5 349.5 L 442.5 352.5" stroke-opacity="1" stroke-miterlimit="10"/><path fill="none" stroke="rgb(0,0,0)" paint-order="fill stroke markers" d=" M 482.5 349.5 L 482.5 352.5" stroke-opacity="1" stroke-miterlimit="10"/><path fill="none" stroke="rgb(0,0,0)" paint-order="fill stroke markers" d=" M 523.5 349.5 L 523.5 352.5" stroke-opacity="1" stroke-miterlimit="10"/><path fill="none" stroke="rgb(0,0,0)" paint-order="fill stroke markers" d=" M 563.5 349.5 L 563.5 352.5" stroke-opacity="1" stroke-miterlimit="10"/><path fill="none" stroke="rgb(0,0,0)" paint-order="fill stroke markers" d=" M 603.5 349.5 L 603.5 352.5" stroke-opacity="1" stroke-miterlimit="10"/><path fill="none" stroke="rgb(0,0,0)" paint-order="fill stroke markers" d=" M 644.5 349.5 L 644.5 352.5" stroke-opacity="1" stroke-miterlimit="10"/><path fill="none" stroke="rgb(0,0,0)" paint-order="fill stroke markers" d=" M 684.5 349.5 L 684.5 352.5" stroke-opacity="1" stroke-miterlimit="10"/><path fill="none" stroke="rgb(0,0,0)" paint-order="fill stroke markers" d=" M 724.5 349.5 L 724.5 352.5" stroke-opacity="1" stroke-miterlimit="10"/><path fill="none" stroke="rgb(0,0,0)" paint-order="fill stroke markers" d=" M 116.5 290.5 L 119.5 290.5" stroke-opacity="1" stroke-miterlimit="10"/><path fill="none" stroke="rgb(0,0,0)" paint-order="fill stroke markers" d=" M 116.5 231.5 L 119.5 231.5" stroke-opacity="1" stroke-miterlimit="10"/><path fill="none" stroke="rgb(0,0,0)" paint-order="fill stroke markers" d=" M 116.5 172.5 L 119.5 172.5" stroke-opacity="1" stroke-miterlimit="10"/><path fill="none" stroke="rgb(0,0,0)" paint-order="fill stroke markers" d=" M 116.5 114.5 L 119.5 114.5" stroke-opacity="1" stroke-miterlimit="10"/><path fill="none" stroke="rgb(0,0,0)" paint-order="fill stroke markers" d=" M 116.5 55.5 L 119.5 55.5" stroke-opacity="1" stroke-miterlimit="10"/><path fill="none" stroke="rgb(0,0,0)" paint-order="fill stroke markers" d=" M 0 349.44398856721335 L 5.875 349.4439765991071 L 11.75 349.44396058479805 L 17.625 349.443939156338 L 23.5 349.4439104833008 L 29.375 349.44387211642726 L 35.25 349.44382077841027 L 41.124999999999986 349.4437520839489 L 46.999999999999986 349.44366016515926 L 52.875 349.44353717034784 L 58.74999999999999 349.4433725933343 L 64.625 349.443152376041 L 70.5 349.44285770770443 L 76.375 349.44246341815574 L 82.25 349.4419358279608 L 88.125 349.44122987184323 L 94 349.44028524978955 L 99.875 349.4390212772709 L 105.74999999999999 349.43732999506227 L 111.62499999999999 349.43506695076826 L 117.49999999999999 349.43203886581585 L 123.37499999999999 349.4279871365786 L 129.25 349.4225657641531 L 135.125 349.41531183445284 L 141 349.4056060393889 L 146.875 349.39261988898704 L 152.75 349.3752451449117 L 158.62499999999997 349.35199951849654 L 164.49999999999997 349.3209007048335 L 170.375 349.2792982197443 L 176.25 349.22364908067607 L 182.125 349.1492188947777 L 188 349.04968411487846 L 193.875 348.9166037959125 L 199.75 348.73871984067785 L 205.62499999999997 348.50103327401257 L 211.49999999999997 348.1835906152382 L 217.37499999999997 347.7598996318743 L 223.24999999999997 347.1948795796305 L 229.12499999999997 346.4422416675401 L 235 345.4411991400155 L 240.875 344.1124379090891 L 246.75 342.3533633288359 L 252.625 340.0328162970258 L 258.5 336.9857793762651 L 264.375 333.00914021188055 L 270.25 327.86040143226535 L 276.125 321.26230039711857 L 282 312.9173952801875 L 284.9375 307.9982213699971 L 287.875 302.5371525602902 L 290.8125 296.50720509037546 L 293.75 289.88876274803397 L 296.6875 282.6718387099561 L 299.625 274.85832941662693 L 302.5625 266.4640712709828 L 305.5 257.52047559438904 L 308.4375 248.07550355899136 L 311.375 238.19376096596676 L 312.84375 233.1136306353884 L 314.31249999999994 227.9555493191919 L 315.78125 222.73166863596728 L 317.24999999999994 217.45480431156955 L 318.71875 212.13831612817836 L 320.18749999999994 206.79597616117832 L 321.65624999999994 201.4418279784155 L 323.125 196.09003981306907 L 324.59375 190.75475494948276 L 326.06249999999994 185.4499426677499 L 327.53124999999994 180.18925307145832 L 329 174.9858789750206 L 330.46875 169.85242776099568 L 331.93749999999994 164.80080574896394 L 334.875 154.98657930306138 L 337.81249999999994 145.62100219745375 L 340.75 136.76594666345787 L 343.68749999999994 128.46658711721187 L 346.625 120.75165476573 L 349.56249999999994 113.63453858337917 L 352.5 107.11500695043412 L 355.43749999999994 101.18131199348784 L 358.375 95.81245674217129 L 364.25 86.65236573254163 L 370.125 79.36268944292146 L 376 73.6451879628562 L 381.875 69.2116834191317 L 387.75 65.804157323565 L 393.625 63.2029795577198 L 399.5 61.22765440898081 L 405.37499999999994 59.73352536610952 L 411.24999999999994 58.606751628429265 L 417.12499999999994 57.75893114363606 L 422.99999999999994 57.122088058094846 L 428.87499999999994 56.64433221441607 L 434.74999999999994 56.286266134166794 L 440.62499999999994 56.01809733913228 L 446.49999999999994 55.81736399346414 L 452.37499999999994 55.667168879514634 L 458.24999999999994 55.55482196789899 L 464.12499999999994 55.47080470709864 L 469.99999999999994 55.40798402572284 L 475.87499999999994 55.36101819679908 L 481.74999999999994 55.32590904079291 L 487.62499999999994 55.29966515291261 L 493.49999999999994 55.28004903451193 L 499.37499999999994 55.265387451281356 L 505.24999999999994 55.25442933558213 L 511.12499999999994 55.24623938393398 L 516.9999999999999 55.24011842236757 L 522.8749999999999 55.23554382758823 L 528.7499999999999 55.232124965215576 L 534.6249999999999 55.22956986684039 L 540.4999999999999 55.22766031521087 L 546.375 55.22623321812506 L 552.25 55.2251666849005 L 558.125 55.22436961881817 L 564 55.22377393805715 L 569.875 55.223328761487096 L 575.75 55.22299606314533 L 581.625 55.22274742447007 L 587.5 55.222561607012494 L 593.375 55.2224227383727 L 599.25 55.22231895644603 L 605.125 55.22224139619868 L 611 55.222183432435315 L 616.875 55.22214011388519 L 622.75 55.22210774026894 L 628.6249999999999 55.22208354622387 L 634.4999999999999 55.222065465086814 L 640.3749999999999 55.222051952360744 L 646.2499999999999 55.22204185378337 L 652.1249999999999 55.222034306730166 L 657.9999999999999 55.222028666528615 L 663.8749999999999 55.22202445139038 L 669.7499999999999 55.22202130125646 L 675.6249999999999 55.22201894704091 L 681.4999999999999 55.22201718764569 L 687.3749999999999 55.22201587278238 L 693.2499999999999 55.222014890134744 L 699.1249999999999 55.22201415576467 L 704.9999999999999 55.2220136069418 L 710.8749999999999 55.2220131967855 L 716.7499999999999 55.222012890259975 L 722.6249999999999 55.22201266118185 L 728.4999999999999 55.22201248998289 L 734.3749999999999 55.222012362039436 L 740.2499999999999 55.22201226642238 L 746.1249999999999 55.22201219496412 L 752 55.22201214156064" stroke-opacity="0.6980392156862745" stroke-linecap="round" stroke-linejoin="round" stroke-miterlimit="10" stroke-width="2.5"/><path fill="none" stroke="rgb(255,85,0)" paint-order="fill stroke markers" d=" M 320.99999999999994 203.8346608595439 L 119.68639798488651 204.99999999999991" stroke-opacity="0.6980392156862745" stroke-linejoin="round" stroke-miterlimit="10" stroke-width="2.5" stroke-dasharray="10.5,8"/><path fill="none" stroke="rgb(244,0,153)" paint-order="fill stroke markers" d=" M 395.08476070528945 50.22201198360057 L 405.08476070528945 60.22201198360057" stroke-opacity="1" stroke-linecap="square" stroke-miterlimit="10" stroke-width="2.5"/><path fill="none" stroke="rgb(244,0,153)" paint-order="fill stroke markers" d=" M 395.08476070528945 60.22201198360057 L 405.08476070528945 50.22201198360057" stroke-opacity="1" stroke-linecap="square" stroke-miterlimit="10" stroke-width="2.5"/><path fill="none" stroke="rgb(244,0,153)" paint-order="fill stroke markers" d=" M 495.46618215693803 48.99747632927006 L 505.46618215693803 58.99747632927006" stroke-opacity="1" stroke-linecap="square" stroke-miterlimit="10" stroke-width="2.5"/><path fill="none" stroke="rgb(244,0,153)" paint-order="fill stroke markers" d=" M 495.46618215693803 58.99747632927006 L 505.46618215693803 48.99747632927006" stroke-opacity="1" stroke-linecap="square" stroke-miterlimit="10" stroke-width="2.5"/><path fill="none" stroke="rgb(244,0,153)" paint-order="fill stroke markers" d=" M 564.0436288927601 48.99747632927006 L 574.0436288927601 58.99747632927006" stroke-opacity="1" stroke-linecap="square" stroke-miterlimit="10" stroke-width="2.5"/><path fill="none" stroke="rgb(244,0,153)" paint-order="fill stroke markers" d=" M 564.0436288927601 58.99747632927006 L 574.0436288927601 48.99747632927006" stroke-opacity="1" stroke-linecap="square" stroke-miterlimit="10" stroke-width="2.5"/><path fill="none" stroke="rgb(244,0,153)" paint-order="fill stroke markers" d=" M 430.69859357310565 48.99747632927006 L 440.69859357310565 58.99747632927006" stroke-opacity="1" stroke-linecap="square" stroke-miterlimit="10" stroke-width="2.5"/><path fill="none" stroke="rgb(244,0,153)" paint-order="fill stroke markers" d=" M 430.69859357310565 58.99747632927006 L 440.69859357310565 48.99747632927006" stroke-opacity="1" stroke-linecap="square" stroke-miterlimit="10" stroke-width="2.5"/><path fill="none" stroke="rgb(244,0,153)" paint-order="fill stroke markers" d=" M 594.5224941086811 48.99747632927006 L 604.5224941086811 58.99747632927006" stroke-opacity="1" stroke-linecap="square" stroke-miterlimit="10" stroke-width="2.5"/><path fill="none" stroke="rgb(244,0,153)" paint-order="fill stroke markers" d=" M 594.5224941086811 58.99747632927006 L 604.5224941086811 48.99747632927006" stroke-opacity="1" stroke-linecap="square" stroke-miterlimit="10" stroke-width="2.5"/><path fill="rgb(0,0,255)" stroke="none" paint-order="stroke fill markers" d=" M 167.51205995046996 349.4440239672026 C 167.51205995046996 352.20544771635656 165.27348369962394 354.4440239672026 162.51205995046996 354.4440239672026 C 159.75063620131598 354.4440239672026 157.51205995046996 352.20544771635656 157.51205995046996 349.4440239672026 C 157.51205995046996 346.68260021804866 159.75063620131598 344.4440239672026 162.51205995046996 344.4440239672026 C 165.27348369962394 344.4440239672026 167.51205995046996 346.68260021804866 167.51205995046996 349.4440239672026 Z" fill-opacity="1"/><path fill="none" stroke="rgb(0,0,0)" paint-order="fill stroke markers" d=" M 167.51205995046996 349.4440239672026 C 167.51205995046996 352.20544771635656 165.27348369962394 354.4440239672026 162.51205995046996 354.4440239672026 C 159.75063620131598 354.4440239672026 157.51205995046996 352.20544771635656 157.51205995046996 349.4440239672026 C 157.51205995046996 346.68260021804866 159.75063620131598 344.4440239672026 162.51205995046996 344.4440239672026 C 165.27348369962394 344.4440239672026 167.51205995046996 346.68260021804866 167.51205995046996 349.4440239672026 Z" stroke-opacity="1" stroke-linecap="round" stroke-linejoin="round" stroke-miterlimit="10"/><path fill="rgb(0,0,255)" stroke="none" paint-order="stroke fill markers" d=" M 207.51557054636635 349.4440239672026 C 207.51557054636635 352.20544771635656 205.27699429552032 354.4440239672026 202.51557054636635 354.4440239672026 C 199.75414679721237 354.4440239672026 197.51557054636635 352.20544771635656 197.51557054636635 349.4440239672026 C 197.51557054636635 346.68260021804866 199.75414679721237 344.4440239672026 202.51557054636635 344.4440239672026 C 205.27699429552032 344.4440239672026 207.51557054636635 346.68260021804866 207.51557054636635 349.4440239672026 Z" fill-opacity="1"/><path fill="none" stroke="rgb(0,0,0)" paint-order="fill stroke markers" d=" M 207.51557054636635 349.4440239672026 C 207.51557054636635 352.20544771635656 205.27699429552032 354.4440239672026 202.51557054636635 354.4440239672026 C 199.75414679721237 354.4440239672026 197.51557054636635 352.20544771635656 197.51557054636635 349.4440239672026 C 197.51557054636635 346.68260021804866 199.75414679721237 344.4440239672026 202.51557054636635 344.4440239672026 C 205.27699429552032 344.4440239672026 207.51557054636635 346.68260021804866 207.51557054636635 349.4440239672026 Z" stroke-opacity="1" stroke-linecap="round" stroke-linejoin="round" stroke-miterlimit="10"/><path fill="rgb(0,0,255)" stroke="none" paint-order="stroke fill markers" d=" M 247.51908114226273 349.4440239672026 C 247.51908114226273 352.20544771635656 245.2805048914167 354.4440239672026 242.51908114226273 354.4440239672026 C 239.75765739310876 354.4440239672026 237.51908114226273 352.20544771635656 237.51908114226273 349.4440239672026 C 237.51908114226273 346.68260021804866 239.75765739310876 344.4440239672026 242.51908114226273 344.4440239672026 C 245.2805048914167 344.4440239672026 247.51908114226273 346.68260021804866 247.51908114226273 349.4440239672026 Z" fill-opacity="1"/><path fill="none" stroke="rgb(0,0,0)" paint-order="fill stroke markers" d=" M 247.51908114226273 349.4440239672026 C 247.51908114226273 352.20544771635656 245.2805048914167 354.4440239672026 242.51908114226273 354.4440239672026 C 239.75765739310876 354.4440239672026 237.51908114226273 352.20544771635656 237.51908114226273 349.4440239672026 C 237.51908114226273 346.68260021804866 239.75765739310876 344.4440239672026 242.51908114226273 344.4440239672026 C 245.2805048914167 344.4440239672026 247.51908114226273 346.68260021804866 247.51908114226273 349.4440239672026 Z" stroke-opacity="1" stroke-linecap="round" stroke-linejoin="round" stroke-miterlimit="10"/><path fill="rgb(0,0,255)" stroke="none" paint-order="stroke fill markers" d=" M 276.0930172821887 349.4440239672026 C 276.0930172821887 352.20544771635656 273.8544410313427 354.4440239672026 271.0930172821887 354.4440239672026 C 268.3315935330348 354.4440239672026 266.0930172821887 352.20544771635656 266.0930172821887 349.4440239672026 C 266.0930172821887 346.68260021804866 268.3315935330348 344.4440239672026 271.0930172821887 344.4440239672026 C 273.8544410313427 344.4440239672026 276.0930172821887 346.68260021804866 276.0930172821887 349.4440239672026 Z" fill-opacity="1"/><path fill="none" stroke="rgb(0,0,0)" paint-order="fill stroke markers" d=" M 276.0930172821887 349.4440239672026 C 276.0930172821887 352.20544771635656 273.8544410313427 354.4440239672026 271.0930172821887 354.4440239672026 C 268.3315935330348 354.4440239672026 266.0930172821887 352.20544771635656 266.0930172821887 349.4440239672026 C 266.0930172821887 346.68260021804866 268.3315935330348 344.4440239672026 271.0930172821887 344.4440239672026 C 273.8544410313427 344.4440239672026 276.0930172821887 346.68260021804866 276.0930172821887 349.4440239672026 Z" stroke-opacity="1" stroke-linecap="round" stroke-linejoin="round" stroke-miterlimit="10"/><path fill="none" stroke="rgb(244,0,153)" paint-order="fill stroke markers" d=" M 703.7246851385388 50.22201198360057 L 713.7246851385388 60.22201198360057" stroke-opacity="1" stroke-linecap="square" stroke-miterlimit="10" stroke-width="2.5"/><path fill="none" stroke="rgb(244,0,153)" paint-order="fill stroke markers" d=" M 703.7246851385388 60.22201198360057 L 713.7246851385388 50.22201198360057" stroke-opacity="1" stroke-linecap="square" stroke-miterlimit="10" stroke-width="2.5"/><path fill="none" stroke="rgb(244,0,153)" paint-order="fill stroke markers" d=" M 743.6040807644239 50.22201198360057 L 753.6040807644239 60.22201198360057" stroke-opacity="1" stroke-linecap="square" stroke-miterlimit="10" stroke-width="2.5"/><path fill="none" stroke="rgb(244,0,153)" paint-order="fill stroke markers" d=" M 743.6040807644239 60.22201198360057 L 753.6040807644239 50.22201198360057" stroke-opacity="1" stroke-linecap="square" stroke-miterlimit="10" stroke-width="2.5"/><text fill="rgb(0,0,0)" stroke="none" font-family="geogebra-sans-serif, sans-serif" font-size="16px" font-style="normal" font-weight="normal" text-decoration="normal" x="60" y="66" text-anchor="start" dominant-baseline="alphabetic" fill-opacity="1">(Yes) 1</text><text fill="rgb(0,0,0)" stroke="none" font-family="geogebra-sans-serif, sans-serif" font-size="16px" font-style="normal" font-weight="normal" text-decoration="normal" x="6" y="208" text-anchor="start" dominant-baseline="alphabetic" fill-opacity="1">Malignant? 0.5</text><text fill="rgb(0,0,0)" stroke="none" font-family="geogebra-sans-serif, sans-serif" font-size="16px" font-style="normal" font-weight="normal" text-decoration="normal" x="58" y="355" text-anchor="start" dominant-baseline="alphabetic" fill-opacity="1">(No) 0</text><text fill="rgb(0,0,0)" stroke="none" font-family="geogebra-sans-serif, sans-serif" font-size="16px" font-style="normal" font-weight="normal" text-decoration="normal" x="348" y="159" text-anchor="start" dominant-baseline="alphabetic" fill-opacity="1">Sigmoid hypothesis</text></g></g></svg>