<svg version="1.1" xmlns="http://www.w3.org/2000/svg" xmlns:xlink="http://www.w3.org/1999/xlink" width="788" height="448"><defs><clipPath id="TDCQiTfnIUdR"><path fill="none" stroke="none" d=" M 0 0 L 788 0 L 788 448 L 0 448 L 0 0 Z"/></clipPath></defs><g transform="scale(1,1)" clip-path="url(#TDCQiTfnIUdR)"><g><rect fill="rgb(255,255,255)" stroke="none" x="0" y="0" width="788" height="448" fill-opacity="1"/><path fill="none" stroke="rgb(0,0,0)" paint-order="fill stroke markers" d=" M 129.5 2.5 L 129.5 391.5" stroke-opacity="1" stroke-miterlimit="10"/><path fill="none" stroke="rgb(0,0,0)" paint-order="fill stroke markers" d=" M 129.5 1.5 L 125.5 5.5" stroke-opacity="1" stroke-miterlimit="10"/><path fill="none" stroke="rgb(0,0,0)" paint-order="fill stroke markers" d=" M 129.5 1.5 L 133.5 5.5" stroke-opacity="1" stroke-miterlimit="10"/><text fill="rgb(0,0,0)" stroke="none" font-family="geogebra-sans-serif, sans-serif" font-size="16px" font-style="normal" font-weight="normal" text-decoration="normal" x="702" y="387" text-anchor="start" dominant-baseline="alphabetic" fill-opacity="1">TumorSize</text><path fill="none" stroke="rgb(0,0,0)" paint-order="fill stroke markers" d=" M 129.5 391.5 L 786.5 391.5" stroke-opacity="1" stroke-miterlimit="10"/><path fill="none" stroke="rgb(0,0,0)" paint-order="fill stroke markers" d=" M 787.5 391.5 L 783.5 387.5" stroke-opacity="1" stroke-miterlimit="10"/><path fill="none" stroke="rgb(0,0,0)" paint-order="fill stroke markers" d=" M 787.5 391.5 L 783.5 395.5" stroke-opacity="1" stroke-miterlimit="10"/><path fill="none" stroke="rgb(0,0,0)" paint-order="fill stroke markers" d=" M 129.5 391.5 L 129.5 394.5" stroke-opacity="1" stroke-miterlimit="10"/><path fill="none" stroke="rgb(0,0,0)" paint-order="fill stroke markers" d=" M 170.5 391.5 L 170.5 394.5" stroke-opacity="1" stroke-miterlimit="10"/><path fill="none" stroke="rgb(0,0,0)" paint-order="fill stroke markers" d=" M 210.5 391.5 L 210.5 394.5" stroke-opacity="1" stroke-miterlimit="10"/><path fill="none" stroke="rgb(0,0,0)" paint-order="fill stroke markers" d=" M 250.5 391.5 L 250.5 394.5" stroke-opacity="1" stroke-miterlimit="10"/><path fill="none" stroke="rgb(0,0,0)" paint-order="fill stroke markers" d=" M 291.5 391.5 L 291.5 394.5" stroke-opacity="1" stroke-miterlimit="10"/><path fill="none" stroke="rgb(0,0,0)" paint-order="fill stroke markers" d=" M 331.5 391.5 L 331.5 394.5" stroke-opacity="1" stroke-miterlimit="10"/><path fill="none" stroke="rgb(0,0,0)" paint-order="fill stroke markers" d=" M 371.5 391.5 L 371.5 394.5" stroke-opacity="1" stroke-miterlimit="10"/><path fill="none" stroke="rgb(0,0,0)" paint-order="fill stroke markers" d=" M 412.5 391.5 L 412.5 394.5" stroke-opacity="1" stroke-miterlimit="10"/><path fill="none" stroke="rgb(0,0,0)" paint-order="fill stroke markers" d=" M 452.5 391.5 L 452.5 394.5" stroke-opacity="1" stroke-miterlimit="10"/><path fill="none" stroke="rgb(0,0,0)" paint-order="fill stroke markers" d=" M 492.5 391.5 L 492.5 394.5" stroke-opacity="1" stroke-miterlimit="10"/><path fill="none" stroke="rgb(0,0,0)" paint-order="fill stroke markers" d=" M 533.5 391.5 L 533.5 394.5" stroke-opacity="1" stroke-miterlimit="10"/><path fill="none" stroke="rgb(0,0,0)" paint-order="fill stroke markers" d=" M 573.5 391.5 L 573.5 394.5" stroke-opacity="1" stroke-miterlimit="10"/><path fill="none" stroke="rgb(0,0,0)" paint-order="fill stroke markers" d=" M 613.5 391.5 L 613.5 394.5" stroke-opacity="1" stroke-miterlimit="10"/><path fill="none" stroke="rgb(0,0,0)" paint-order="fill stroke markers" d=" M 654.5 391.5 L 654.5 394.5" stroke-opacity="1" stroke-miterlimit="10"/><path fill="none" stroke="rgb(0,0,0)" paint-order="fill stroke markers" d=" M 694.5 391.5 L 694.5 394.5" stroke-opacity="1" stroke-miterlimit="10"/><path fill="none" stroke="rgb(0,0,0)" paint-order="fill stroke markers" d=" M 734.5 391.5 L 734.5 394.5" stroke-opacity="1" stroke-miterlimit="10"/><path fill="none" stroke="rgb(0,0,0)" paint-order="fill stroke markers" d=" M 775.5 391.5 L 775.5 394.5" stroke-opacity="1" stroke-miterlimit="10"/><path fill="none" stroke="rgb(0,0,0)" paint-order="fill stroke markers" d=" M 126.5 332.5 L 129.5 332.5" stroke-opacity="1" stroke-miterlimit="10"/><path fill="none" stroke="rgb(0,0,0)" paint-order="fill stroke markers" d=" M 126.5 273.5 L 129.5 273.5" stroke-opacity="1" stroke-miterlimit="10"/><path fill="none" stroke="rgb(0,0,0)" paint-order="fill stroke markers" d=" M 126.5 214.5 L 129.5 214.5" stroke-opacity="1" stroke-miterlimit="10"/><path fill="none" stroke="rgb(0,0,0)" paint-order="fill stroke markers" d=" M 126.5 156.5 L 129.5 156.5" stroke-opacity="1" stroke-miterlimit="10"/><path fill="none" stroke="rgb(0,0,0)" paint-order="fill stroke markers" d=" M 126.5 97.5 L 129.5 97.5" stroke-opacity="1" stroke-miterlimit="10"/><path fill="none" stroke="rgb(0,0,0)" paint-order="fill stroke markers" d=" M 126.5 38.5 L 129.5 38.5" stroke-opacity="1" stroke-miterlimit="10"/><path fill="none" stroke="rgb(0,0,0)" paint-order="fill stroke markers" d=" M 150.43787543065335 453 L 612.3196649070841 -5" stroke-opacity="0.6980392156862745" stroke-linecap="round" stroke-linejoin="round" stroke-miterlimit="10" stroke-width="2.5"/><path fill="none" stroke="rgb(255,85,0)" paint-order="fill stroke markers" d=" M 361.32138937512093 243.88881270670933 L 129.68639798488664 244.3330179754019" stroke-opacity="0.6980392156862745" stroke-linejoin="round" stroke-miterlimit="10" stroke-width="2.5" stroke-dasharray="10.5,8"/><path fill="none" stroke="rgb(255,85,0)" paint-order="fill stroke markers" d=" M 361.32138937512093 243.88881270670933 L 361.1000384739816 391.4440239672029" stroke-opacity="0.6980392156862745" stroke-linejoin="round" stroke-miterlimit="10" stroke-width="2.5" stroke-dasharray="10.5,8"/><path fill="none" stroke="rgb(244,0,153)" paint-order="fill stroke markers" d=" M 404.7661909855595 92.21530047057445 L 414.7661909855595 102.21530047057445" stroke-opacity="1" stroke-linecap="square" stroke-miterlimit="10" stroke-width="2.5"/><path fill="none" stroke="rgb(244,0,153)" paint-order="fill stroke markers" d=" M 404.7661909855595 102.21530047057445 L 414.7661909855595 92.21530047057445" stroke-opacity="1" stroke-linecap="square" stroke-miterlimit="10" stroke-width="2.5"/><path fill="none" stroke="rgb(244,0,153)" paint-order="fill stroke markers" d=" M 505.46618215693815 90.9974763292704 L 515.4661821569382 100.9974763292704" stroke-opacity="1" stroke-linecap="square" stroke-miterlimit="10" stroke-width="2.5"/><path fill="none" stroke="rgb(244,0,153)" paint-order="fill stroke markers" d=" M 505.46618215693815 100.9974763292704 L 515.4661821569382 90.9974763292704" stroke-opacity="1" stroke-linecap="square" stroke-miterlimit="10" stroke-width="2.5"/><path fill="none" stroke="rgb(244,0,153)" paint-order="fill stroke markers" d=" M 574.0436288927604 90.9974763292704 L 584.0436288927604 100.9974763292704" stroke-opacity="1" stroke-linecap="square" stroke-miterlimit="10" stroke-width="2.5"/><path fill="none" stroke="rgb(244,0,153)" paint-order="fill stroke markers" d=" M 574.0436288927604 100.9974763292704 L 584.0436288927604 90.9974763292704" stroke-opacity="1" stroke-linecap="square" stroke-miterlimit="10" stroke-width="2.5"/><path fill="none" stroke="rgb(244,0,153)" paint-order="fill stroke markers" d=" M 440.69859357310577 90.9974763292704 L 450.69859357310577 100.9974763292704" stroke-opacity="1" stroke-linecap="square" stroke-miterlimit="10" stroke-width="2.5"/><path fill="none" stroke="rgb(244,0,153)" paint-order="fill stroke markers" d=" M 440.69859357310577 100.9974763292704 L 450.69859357310577 90.9974763292704" stroke-opacity="1" stroke-linecap="square" stroke-miterlimit="10" stroke-width="2.5"/><path fill="none" stroke="rgb(244,0,153)" paint-order="fill stroke markers" d=" M 604.5224941086813 90.9974763292704 L 614.5224941086813 100.9974763292704" stroke-opacity="1" stroke-linecap="square" stroke-miterlimit="10" stroke-width="2.5"/><path fill="none" stroke="rgb(244,0,153)" paint-order="fill stroke markers" d=" M 604.5224941086813 100.9974763292704 L 614.5224941086813 90.9974763292704" stroke-opacity="1" stroke-linecap="square" stroke-miterlimit="10" stroke-width="2.5"/><path fill="rgb(0,0,255)" stroke="none" paint-order="stroke fill markers" d=" M 177.51205995047007 391.4440239672029 C 177.51205995047007 394.20544771635684 175.27348369962405 396.4440239672029 172.51205995047007 396.4440239672029 C 169.7506362013161 396.4440239672029 167.51205995047007 394.20544771635684 167.51205995047007 391.4440239672029 C 167.51205995047007 388.68260021804895 169.7506362013161 386.4440239672029 172.51205995047007 386.4440239672029 C 175.27348369962405 386.4440239672029 177.51205995047007 388.68260021804895 177.51205995047007 391.4440239672029 Z" fill-opacity="1"/><path fill="none" stroke="rgb(0,0,0)" paint-order="fill stroke markers" d=" M 177.51205995047007 391.4440239672029 C 177.51205995047007 394.20544771635684 175.27348369962405 396.4440239672029 172.51205995047007 396.4440239672029 C 169.7506362013161 396.4440239672029 167.51205995047007 394.20544771635684 167.51205995047007 391.4440239672029 C 167.51205995047007 388.68260021804895 169.7506362013161 386.4440239672029 172.51205995047007 386.4440239672029 C 175.27348369962405 386.4440239672029 177.51205995047007 388.68260021804895 177.51205995047007 391.4440239672029 Z" stroke-opacity="1" stroke-linecap="round" stroke-linejoin="round" stroke-miterlimit="10"/><path fill="rgb(0,0,255)" stroke="none" paint-order="stroke fill markers" d=" M 217.51557054636646 391.4440239672029 C 217.51557054636646 394.20544771635684 215.27699429552044 396.4440239672029 212.51557054636646 396.4440239672029 C 209.75414679721248 396.4440239672029 207.51557054636646 394.20544771635684 207.51557054636646 391.4440239672029 C 207.51557054636646 388.68260021804895 209.75414679721248 386.4440239672029 212.51557054636646 386.4440239672029 C 215.27699429552044 386.4440239672029 217.51557054636646 388.68260021804895 217.51557054636646 391.4440239672029 Z" fill-opacity="1"/><path fill="none" stroke="rgb(0,0,0)" paint-order="fill stroke markers" d=" M 217.51557054636646 391.4440239672029 C 217.51557054636646 394.20544771635684 215.27699429552044 396.4440239672029 212.51557054636646 396.4440239672029 C 209.75414679721248 396.4440239672029 207.51557054636646 394.20544771635684 207.51557054636646 391.4440239672029 C 207.51557054636646 388.68260021804895 209.75414679721248 386.4440239672029 212.51557054636646 386.4440239672029 C 215.27699429552044 386.4440239672029 217.51557054636646 388.68260021804895 217.51557054636646 391.4440239672029 Z" stroke-opacity="1" stroke-linecap="round" stroke-linejoin="round" stroke-miterlimit="10"/><path fill="rgb(0,0,255)" stroke="none" paint-order="stroke fill markers" d=" M 257.51908114226285 391.4440239672029 C 257.51908114226285 394.20544771635684 255.28050489141683 396.4440239672029 252.51908114226285 396.4440239672029 C 249.75765739310887 396.4440239672029 247.51908114226285 394.20544771635684 247.51908114226285 391.4440239672029 C 247.51908114226285 388.68260021804895 249.75765739310887 386.4440239672029 252.51908114226285 386.4440239672029 C 255.28050489141683 386.4440239672029 257.51908114226285 388.68260021804895 257.51908114226285 391.4440239672029 Z" fill-opacity="1"/><path fill="none" stroke="rgb(0,0,0)" paint-order="fill stroke markers" d=" M 257.51908114226285 391.4440239672029 C 257.51908114226285 394.20544771635684 255.28050489141683 396.4440239672029 252.51908114226285 396.4440239672029 C 249.75765739310887 396.4440239672029 247.51908114226285 394.20544771635684 247.51908114226285 391.4440239672029 C 247.51908114226285 388.68260021804895 249.75765739310887 386.4440239672029 252.51908114226285 386.4440239672029 C 255.28050489141683 386.4440239672029 257.51908114226285 388.68260021804895 257.51908114226285 391.4440239672029 Z" stroke-opacity="1" stroke-linecap="round" stroke-linejoin="round" stroke-miterlimit="10"/><path fill="rgb(0,0,255)" stroke="none" paint-order="stroke fill markers" d=" M 286.09301728218884 391.4440239672029 C 286.09301728218884 394.20544771635684 283.8544410313428 396.4440239672029 281.09301728218884 396.4440239672029 C 278.3315935330349 396.4440239672029 276.09301728218884 394.20544771635684 276.09301728218884 391.4440239672029 C 276.09301728218884 388.68260021804895 278.3315935330349 386.4440239672029 281.09301728218884 386.4440239672029 C 283.8544410313428 386.4440239672029 286.09301728218884 388.68260021804895 286.09301728218884 391.4440239672029 Z" fill-opacity="1"/><path fill="none" stroke="rgb(0,0,0)" paint-order="fill stroke markers" d=" M 286.09301728218884 391.4440239672029 C 286.09301728218884 394.20544771635684 283.8544410313428 396.4440239672029 281.09301728218884 396.4440239672029 C 278.3315935330349 396.4440239672029 276.09301728218884 394.20544771635684 276.09301728218884 391.4440239672029 C 276.09301728218884 388.68260021804895 278.3315935330349 386.4440239672029 281.09301728218884 386.4440239672029 C 283.8544410313428 386.4440239672029 286.09301728218884 388.68260021804895 286.09301728218884 391.4440239672029 Z" stroke-opacity="1" stroke-linecap="round" stroke-linejoin="round" stroke-miterlimit="10"/><text fill="rgb(0,0,0)" stroke="none" font-family="geogebra-sans-serif, sans-serif" font-size="16px" font-style="normal" font-weight="normal" text-decoration="normal" x="70" y="108" text-anchor="start" dominant-baseline="alphabetic" fill-opacity="1">(Yes) 1</text><text fill="rgb(0,0,0)" stroke="none" font-family="geogebra-sans-serif, sans-serif" font-size="16px" font-style="normal" font-weight="normal" text-decoration="normal" x="16" y="250" text-anchor="start" dominant-baseline="alphabetic" fill-opacity="1">Malignant? 0.5</text><text fill="rgb(0,0,0)" stroke="none" font-family="geogebra-sans-serif, sans-serif" font-size="16px" font-style="normal" font-weight="normal" text-decoration="normal" x="68" y="397" text-anchor="start" dominant-baseline="alphabetic" fill-opacity="1">(No) 0</text></g></g></svg>