<?xml version="1.0" encoding="UTF-8" standalone="no"?>
<!-- Created with Inkscape (http://www.inkscape.org/) -->

<svg
   xmlns:dc="http://purl.org/dc/elements/1.1/"
   xmlns:cc="http://creativecommons.org/ns#"
   xmlns:rdf="http://www.w3.org/1999/02/22-rdf-syntax-ns#"
   xmlns:svg="http://www.w3.org/2000/svg"
   xmlns="http://www.w3.org/2000/svg"
   xmlns:sodipodi="http://sodipodi.sourceforge.net/DTD/sodipodi-0.dtd"
   xmlns:inkscape="http://www.inkscape.org/namespaces/inkscape"
   version="1.1"
   id="svg7648"
   xml:space="preserve"
   width="842"
   height="1024"
   viewBox="0 0 728 885"
   sodipodi:docname="raft-clip.svg"
   inkscape:version="0.92.2 5c3e80d, 2017-08-06"><metadata
     id="metadata7654"><rdf:RDF><cc:Work
         rdf:about=""><dc:format>image/svg+xml</dc:format><dc:type
           rdf:resource="http://purl.org/dc/dcmitype/StillImage" /><dc:title></dc:title></cc:Work></rdf:RDF></metadata><defs
     id="defs7652"><clipPath
       clipPathUnits="userSpaceOnUse"
       id="clipPath7666"><path
         d="M 722.398,6882.96 H 5468.4 V 1181.46 H 722.398 Z"
         id="path7664"
         inkscape:connector-curvature="0" /></clipPath></defs><sodipodi:namedview
     pagecolor="#ffffff"
     bordercolor="#666666"
     borderopacity="1"
     objecttolerance="10"
     gridtolerance="10"
     guidetolerance="10"
     inkscape:pageopacity="0"
     inkscape:pageshadow="2"
     inkscape:window-width="1386"
     inkscape:window-height="855"
     id="namedview7650"
     showgrid="false"
     inkscape:zoom="1"
     inkscape:cx="408"
     inkscape:cy="-100.61934"
     inkscape:window-x="54"
     inkscape:window-y="1"
     inkscape:window-maximized="1"
     inkscape:current-layer="g7656" /><g
     id="g7656"
     inkscape:groupmode="layer"
     inkscape:label="raft"
     transform="matrix(1.3333333,0,0,-1.3333333,0,885)"><g
       id="g7658"
       transform="scale(0.1)"><g
         id="g7660"><g
           id="g7662"
           clip-path="url(#clipPath7666)" /></g></g><g
       transform="matrix(0.11502736,0,0,0.11658093,-82.851177,-138.86825)"
       id="g586"><path
         inkscape:connector-curvature="0"
         id="path7668"
         style="fill:none;stroke:#285daa;stroke-width:15.75;stroke-linecap:butt;stroke-linejoin:round;stroke-miterlimit:10;stroke-dasharray:none;stroke-opacity:1"
         d="m 3187.27,5159.78 h 2268 v 1590.38 h -2268 z" /><g
         transform="scale(10)"
         id="g7670"><text
           id="text7674"
           style="font-variant:normal;font-weight:normal;font-size:8.39999962px;font-family:TimesNewRomanPSMT;-inkscape-font-specification:TimesNewRomanPSMT;writing-mode:lr-tb;fill:#1f4899;fill-opacity:1;fill-rule:nonzero;stroke:none"
           transform="matrix(1,0,0,-1,326.288,662.836)"><tspan
             id="tspan7672"
             sodipodi:role="line"
             y="0"
             x="0 2.7972 6.9972 11.1972 15.3972 19.5972 23.326214 29.626215 33.826214 40.126213 43.855816 47.584827 51.784828 55.984829 58.320026 62.520027 66.249626 68.584244 72.313843 77.681633 80.016838 86.316833 90.516838 94.246437 96.581047 100.78105 104.51065 109.40785 113.60785 117.80785 120.14305 123.87206 129.23985 132.03706 136.23706 140.43706 142.53706 146.73706 149.53426">Invokedbycandidatestogathervotes(§5.2).</tspan></text>
</g><g
         transform="scale(10)"
         id="g7676"><text
           id="text7680"
           style="font-variant:normal;font-weight:bold;font-size:8.39999962px;font-family:Arial;-inkscape-font-specification:Arial-BoldMT;writing-mode:lr-tb;fill:#a5001e;fill-opacity:1;fill-rule:nonzero;stroke:none"
           transform="matrix(1,0,0,-1,326.288,647.086)"><tspan
             id="tspan7678"
             sodipodi:role="line"
             y="0"
             x="0 6.0647998 9.3329859 14.4648 19.5972 27.0648 31.735786 36.867599 39.664799 44.335785">Arguments:</tspan></text>
</g><g
         transform="scale(10)"
         id="g7682"><text
           id="text7686"
           style="font-variant:normal;font-weight:bold;font-size:8.39999962px;font-family:TimesNewRomanPS;-inkscape-font-specification:TimesNewRomanPS-BoldMT;writing-mode:lr-tb;fill:#000000;fill-opacity:1;fill-rule:nonzero;stroke:none"
           transform="matrix(1,0,0,-1,326.288,636.586)"><tspan
             id="tspan7684"
             sodipodi:role="line"
             y="0"
             x="0 2.7972 6.5262141 10.255814">term</tspan></text>
<text
           id="text7690"
           style="font-variant:normal;font-weight:normal;font-size:8.39999962px;font-family:TimesNewRomanPSMT;-inkscape-font-specification:TimesNewRomanPSMT;writing-mode:lr-tb;fill:#000000;fill-opacity:1;fill-rule:nonzero;stroke:none"
           transform="matrix(1,0,0,-1,392.3067,636.586)"><tspan
             id="tspan7688"
             sodipodi:role="line"
             y="0"
             x="0 3.7296 7.4586139 11.658614 15.858614 18.193813 22.393814 26.122828 28.458029 32.18763 34.520767 39.888954 42.224155 45.953167 48.750366">candidate’sterm</tspan></text>
<text
           id="text7694"
           style="font-variant:normal;font-weight:bold;font-size:8.39999962px;font-family:TimesNewRomanPS;-inkscape-font-specification:TimesNewRomanPS-BoldMT;writing-mode:lr-tb;fill:#000000;fill-opacity:1;fill-rule:nonzero;stroke:none"
           transform="matrix(1,0,0,-1,326.288,627.136)"><tspan
             id="tspan7692"
             sodipodi:role="line"
             y="0"
             x="0 3.7296 7.9295998 12.6 17.270987 19.6056 24.276587 28.476585 31.273787 35.0028 38.270985">candidateId</tspan></text>
<text
           id="text7698"
           style="font-variant:normal;font-weight:normal;font-size:8.39999962px;font-family:TimesNewRomanPSMT;-inkscape-font-specification:TimesNewRomanPSMT;writing-mode:lr-tb;fill:#000000;fill-opacity:1;fill-rule:nonzero;stroke:none"
           transform="matrix(1,0,0,-1,392.3067,627.136)"><tspan
             id="tspan7696"
             sodipodi:role="line"
             y="0"
             x="0 3.7296 7.4586139 11.658614 15.858614 18.193813 22.393814 26.122828 28.458029 34.287434 37.084637 40.813648 45.013649 49.21365 52.942661 56.21085 58.546047 60.880665 65.080666 71.380661 75.580666 79.780663 82.11586">candidaterequestingvote</tspan></text>
<text
           id="text7702"
           style="font-variant:normal;font-weight:bold;font-size:8.39999962px;font-family:TimesNewRomanPS;-inkscape-font-specification:TimesNewRomanPS-BoldMT;writing-mode:lr-tb;fill:#000000;fill-opacity:1;fill-rule:nonzero;stroke:none"
           transform="matrix(1,0,0,-1,326.288,616.636)"><tspan
             id="tspan7700"
             sodipodi:role="line"
             y="0"
             x="0 2.3352001 6.5352001 9.8028002 12.6 18.202801 22.4028 26.6028 29.870985 34.541386 39.212372 42.941387">lastLogIndex</tspan></text>
<text
           id="text7706"
           style="font-variant:normal;font-weight:normal;font-size:8.39999962px;font-family:TimesNewRomanPSMT;-inkscape-font-specification:TimesNewRomanPSMT;writing-mode:lr-tb;fill:#000000;fill-opacity:1;fill-rule:nonzero;stroke:none"
           transform="matrix(1,0,0,-1,392.3067,616.636)"><tspan
             id="tspan7704"
             sodipodi:role="line"
             y="0"
             x="0 2.3352001 6.5352001 10.7352 14.464214 20.764214 24.964214 29.861414 33.591015 37.320026 41.520027 45.720028 48.055229 52.25523 55.984829 58.319443 62.049042 64.382568 69.750366 72.085564 75.814575 79.082764 83.517372 85.852577 90.052574 96.352577 100.08218 104.28217 106.61679 109.41399 115.71399 118.51119 122.71119 126.91119 129.01118 133.2112">indexofcandidate’slastlogentry(§5.4)</tspan></text>
<text
           id="text7710"
           style="font-variant:normal;font-weight:bold;font-size:8.39999962px;font-family:TimesNewRomanPS;-inkscape-font-specification:TimesNewRomanPS-BoldMT;writing-mode:lr-tb;fill:#000000;fill-opacity:1;fill-rule:nonzero;stroke:none"
           transform="matrix(1,0,0,-1,326.288,607.186)"><tspan
             id="tspan7708"
             sodipodi:role="line"
             y="0"
             x="0 2.3352001 6.5352001 9.8028002 12.6 18.202801 22.4028 26.6028 31.434505 35.164104 38.89312">lastLogTerm</tspan></text>
<text
           id="text7714"
           style="font-variant:normal;font-weight:normal;font-size:8.39999962px;font-family:TimesNewRomanPSMT;-inkscape-font-specification:TimesNewRomanPSMT;writing-mode:lr-tb;fill:#000000;fill-opacity:1;fill-rule:nonzero;stroke:none"
           transform="matrix(1,0,0,-1,392.3067,607.186)"><tspan
             id="tspan7712"
             sodipodi:role="line"
             y="0"
             x="0 2.3352001 6.0642142 8.861414 17.49642 21.696421 26.59362 30.322636 34.052235 38.252235 42.452236 44.787434 48.987434 52.71645 55.051647 58.780663 61.114193 66.482376 68.816994 72.546593 75.814194 80.249199 82.584404 86.784401 93.084404 96.813416 101.01341 103.34862 106.14581 112.44582 115.24301 119.44302 123.64301 125.74301 129.94301">termofcandidate’slastlogentry(§5.4)</tspan></text>
</g><g
         transform="scale(10)"
         id="g7716"><text
           id="text7720"
           style="font-variant:normal;font-weight:bold;font-size:8.39999962px;font-family:Arial;-inkscape-font-specification:Arial-BoldMT;writing-mode:lr-tb;fill:#a5001e;fill-opacity:1;fill-rule:nonzero;stroke:none"
           transform="matrix(1,0,0,-1,326.288,590.386)"><tspan
             id="tspan7718"
             sodipodi:role="line"
             y="0"
             x="0 6.0647998 10.735785 15.406186 20.538586 22.873785 25.670986 30.341387">Results:</tspan></text>
</g><g
         transform="scale(10)"
         id="g7722"><text
           id="text7726"
           style="font-variant:normal;font-weight:bold;font-size:8.39999962px;font-family:TimesNewRomanPS;-inkscape-font-specification:TimesNewRomanPS-BoldMT;writing-mode:lr-tb;fill:#000000;fill-opacity:1;fill-rule:nonzero;stroke:none"
           transform="matrix(1,0,0,-1,326.288,579.886)"><tspan
             id="tspan7724"
             sodipodi:role="line"
             y="0"
             x="0 2.7972 6.5262141 10.255814">term</tspan></text>
<text
           id="text7730"
           style="font-variant:normal;font-weight:normal;font-size:8.39999962px;font-family:TimesNewRomanPSMT;-inkscape-font-specification:TimesNewRomanPSMT;writing-mode:lr-tb;fill:#000000;fill-opacity:1;fill-rule:nonzero;stroke:none"
           transform="matrix(1,0,0,-1,392.3067,579.886)"><tspan
             id="tspan7728"
             sodipodi:role="line"
             y="0"
             x="0 3.7296 7.9295998 10.7268 13.524 17.253599 21.4536 23.788799 28.334286 32.063885 34.861088 41.398045 45.598045 48.395245 52.595245 57.492058 61.221657 64.950668 69.150673 73.35067 75.685875 79.885872 83.615471 85.950089 91.779495 94.114693 100.4147 104.61469 108.81469 113.01469 116.74371 119.0789 124.90792 127.24312 129.57832 132.84592 136.57552 138.91072">currentTerm,forcandidatetoupdateitself</tspan></text>
<text
           id="text7734"
           style="font-variant:normal;font-weight:bold;font-size:8.39999962px;font-family:TimesNewRomanPS;-inkscape-font-specification:TimesNewRomanPS-BoldMT;writing-mode:lr-tb;fill:#000000;fill-opacity:1;fill-rule:nonzero;stroke:none"
           transform="matrix(1,0,0,-1,326.288,570.436)"><tspan
             id="tspan7732"
             sodipodi:role="line"
             y="0"
             x="0 4.1999998 8.3999996 11.1972 14.926214 21.461414 25.191013 29.391014 34.061413 36.858616 40.587627">voteGranted</tspan></text>
<text
           id="text7738"
           style="font-variant:normal;font-weight:normal;font-size:8.39999962px;font-family:TimesNewRomanPSMT;-inkscape-font-specification:TimesNewRomanPSMT;writing-mode:lr-tb;fill:#000000;fill-opacity:1;fill-rule:nonzero;stroke:none"
           transform="matrix(1,0,0,-1,392.3067,570.436)"><tspan
             id="tspan7736"
             sodipodi:role="line"
             y="0"
             x="0 2.3352001 5.1324 9.3324003 15.161412 21.696611 25.426212 29.155226 33.355225 38.723019 42.452618 46.181633 50.381634 54.581635 56.916832 61.116833 64.846436 67.181046 73.010452 75.807655 79.536667 83.266266 86.995285 89.330482 93.530479 97.259499 103.55949 107.7595 111.9595 114.29469">truemeanscandidatereceivedvote</tspan></text>
</g><g
         transform="scale(10)"
         id="g7740"><text
           id="text7744"
           style="font-variant:normal;font-weight:bold;font-size:8.39999962px;font-family:Arial;-inkscape-font-specification:Arial-BoldMT;writing-mode:lr-tb;fill:#a5001e;fill-opacity:1;fill-rule:nonzero;stroke:none"
           transform="matrix(1,0,0,-1,326.288,553.636)"><tspan
             id="tspan7742"
             sodipodi:role="line"
             y="0"
             x="0 6.0647998 10.735785 15.406186 20.077171 22.412373 27.082771 31.753757 37.355148 39.690346 47.157948 52.290348 54.624962 59.295948 66.76355 71.434532 76.566933 79.364136 84.035118 86.832321 89.167519 94.299332 99.431732">Receiverimplementation:</tspan></text>
</g><g
         transform="scale(10)"
         id="g7746"><text
           id="text7754"
           style="font-variant:normal;font-weight:normal;font-size:8.39999962px;font-family:TimesNewRomanPSMT;-inkscape-font-specification:TimesNewRomanPSMT;writing-mode:lr-tb;fill:#000000;fill-opacity:1;fill-rule:nonzero;stroke:none"
           transform="matrix(1,0,0,-1,326.288,544.186)"><tspan
             id="tspan7748"
             sodipodi:role="line"
             y="0"
             x="0 4.1999998 14.04375 19.646549 23.37615 27.576151 29.91135 36.211349 39.008549 42.738152 45.073349 48.34095 54.170357 56.504971 61.402172 63.73737 67.466972 70.264168 78.899178 85.736969 89.466568 93.666573 96.463768 99.260971 102.98998 107.18999 109.52518 114.07106 117.80008 120.59727 129.23228 132.02948 136.22948 140.42949 142.52948 146.72948">1.Replyfalseifterm&lt;currentTerm(§5.1)</tspan><tspan
             id="tspan7750"
             sodipodi:role="line"
             y="10.5"
             x="0 4.1999998 14.04375 16.84095 21.73815 25.93815 30.138149 32.473351 36.202366 40.402363 45.073349 49.27335 54.170944 56.506145 61.87394 66.073936 70.273941 72.609138 77.043747 81.243752 86.141731 89.870743 93.600342 97.800346 102.00034 104.33496 108.53496 112.26456 114.59976 118.32877 121.12598 125.32832 129.52832 133.25732 137.45734 143.75732 147.48694 151.21594 155.41594 159.61595 161.95114 166.15114 169.88016 172.21536 175.94496 178.27809 183.64629 185.98149 190.18149 196.48149 198.8161 204.18428 207.9133">2.IfvotedForisnullorcandidateId,andcandidate’slogisat</tspan><tspan
             id="tspan7752"
             sodipodi:role="line"
             y="21"
             x="13.65 15.9852 19.714214 23.443813 26.711414 31.146421 34.875435 40.243622 44.443623 48.643623 51.440823 53.775436 57.975437 60.772636 64.972633 68.70224 71.037437 76.866447 80.596046 85.963844 88.76104 92.490059 96.219658 99.948669 102.28387 106.48387 110.21288 113.3218 115.65533 121.02312 123.35832 127.55833 131.75833 135.95833 140.15833 142.95552 146.68454 150.88454 155.31955 159.51955 163.71954 166.05475 171.88376 174.68095 178.88095 183.08096 185.18095 189.38095 193.58096 197.78096 201.98096 204.08096 208.28096">leastasup-to-dateasreceiver’slog,grantvote(§5.2,§5.4)</tspan></text>
</g><path
         inkscape:connector-curvature="0"
         id="path7756"
         style="fill:#285daa;fill-opacity:1;fill-rule:evenodd;stroke:none"
         d="m 3187.27,6750.16 h 2268 v 124.93 h -2268 z" /><path
         inkscape:connector-curvature="0"
         id="path7758"
         style="fill:none;stroke:#285daa;stroke-width:15.75;stroke-linecap:butt;stroke-linejoin:round;stroke-miterlimit:10;stroke-dasharray:none;stroke-opacity:1"
         d="m 3187.27,6750.16 h 2268 v 124.93 h -2268 z" /><g
         transform="scale(10)"
         id="g7760"><text
           id="text7764"
           style="font-variant:normal;font-weight:bold;font-size:10.5px;font-family:Arial;-inkscape-font-specification:Arial-BoldMT;writing-mode:lr-tb;fill:#ffffff;fill-opacity:1;fill-rule:nonzero;stroke:none"
           transform="matrix(1,0,0,-1,388.095,677.062)"><tspan
             id="tspan7762"
             sodipodi:role="line"
             y="0"
             x="0 7.5809999 13.419 19.834499 26.249462 32.088097 37.926098 41.422596 47.647289 54.062252 57.558754 66.313011 73.894012 80.897514">RequestVoteRPC</tspan></text>
</g><path
         inkscape:connector-curvature="0"
         id="path7766"
         style="fill:none;stroke:#285daa;stroke-width:15.75;stroke-linecap:butt;stroke-linejoin:round;stroke-miterlimit:10;stroke-dasharray:none;stroke-opacity:1"
         d="m 730.273,1190.78 h 2268 v 2783.89 h -2268 z" /><g
         transform="scale(10)"
         id="g7768"><text
           id="text7774"
           style="font-variant:normal;font-weight:normal;font-size:8.39999962px;font-family:TimesNewRomanPSMT;-inkscape-font-specification:TimesNewRomanPSMT;writing-mode:lr-tb;fill:#1f4899;fill-opacity:1;fill-rule:nonzero;stroke:none"
           transform="matrix(1,0,0,-1,80.5875,385.287)"><tspan
             id="tspan7770"
             sodipodi:role="line"
             y="0"
             x="0 2.7972 6.9972 11.1972 15.3972 19.5972 23.326214 29.626215 33.826214 40.126213 42.461414 46.191013 49.920029 54.120029 57.849628 62.746441 65.081642 71.381645 74.178841 77.907852 82.107857 84.443054 86.778259 90.507858 94.23687 96.572067 102.40108 104.73628 108.93628 115.23628 118.96588 123.16588 125.5005 128.2977 130.63289 134.3625 139.73029 142.5275 146.72749 150.92749 153.0275 157.22749 160.02469 164.4593 168.1889 170.52409 173.7917 180.09171 184.2917 187.5593 191.28889 197.5889 201.31792">Invokedbyleadertoreplicatelogentries(§5.3);alsousedas</tspan><tspan
             id="tspan7772"
             sodipodi:role="line"
             y="9.4499998"
             x="0 4.1999998 7.9290142 11.658614 14.455814 16.791014 20.991014 24.720028 28.449629 32.884239 35.681438 39.881439 44.08144 46.181438 50.381439 53.178638">heartbeat(§5.2).</tspan></text>
</g><g
         transform="scale(10)"
         id="g7776"><text
           id="text7780"
           style="font-variant:normal;font-weight:bold;font-size:8.39999962px;font-family:Arial;-inkscape-font-specification:Arial-BoldMT;writing-mode:lr-tb;fill:#a5001e;fill-opacity:1;fill-rule:nonzero;stroke:none"
           transform="matrix(1,0,0,-1,80.5875,359.037)"><tspan
             id="tspan7778"
             sodipodi:role="line"
             y="0"
             x="0 6.0647998 9.3329859 14.4648 19.5972 27.0648 31.735786 36.867599 39.664799 44.335785">Arguments:</tspan></text>
</g><g
         transform="scale(10)"
         id="g7782"><text
           id="text7786"
           style="font-variant:normal;font-weight:bold;font-size:8.39999962px;font-family:TimesNewRomanPS;-inkscape-font-specification:TimesNewRomanPS-BoldMT;writing-mode:lr-tb;fill:#000000;fill-opacity:1;fill-rule:nonzero;stroke:none"
           transform="matrix(1,0,0,-1,80.5875,349.587)"><tspan
             id="tspan7784"
             sodipodi:role="line"
             y="0"
             x="0 2.7972 6.5262141 10.255814">term</tspan></text>
<text
           id="text7790"
           style="font-variant:normal;font-weight:normal;font-size:8.39999962px;font-family:TimesNewRomanPSMT;-inkscape-font-specification:TimesNewRomanPSMT;writing-mode:lr-tb;fill:#000000;fill-opacity:1;fill-rule:nonzero;stroke:none"
           transform="matrix(1,0,0,-1,146.6062,349.587)"><tspan
             id="tspan7788"
             sodipodi:role="line"
             y="0"
             x="0 2.3352001 6.0642142 9.7938137 13.993814 17.722828 20.831747 23.165276 28.53307 30.868269 34.597282 37.394482">leader’sterm</tspan></text>
<text
           id="text7794"
           style="font-variant:normal;font-weight:bold;font-size:8.39999962px;font-family:TimesNewRomanPS;-inkscape-font-specification:TimesNewRomanPS-BoldMT;writing-mode:lr-tb;fill:#000000;fill-opacity:1;fill-rule:nonzero;stroke:none"
           transform="matrix(1,0,0,-1,80.5875,339.087)"><tspan
             id="tspan7792"
             sodipodi:role="line"
             y="0"
             x="0 2.3352001 6.0642142 10.264215 14.9352 18.664213 22.393814 25.661413">leaderId</tspan></text>
<text
           id="text7798"
           style="font-variant:normal;font-weight:normal;font-size:8.39999962px;font-family:TimesNewRomanPSMT;-inkscape-font-specification:TimesNewRomanPSMT;writing-mode:lr-tb;fill:#000000;fill-opacity:1;fill-rule:nonzero;stroke:none"
           transform="matrix(1,0,0,-1,146.6062,339.087)"><tspan
             id="tspan7796"
             sodipodi:role="line"
             y="0"
             x="0 3.2676001 9.5676003 12.3648 16.5648 18.9 21.235201 25.4352 31.5 35.229599 40.126415 43.856014 47.585026 53.885029 56.682228 60.411827 64.611824 66.947029 69.744225 73.473831 77.202843 81.637848 85.367447 87.702065 90.037262 93.766861 97.966866 100.30148">sofollowercanredirectclients</tspan></text>
<text
           id="text7802"
           style="font-variant:normal;font-weight:bold;font-size:8.39999962px;font-family:TimesNewRomanPS;-inkscape-font-specification:TimesNewRomanPS-BoldMT;writing-mode:lr-tb;fill:#000000;fill-opacity:1;fill-rule:nonzero;stroke:none"
           transform="matrix(1,0,0,-1,80.5875,329.637)"><tspan
             id="tspan7800"
             sodipodi:role="line"
             y="0"
             x="0 4.6709862 8.2488279 11.977842 16.177843 21.780642 25.980642 30.180643 33.448242 38.118641 42.789627 46.518642">prevLogIndex</tspan></text>
<text
           id="text7808"
           style="font-variant:normal;font-weight:normal;font-size:8.39999962px;font-family:TimesNewRomanPSMT;-inkscape-font-specification:TimesNewRomanPSMT;writing-mode:lr-tb;fill:#000000;fill-opacity:1;fill-rule:nonzero;stroke:none"
           transform="matrix(1,0,0,-1,146.6062,329.637)"><tspan
             id="tspan7804"
             sodipodi:role="line"
             y="0"
             x="0 2.3352001 6.5352001 10.7352 14.464214 20.764214 24.964214 29.861414 32.196613 36.396614 42.696613 46.425629 50.625629 52.960827 55.75803 62.058029 64.393227 70.928429 77.463631 81.192642 85.392639 87.727844 91.456856 93.792053 97.52166 99.85627 106.15627 110.35627 113.15347 116.88307 120.61208 124.34168 128.54169 130.87688 135.07689">indexoflogentryimmediatelypreceding</tspan><tspan
             id="tspan7806"
             sodipodi:role="line"
             y="10.5"
             x="-0.91874999 3.28125 7.0102639 15.175653 19.375652 23.575651 27.304667">newones</tspan></text>
<text
           id="text7812"
           style="font-variant:normal;font-weight:bold;font-size:8.39999962px;font-family:TimesNewRomanPS;-inkscape-font-specification:TimesNewRomanPS-BoldMT;writing-mode:lr-tb;fill:#000000;fill-opacity:1;fill-rule:nonzero;stroke:none"
           transform="matrix(1,0,0,-1,80.58745,308.637)"><tspan
             id="tspan7810"
             sodipodi:role="line"
             y="0"
             x="0 4.6709862 8.2488279 11.977842 16.177843 21.780642 25.980642 30.180643 35.012348 38.741364 42.470963">prevLogTerm</tspan></text>
<text
           id="text7816"
           style="font-variant:normal;font-weight:normal;font-size:8.39999962px;font-family:TimesNewRomanPSMT;-inkscape-font-specification:TimesNewRomanPSMT;writing-mode:lr-tb;fill:#000000;fill-opacity:1;fill-rule:nonzero;stroke:none"
           transform="matrix(1,0,0,-1,146.60615,308.637)"><tspan
             id="tspan7814"
             sodipodi:role="line"
             y="0"
             x="0 2.3352001 6.0642142 8.861414 17.49642 21.696421 26.594797 30.794796 33.591995 37.321598 41.521595 46.653996 50.853996 55.053997 57.851196 62.051197 66.251198 69.980797 76.281975 80.011574 84.211571 86.546776 89.343971">termofprevLogIndexentry</tspan></text>
<text
           id="text7820"
           style="font-variant:normal;font-weight:bold;font-size:8.39999962px;font-family:TimesNewRomanPS;-inkscape-font-specification:TimesNewRomanPS-BoldMT;writing-mode:lr-tb;fill:#000000;fill-opacity:1;fill-rule:nonzero;stroke:none"
           transform="matrix(1,0,0,-1,80.58745,299.187)"><tspan
             id="tspan7818"
             sodipodi:role="line"
             y="0"
             x="0 3.7290142 8.3999996 11.1972 14.926214 17.261414 20.991014 24.258614 27.055815">entries[]</tspan></text>
<text
           id="text7826"
           style="font-variant:normal;font-weight:normal;font-size:8.39999962px;font-family:TimesNewRomanPSMT;-inkscape-font-specification:TimesNewRomanPSMT;writing-mode:lr-tb;fill:#000000;fill-opacity:1;fill-rule:nonzero;stroke:none"
           transform="matrix(1,0,0,-1,146.60615,299.187)"><tspan
             id="tspan7822"
             sodipodi:role="line"
             y="0"
             x="0 2.3352001 6.5352001 12.8352 16.564215 20.764214 23.099415 25.896614 28.231813 31.960829 37.329018 39.663631 45.963631 49.231815 51.567017 55.767017 58.564217 64.393623 67.190826 70.919838 77.45504 81.655037 83.990234 90.290237 93.08744 97.287437 102.18464 106.38464 110.11365 113.84267 116.63986 118.97507 123.17506 126.90466 130.63368 132.96887">logentriestostore(emptyforheartbeat;</tspan><tspan
             id="tspan7824"
             sodipodi:role="line"
             y="10.5"
             x="-0.91874999 5.6164498 9.3454638 15.645464 18.913651 22.642664 26.842665 33.142666 39.677864 43.877865 46.675064 52.504078 54.839275 59.039276 62.768875 69.068878 73.268875 77.46888 83.29789 86.095085 90.29509 95.192291 98.921303 101.56655 104.36375 106.69836 110.42796 112.76316 116.49218 120.69218 124.42178 128.62178">maysendmorethanoneforefficiency)</tspan></text>
<text
           id="text7830"
           style="font-variant:normal;font-weight:bold;font-size:8.39999962px;font-family:TimesNewRomanPS;-inkscape-font-specification:TimesNewRomanPS-BoldMT;writing-mode:lr-tb;fill:#000000;fill-opacity:1;fill-rule:nonzero;stroke:none"
           transform="matrix(1,0,0,-1,80.5874,279.237)"><tspan
             id="tspan7828"
             sodipodi:role="line"
             y="0"
             x="0 2.3352001 6.0642142 10.264215 14.9352 18.664213 22.393814 28.458614 32.658615 39.655815 46.653015 48.987629">leaderCommit</tspan></text>
<text
           id="text7834"
           style="font-variant:normal;font-weight:normal;font-size:8.39999962px;font-family:TimesNewRomanPSMT;-inkscape-font-specification:TimesNewRomanPSMT;writing-mode:lr-tb;fill:#000000;fill-opacity:1;fill-rule:nonzero;stroke:none"
           transform="matrix(1,0,0,-1,146.6061,279.237)"><tspan
             id="tspan7832"
             sodipodi:role="line"
             y="0"
             x="0 2.3352001 6.0642142 9.7938137 13.993814 17.722828 20.831747 23.165276 28.534632 32.264233 36.46423 42.998844 49.534046 51.869244 54.204445 57.001644 61.201645 65.401642 69.130661">leader’scommitIndex</tspan></text>
</g><g
         transform="scale(10)"
         id="g7836"><text
           id="text7840"
           style="font-variant:normal;font-weight:bold;font-size:8.39999962px;font-family:Arial;-inkscape-font-specification:Arial-BoldMT;writing-mode:lr-tb;fill:#a5001e;fill-opacity:1;fill-rule:nonzero;stroke:none"
           transform="matrix(1,0,0,-1,80.5875,262.437)"><tspan
             id="tspan7838"
             sodipodi:role="line"
             y="0"
             x="0 6.0647998 10.735785 15.406186 20.538586 22.873785 25.670986 30.341387">Results:</tspan></text>
</g><g
         transform="scale(10)"
         id="g7842"><text
           id="text7846"
           style="font-variant:normal;font-weight:bold;font-size:8.39999962px;font-family:TimesNewRomanPS;-inkscape-font-specification:TimesNewRomanPS-BoldMT;writing-mode:lr-tb;fill:#000000;fill-opacity:1;fill-rule:nonzero;stroke:none"
           transform="matrix(1,0,0,-1,80.5875,251.937)"><tspan
             id="tspan7844"
             sodipodi:role="line"
             y="0"
             x="0 2.7972 6.5262141 10.255814">term</tspan></text>
<text
           id="text7850"
           style="font-variant:normal;font-weight:normal;font-size:8.39999962px;font-family:TimesNewRomanPSMT;-inkscape-font-specification:TimesNewRomanPSMT;writing-mode:lr-tb;fill:#000000;fill-opacity:1;fill-rule:nonzero;stroke:none"
           transform="matrix(1,0,0,-1,146.6062,251.937)"><tspan
             id="tspan7848"
             sodipodi:role="line"
             y="0"
             x="0 3.7296 7.9295998 10.7268 13.524 17.253599 21.4536 23.788799 28.334286 32.063885 34.861088 41.398434 45.598434 48.395634 52.595634 57.492836 59.828033 63.557636 67.286652 71.486649 75.216248 80.11306 82.448265 88.74826 92.948265 97.148262 101.34826 105.07787 107.41248 113.24188 115.57708 117.91228 121.17989 124.9089 127.24409">currentTerm,forleadertoupdateitself</tspan></text>
<text
           id="text7854"
           style="font-variant:normal;font-weight:bold;font-size:8.39999962px;font-family:TimesNewRomanPS;-inkscape-font-specification:TimesNewRomanPS-BoldMT;writing-mode:lr-tb;fill:#000000;fill-opacity:1;fill-rule:nonzero;stroke:none"
           transform="matrix(1,0,0,-1,80.5875,242.487)"><tspan
             id="tspan7852"
             sodipodi:role="line"
             y="0"
             x="0 3.2676001 7.9385858 11.671116 15.403646 19.136175 22.403774">success</tspan></text>
<text
           id="text7860"
           style="font-variant:normal;font-weight:normal;font-size:8.39999962px;font-family:TimesNewRomanPSMT;-inkscape-font-specification:TimesNewRomanPSMT;writing-mode:lr-tb;fill:#000000;fill-opacity:1;fill-rule:nonzero;stroke:none"
           transform="matrix(1,0,0,-1,146.6062,242.487)"><tspan
             id="tspan7856"
             sodipodi:role="line"
             y="0"
             x="0 2.3352001 5.1324 9.3324003 15.161412 17.496613 22.393812 25.191011 29.391012 31.725626 34.060825 38.260826 44.325626 48.055225 52.952427 56.681438 60.881439 65.081444 67.416641 71.14624 73.480858 77.680855 81.410454 87.710457 91.439468 95.639465 97.97467 100.77187 107.07187 113.60707 117.33608 119.67128 123.40088 127.60088 129.9355 134.1355">trueiffollowercontainedentrymatching</tspan><tspan
             id="tspan7858"
             sodipodi:role="line"
             y="10.5"
             x="-0.91874999 3.28125 6.0784502 9.8074636 14.007464 19.139864 23.339865 27.539864 30.337065 34.537064 38.737064 42.46608 48.767639 52.496655 56.696655 62.997051 67.197052 69.994247 73.723267 77.923264 83.055664 87.255661 91.455666 96.001541 99.730553 102.52776">prevLogIndexandprevLogTerm</tspan></text>
</g><g
         transform="scale(10)"
         id="g7862"><text
           id="text7866"
           style="font-variant:normal;font-weight:bold;font-size:8.39999962px;font-family:Arial;-inkscape-font-specification:Arial-BoldMT;writing-mode:lr-tb;fill:#a5001e;fill-opacity:1;fill-rule:nonzero;stroke:none"
           transform="matrix(1,0,0,-1,80.5875,215.187)"><tspan
             id="tspan7864"
             sodipodi:role="line"
             y="0"
             x="0 6.0647998 10.735785 15.406186 20.077171 22.412373 27.082771 31.753757 37.355148 39.690346 47.157948 52.290348 54.624962 59.295948 66.76355 71.434532 76.566345 79.363548 84.034531 86.831734 89.166344 94.298744 99.431145">Receiverimplementation:</tspan></text>
</g><g
         transform="scale(10)"
         id="g7868"><text
           id="text7888"
           style="font-variant:normal;font-weight:normal;font-size:8.39999962px;font-family:TimesNewRomanPSMT;-inkscape-font-specification:TimesNewRomanPSMT;writing-mode:lr-tb;fill:#000000;fill-opacity:1;fill-rule:nonzero;stroke:none"
           transform="matrix(1,0,0,-1,80.5875,205.737)"><tspan
             id="tspan7870"
             sodipodi:role="line"
             y="0"
             x="0 4.1999998 14.04375 19.646549 23.37615 27.576151 29.91135 36.211349 39.008549 42.738152 45.073349 48.34095 54.170357 56.504971 61.402172 63.73737 67.466385 70.263588 78.89859 85.736382 89.465988 93.665985 96.463188 99.260384 102.9894 107.1894 109.5246 114.07008 117.79968 120.59689 129.23189 132.0291 136.2291 140.42909 142.5291 146.7291">1.Replyfalseifterm&lt;currentTerm(§5.1)</tspan><tspan
             id="tspan7872"
             sodipodi:role="line"
             y="10.5"
             x="0 4.1999998 14.04375 19.646549 23.37615 27.576151 29.91135 36.211349 39.008549 42.738152 45.073349 48.34095 54.170357 56.504971 61.402172 63.73737 67.93737 74.237373 78.43737 82.637367 86.366386 89.634567 93.834572 96.479424 100.91444 104.64404 108.84403 113.04404 115.37923 119.10825 121.44345 127.74345 131.47246 137.77246 141.50206 145.70206 148.03726 150.83446 157.13446 160.86406 165.30492 169.50493 172.30212 176.03172 180.23172 185.36412 189.56412 193.76413 196.56133 200.76132 204.96132 208.69092">2.Replyfalseiflogdoesn’tcontainanentryatprevLogIndex</tspan><tspan
             id="tspan7874"
             sodipodi:role="line"
             y="19.950001"
             x="13.65 19.7148 23.914801 28.114799 31.382986 37.211998 39.547199 43.276211 46.073414 54.70842 61.243618 64.972633 67.307831 71.03743 75.237434 78.966446 84.336586 88.536583 91.333786 95.062798 99.262794 104.3952 108.5952 112.7952 117.34107 121.07009 123.86729 132.50386 135.30106 139.50105 143.70107 145.80106 150.00105">whosetermmatchesprevLogTerm(§5.3)</tspan><tspan
             id="tspan7876"
             sodipodi:role="line"
             y="30.450001"
             x="0 4.1999998 14.04375 16.84095 21.73815 25.467165 31.767164 35.496765 39.696766 42.031963 45.299564 47.634766 49.969963 54.169964 60.469963 64.198975 68.398979 70.734177 73.53138 79.831375 83.560394 87.760391 91.960396 94.757591 97.092789 99.427994 103.15701 105.4922 110.86 116.9248 119.26 121.5952 127.8952 133.72461 137.92461 141.65363 149.81862 154.01862 158.21861 164.04802 166.84521 170.11282 173.84183 180.37703 186.20644 188.54106 192.74106 196.94106 200.67065">3.Ifanexistingentryconflictswithanewone(sameindex</tspan><tspan
             id="tspan7878"
             sodipodi:role="line"
             y="40.950001"
             x="13.65 17.85 22.049999 26.485006 30.685007 33.020206 35.665062 38.462261 42.191864 44.989063 48.718662 52.918663 57.353668 59.688282 63.417885 66.21508 72.750282 76.017883 78.815086 83.015083 87.21508 90.944099 93.279297 97.008896 99.343513 105.17292 107.50812 111.70812 117.53713 121.26673 125.46673 127.80135 131.06953 133.40472 135.73935 139.93935 146.23935 149.96895 154.16895 156.50415 159.30135 165.60135 169.33035 173.53036 179.83035 183.55937 185.89458 190.32957 192.66478 196.86478 200.5938">butdifferentterms),deletetheexistingentryandallthat</tspan><tspan
             id="tspan7880"
             sodipodi:role="line"
             y="50.400002"
             x="13.65 16.447201 20.6472 22.982401 25.317015 29.517014 37.682404 40.017017 44.452023 47.249222 51.449223 55.649223 57.749222 61.949223">followit(§5.3)</tspan><tspan
             id="tspan7882"
             sodipodi:role="line"
             y="60.900002"
             x="0 4.1999998 14.04375 20.108549 24.30855 28.508551 32.238152 36.438148 42.738152 46.467163 50.667164 56.967163 61.167164 64.896767 73.06176 76.790771 80.990768 83.325974 86.123169 88.458374 92.187386 97.555573 101.75558 105.95557 110.39058 114.11959 116.4548 119.25199 122.98101 126.71061 130.91061 137.2106 139.54523 145.84521 148.18042 152.38042 158.20982 160.54503 164.74503">4.Appendanynewentriesnotalreadyinthelog</tspan><tspan
             id="tspan7884"
             sodipodi:role="line"
             y="70.349998"
             x="0 4.1999998 14.04375 16.84095 21.73815 24.073351 27.802364 31.531963 35.731964 39.460979 42.258179 47.860977 52.060978 58.59618 65.131378 67.466576 71.903931 78.741722 82.470734 86.670738 93.205933 99.741135 102.07633 104.41095 107.20815 111.40815 115.60815 119.33775 123.5397 127.7397 131.00731 134.73691 139.17191 142.9015 147.10152 153.63612 160.17133 162.50653 164.84172 167.63893 171.83893 176.03893 179.76794 186.0699">5.IfleaderCommit&gt;commitIndex,setcommitIndex=</tspan><tspan
             id="tspan7886"
             sodipodi:role="line"
             y="80.849998"
             x="13.65 20.1852 22.520399 26.7204 29.517599 31.8528 35.581814 39.311413 43.511414 47.240429 50.037628 55.640427 59.840427 66.375626 72.910828 75.246025 77.583374 81.783379 84.118576 88.318573 92.518578 96.247589 102.54759 106.74759 111.64479 113.97999 117.70901 120.97719 125.4122 129.6122 133.34122 141.50621 145.23581 149.43581 151.77101 154.56821 158.7682">min(leaderCommit,indexoflastnewentry)</tspan></text>
</g><path
         inkscape:connector-curvature="0"
         id="path7890"
         style="fill:#285daa;fill-opacity:1;fill-rule:evenodd;stroke:none"
         d="m 730.273,3975.74 h 2268 v 124.93 h -2268 z" /><path
         inkscape:connector-curvature="0"
         id="path7892"
         style="fill:none;stroke:#285daa;stroke-width:15.75;stroke-linecap:butt;stroke-linejoin:round;stroke-miterlimit:10;stroke-dasharray:none;stroke-opacity:1"
         d="m 730.273,3975.74 h 2268 v 124.93 h -2268 z" /><g
         transform="scale(10)"
         id="g7894"><text
           id="text7898"
           style="font-variant:normal;font-weight:bold;font-size:10.5px;font-family:Arial;-inkscape-font-specification:Arial-BoldMT;writing-mode:lr-tb;fill:#ffffff;fill-opacity:1;fill-rule:nonzero;stroke:none"
           transform="matrix(1,0,0,-1,136.757,399.62)"><tspan
             id="tspan7896"
             sodipodi:role="line"
             y="0"
             x="0 7.5809999 13.995963 20.410925 26.249561 32.664524 39.079487 46.082985 52.498486 55.994987 60.079487 62.998486 68.836487 77.592308 85.173309 92.176811">AppendEntriesRPC</tspan></text>
</g><path
         inkscape:connector-curvature="0"
         id="path7900"
         style="fill:none;stroke:#285daa;stroke-width:15.75;stroke-linecap:butt;stroke-linejoin:round;stroke-miterlimit:10;stroke-dasharray:none;stroke-opacity:1"
         d="m 730.273,4146.94 h 2268 v 2602.19 h -2268 z" /><g
         transform="scale(10)"
         id="g7902"><text
           id="text7906"
           style="font-variant:normal;font-weight:bold;font-size:8.39999962px;font-family:Arial;-inkscape-font-specification:Arial-BoldMT;writing-mode:lr-tb;fill:#a5001e;fill-opacity:1;fill-rule:nonzero;stroke:none"
           transform="matrix(1,0,0,-1,80.5875,662.735)"><tspan
             id="tspan7904"
             sodipodi:role="line"
             y="0"
             x="0 5.6027999 10.273786 13.541386 18.212372 20.546986 25.217972 28.015171 32.685574 37.81797 42.948769 47.619167 50.416367 55.086769 57.883968 64.88855 70.020363 77.486168 82.15657 84.491768 89.16037 93.830772 98.501755 101.76936 106.44034 111.11074 114.37834 119.04932">Persistentstateonallservers:</tspan></text>
</g><g
         transform="scale(10)"
         id="g7908"><text
           id="text7912"
           style="font-variant:normal;font-weight:normal;font-size:8.39999962px;font-family:TimesNewRomanPSMT;-inkscape-font-specification:TimesNewRomanPSMT;writing-mode:lr-tb;fill:#1f4899;fill-opacity:1;fill-rule:nonzero;stroke:none"
           transform="matrix(1,0,0,-1,80.5875,653.285)"><tspan
             id="tspan7910"
             sodipodi:role="line"
             y="0"
             x="0 2.7972 8.8620005 13.062 17.261999 20.991014 23.326214 27.055815 33.355816 37.555813 43.855816 47.123413 49.458614 53.18763 57.387627 59.722828 65.552238 68.819832 71.155037 75.355034 78.152237 81.881248 86.081245 91.910652 96.110657 99.839668 102.63687 106.83687 109.63407 115.46308 118.26028 121.98988 125.25748 129.45749 133.65749 137.85748 142.05748 144.39268 148.59268 154.89268 157.22787 163.52788 169.13068 173.80109 179.40388 182.67207">(UpdatedonstablestoragebeforerespondingtoRPCs)</tspan></text>
</g><g
         transform="scale(10)"
         id="g7914"><text
           id="text7918"
           style="font-variant:normal;font-weight:bold;font-size:8.39999962px;font-family:TimesNewRomanPS;-inkscape-font-specification:TimesNewRomanPS-BoldMT;writing-mode:lr-tb;fill:#000000;fill-opacity:1;fill-rule:nonzero;stroke:none"
           transform="matrix(1,0,0,-1,80.5875,642.785)"><tspan
             id="tspan7916"
             sodipodi:role="line"
             y="0"
             x="0 3.7290142 8.3999996 12.129014 15.707247 19.43626 24.107246 26.904448 31.736153 35.465168 39.194767">currentTerm</tspan></text>
<text
           id="text7924"
           style="font-variant:normal;font-weight:normal;font-size:8.39999962px;font-family:TimesNewRomanPSMT;-inkscape-font-specification:TimesNewRomanPSMT;writing-mode:lr-tb;fill:#000000;fill-opacity:1;fill-rule:nonzero;stroke:none"
           transform="matrix(1,0,0,-1,146.475,642.785)"><tspan
             id="tspan7920"
             sodipodi:role="line"
             y="0"
             x="0 2.3352001 6.0642142 8.3994141 12.129014 15.396614 19.831621 22.166821 25.895834 28.693035 37.328041 40.595642 44.325241 47.12244 51.322441 55.05204 59.949242 64.149239 67.878258 73.246048 76.514236 80.243248 83.972847 90.27285 93.070045 95.404663 99.60466 101.93987 104.27506 106.61026 110.33928 112.67448 115.00967 118.73869 122.46829 128.7683 131.10349 137.40349">latesttermserverhasseen(initializedto0</tspan><tspan
             id="tspan7922"
             sodipodi:role="line"
             y="9.4499998"
             x="-0.78750002 3.4124999 9.7124996 12.5097 14.8449 17.642099 20.910286 25.345293 29.545292 33.745293 37.945293 40.279907 44.479908 46.815105 51.015106 54.744705 57.541908 61.27092 65.000519 68.26812 71.997131 77.365326 83.90052 88.100525 92.300522 96.500526 98.835136 103.03513 107.23514 109.57034 113.29993 117.02895 119.36415 121.69935 125.89935">onfirstboot,increasesmonotonically)</tspan></text>
<text
           id="text7928"
           style="font-variant:normal;font-weight:bold;font-size:8.39999962px;font-family:TimesNewRomanPS;-inkscape-font-specification:TimesNewRomanPS-BoldMT;writing-mode:lr-tb;fill:#000000;fill-opacity:1;fill-rule:nonzero;stroke:none"
           transform="matrix(1,0,0,-1,80.5875,622.835)"><tspan
             id="tspan7926"
             sodipodi:role="line"
             y="0"
             x="0 4.1999998 8.3999996 11.1972 14.926214 19.5972 24.729013 28.929014">votedFor</tspan></text>
<text
           id="text7934"
           style="font-variant:normal;font-weight:normal;font-size:8.39999962px;font-family:TimesNewRomanPSMT;-inkscape-font-specification:TimesNewRomanPSMT;writing-mode:lr-tb;fill:#000000;fill-opacity:1;fill-rule:nonzero;stroke:none"
           transform="matrix(1,0,0,-1,146.475,622.835)"><tspan
             id="tspan7930"
             sodipodi:role="line"
             y="0"
             x="0 3.7290142 7.4586139 11.658614 15.858614 18.193813 22.393814 26.122828 28.458029 32.18763 34.984829 41.28717 43.622372 47.822372 51.551384 55.986393 58.783592 62.512608 66.24221 69.971222 72.306419 76.506424 80.236023 86.536018 90.736023 94.93602 97.270638 103.10004 105.43524 111.73524 115.46426 119.66425 122.46146 125.25866 128.98767 133.18767">candidateIdthatreceivedvoteincurrent</tspan><tspan
             id="tspan7932"
             sodipodi:role="line"
             y="10.5"
             x="-0.78750002 1.5477 5.2767138 8.0739145 16.708921 19.506121 23.706121 28.603321 32.803322 37.003323 39.337936 43.772942 46.108143 51.005341 55.205341 59.405342 63.605343 67.334358">term(ornullifnone)</tspan></text>
<text
           id="text7938"
           style="font-variant:normal;font-weight:bold;font-size:8.39999962px;font-family:TimesNewRomanPS;-inkscape-font-specification:TimesNewRomanPS-BoldMT;writing-mode:lr-tb;fill:#000000;fill-opacity:1;fill-rule:nonzero;stroke:none"
           transform="matrix(1,0,0,-1,80.5875,602.885)"><tspan
             id="tspan7936"
             sodipodi:role="line"
             y="0"
             x="0 2.3352001 6.5352001 10.7352 13.5324">log[]</tspan></text>
<text
           id="text7946"
           style="font-variant:normal;font-weight:normal;font-size:8.39999962px;font-family:TimesNewRomanPSMT;-inkscape-font-specification:TimesNewRomanPSMT;writing-mode:lr-tb;fill:#000000;fill-opacity:1;fill-rule:nonzero;stroke:none"
           transform="matrix(1,0,0,-1,146.475,602.885)"><tspan
             id="tspan7940"
             sodipodi:role="line"
             y="0"
             x="0 2.3352001 6.5352001 12.8352 16.564215 20.764214 23.099415 25.896614 28.231813 31.960829 35.229015 39.663628 43.393227 47.122242 50.851841 57.15184 60.880856 65.080856 67.416054 70.213257 76.513252 80.242271 84.442268 88.642265 90.97747 94.707069 97.042267 101.24227 106.61006 110.33907 114.53908 121.07427 127.60947 131.33849 135.53848">logentries;eachentrycontainscommand</tspan><tspan
             id="tspan7942"
             sodipodi:role="line"
             y="10.5"
             x="-0.78750002 2.0097001 6.2097001 11.1069 14.3745 16.7097 20.438715 22.773914 28.603321 35.137936 38.867535 42.59655 46.796551 49.131748 53.331749 57.061348 61.261349 64.990364 69.190361 75.490364 77.825562 81.554581 84.351776 92.986786 99.051582 103.25159 106.98119 113.28118 117.0102 121.2102 123.54539 126.3426">forstatemachine,andtermwhenentry</tspan><tspan
             id="tspan7944"
             sodipodi:role="line"
             y="19.950001"
             x="-0.78750002 5.2772999 9.0068998 14.374693 17.171894 20.900908 24.630507 28.359522 30.694721 34.894722 38.624321 44.92432 49.124321 55.42432 57.758934 61.488537 65.217552 69.417549 73.147148 78.04435 80.841553 83.638748 85.973953 88.771149 92.03875 96.473755 98.80896 103.00896 107.20895 110.93797 117.23797 119.57317 124.94136 129.14136">wasreceivedbyleader(firstindexis1)</tspan></text>
</g><g
         transform="scale(10)"
         id="g7948"><text
           id="text7952"
           style="font-variant:normal;font-weight:bold;font-size:8.39999962px;font-family:Arial;-inkscape-font-specification:Arial-BoldMT;writing-mode:lr-tb;fill:#a5001e;fill-opacity:1;fill-rule:nonzero;stroke:none"
           transform="matrix(1,0,0,-1,80.5875,566.135)"><tspan
             id="tspan7950"
             sodipodi:role="line"
             y="0"
             x="0 4.9797535 10.111567 12.446768 17.117754 19.914953 22.250153 24.585354 31.589542 36.260529 39.057728 43.728127 46.52533 53.529518 58.661919 66.127716 70.798119 73.133316 77.801529 82.472511 87.142914 90.411102 95.081497 99.752487 103.02009 107.69107">Volatilestateonallservers:</tspan></text>
</g><g
         transform="scale(10)"
         id="g7954"><text
           id="text7958"
           style="font-variant:normal;font-weight:bold;font-size:8.39999962px;font-family:TimesNewRomanPS;-inkscape-font-specification:TimesNewRomanPS-BoldMT;writing-mode:lr-tb;fill:#000000;fill-opacity:1;fill-rule:nonzero;stroke:none"
           transform="matrix(1,0,0,-1,80.5875,556.685)"><tspan
             id="tspan7956"
             sodipodi:role="line"
             y="0"
             x="0 3.7290142 7.9290142 14.926214 21.923414 24.258614 27.055815 30.323414 34.9944 39.664799 43.394402">commitIndex</tspan></text>
<text
           id="text7966"
           style="font-variant:normal;font-weight:normal;font-size:8.39999962px;font-family:TimesNewRomanPSMT;-inkscape-font-specification:TimesNewRomanPSMT;writing-mode:lr-tb;fill:#000000;fill-opacity:1;fill-rule:nonzero;stroke:none"
           transform="matrix(1,0,0,-1,146.6062,556.685)"><tspan
             id="tspan7960"
             sodipodi:role="line"
             y="0"
             x="0 2.3352001 6.5352001 10.7352 14.464214 20.764214 24.964214 29.861414 34.061413 36.396614 40.596615 44.796616 48.525627 51.793816 56.228821 58.563435 62.763435 69.063438 72.793037 76.993034 79.328232 82.125435 88.425438 92.625435 96.825432 101.02544 107.09023 113.39024 115.72543 122.02544 126.22543">indexofhighestlogentryknowntobe</tspan><tspan
             id="tspan7962"
             sodipodi:role="line"
             y="10.5"
             x="-0.91874999 2.8102641 7.0102639 13.545465 20.080664 22.415865 24.751064 27.086264 30.815279 37.115276 39.912479 42.247677 46.447678 48.782291 51.117493 53.452694 57.182293 59.516907 61.852108 65.581703 69.310722 75.610718 77.945923 84.245918 88.445923 92.64592 94.981117 99.181122 102.91013 105.70734 109.43694 113.16595 116.43355 120.16315">committed(initializedto0,increases</tspan><tspan
             id="tspan7964"
             sodipodi:role="line"
             y="21"
             x="-0.91874999 5.6164498 9.8164501 14.01645 18.21645 20.551649 24.75165 28.951651 31.286264 35.015865 38.744877 41.080078 43.415279 47.615276">monotonically)</tspan></text>
<text
           id="text7970"
           style="font-variant:normal;font-weight:bold;font-size:8.39999962px;font-family:TimesNewRomanPS;-inkscape-font-specification:TimesNewRomanPS-BoldMT;writing-mode:lr-tb;fill:#000000;fill-opacity:1;fill-rule:nonzero;stroke:none"
           transform="matrix(1,0,0,-1,80.58745,526.235)"><tspan
             id="tspan7968"
             sodipodi:role="line"
             y="0"
             x="0 2.3352001 6.5352001 9.8028002 12.6 18.664801 23.335787 28.006186 30.341387 32.676586 36.405602">lastApplied</tspan></text>
<text
           id="text7978"
           style="font-variant:normal;font-weight:normal;font-size:8.39999962px;font-family:TimesNewRomanPSMT;-inkscape-font-specification:TimesNewRomanPSMT;writing-mode:lr-tb;fill:#000000;fill-opacity:1;fill-rule:nonzero;stroke:none"
           transform="matrix(1,0,0,-1,146.47495,526.235)"><tspan
             id="tspan7972"
             sodipodi:role="line"
             y="0"
             x="0 2.3352001 6.5352001 10.7352 14.464214 20.764214 24.964214 29.861414 34.061413 36.396614 40.596615 44.796616 48.525627 51.793816 56.228821 58.563435 62.763435 69.063438 72.793037 76.993034 79.328232 82.125435 88.425438 92.154449 96.354446 100.55445 102.88965 105.22485 108.95387 115.25386 117.58907 123.88906 127.15666 129.49187 133.22147 135.55608">indexofhighestlogentryappliedtostate</tspan><tspan
             id="tspan7974"
             sodipodi:role="line"
             y="10.5"
             x="-0.78750002 5.7477002 9.4767141 13.206314 17.406315 19.741514 23.941515 29.770527 32.567726 34.902927 39.102924 41.438126 43.772739 46.107941 49.83754 52.172153 54.507355 58.236954 61.965969 68.265968 70.601166 76.901169 81.101166 85.30117 87.636368 91.836365 95.565384 98.362579 102.09219 105.8212 109.0888 112.8184">machine(initializedto0,increases</tspan><tspan
             id="tspan7976"
             sodipodi:role="line"
             y="21"
             x="-0.78750002 5.7477002 9.9476995 14.1477 18.3477 20.682899 24.8829 29.082899 31.417515 35.147114 38.876129 41.211327 43.546528 47.746529">monotonically)</tspan></text>
</g><g
         transform="scale(10)"
         id="g7980"><text
           id="text7984"
           style="font-variant:normal;font-weight:bold;font-size:8.39999962px;font-family:Arial;-inkscape-font-specification:Arial-BoldMT;writing-mode:lr-tb;fill:#a5001e;fill-opacity:1;fill-rule:nonzero;stroke:none"
           transform="matrix(1,0,0,-1,80.5875,489.485)"><tspan
             id="tspan7982"
             sodipodi:role="line"
             y="0"
             x="0 4.9797535 10.111567 12.446768 17.117754 19.914953 22.250153 24.585354 31.589542 36.260529 39.057728 43.728127 46.52533 53.529518 58.661919 66.127716 68.462334 73.133316 77.803719 82.936119 87.607109 90.874702 95.545105">Volatilestateonleaders:</tspan></text>
</g><g
         transform="scale(10)"
         id="g7986"><text
           id="text7990"
           style="font-variant:normal;font-weight:normal;font-size:8.39999962px;font-family:TimesNewRomanPSMT;-inkscape-font-specification:TimesNewRomanPSMT;writing-mode:lr-tb;fill:#1f4899;fill-opacity:1;fill-rule:nonzero;stroke:none"
           transform="matrix(1,0,0,-1,80.5875,478.985)"><tspan
             id="tspan7988"
             sodipodi:role="line"
             y="0"
             x="0 2.7972 8.3999996 12.129014 14.464214 18.664213 20.999414 23.334614 25.669813 29.398829 31.734028 34.069229 37.798241 41.527843 47.827843 51.556858 54.354057 56.689255 60.41827 65.315468 69.045067 71.379684 75.109283 78.838295 81.1735 83.508698 87.708702 91.908699">(Reinitializedafterelection)</tspan></text>
</g><g
         transform="scale(10)"
         id="g7992"><text
           id="text7996"
           style="font-variant:normal;font-weight:bold;font-size:8.39999962px;font-family:TimesNewRomanPS;-inkscape-font-specification:TimesNewRomanPS-BoldMT;writing-mode:lr-tb;fill:#000000;fill-opacity:1;fill-rule:nonzero;stroke:none"
           transform="matrix(1,0,0,-1,80.5875,469.535)"><tspan
             id="tspan7994"
             sodipodi:role="line"
             y="0"
             x="0 4.6709862 8.3999996 12.6 15.3972 18.664801 23.335787 28.006186 31.735786 35.935005 38.732204">nextIndex[]</tspan></text>
<text
           id="text8004"
           style="font-variant:normal;font-weight:normal;font-size:8.39999962px;font-family:TimesNewRomanPSMT;-inkscape-font-specification:TimesNewRomanPSMT;writing-mode:lr-tb;fill:#000000;fill-opacity:1;fill-rule:nonzero;stroke:none"
           transform="matrix(1,0,0,-1,146.6062,469.535)"><tspan
             id="tspan7998"
             sodipodi:role="line"
             y="0"
             x="0 2.7972 6.9972 11.8944 15.623414 19.353014 23.082027 29.382029 32.650215 36.379227 39.17643 43.376427 47.105442 49.566704 53.766705 56.101906 60.301903 64.501907 68.230919 74.530922 78.730919 83.62812 85.963318 90.163315 95.992332 100.19233 103.92193 108.12193 112.55694 114.89155 119.09155 125.39155 129.12115 133.32115 135.65636 138.45355">foreachserver,indexofthenextlogentry</tspan><tspan
             id="tspan8000"
             sodipodi:role="line"
             y="10.5"
             x="-0.91874999 1.41645 7.7164502 10.98405 14.71365 18.913651 25.21365 27.548264 33.848263 36.183464 40.383465 44.113064 48.548069 51.81567 55.544685 58.341885 62.541885 66.271484 71.168686 73.965881 76.301086 80.501083 82.836288 85.171486 87.506683 91.235703 93.5709 95.906097 99.635117 103.36472 109.66471 111.99992 118.29991 120.63453 124.36413 128.09314 132.29314 136.02274">tosendtothatserver(initializedtoleader</tspan><tspan
             id="tspan8002"
             sodipodi:role="line"
             y="21"
             x="-0.91874999 1.41645 5.1454639 8.4136496 12.848262 15.183462 19.383463 25.683462 28.018661 32.218662 36.418663 40.148262 46.448261 53.286057 57.486053">lastlogindex+1)</tspan></text>
<text
           id="text8008"
           style="font-variant:normal;font-weight:bold;font-size:8.39999962px;font-family:TimesNewRomanPS;-inkscape-font-specification:TimesNewRomanPS-BoldMT;writing-mode:lr-tb;fill:#000000;fill-opacity:1;fill-rule:nonzero;stroke:none"
           transform="matrix(1,0,0,-1,80.58745,439.085)"><tspan
             id="tspan8006"
             sodipodi:role="line"
             y="0"
             x="0 6.9972 11.1972 13.9944 17.723413 22.3944 25.662001 30.332987 35.003387 38.732986 42.932205 45.729404">matchIndex[]</tspan></text>
<text
           id="text8016"
           style="font-variant:normal;font-weight:normal;font-size:8.39999962px;font-family:TimesNewRomanPSMT;-inkscape-font-specification:TimesNewRomanPSMT;writing-mode:lr-tb;fill:#000000;fill-opacity:1;fill-rule:nonzero;stroke:none"
           transform="matrix(1,0,0,-1,146.47495,439.085)"><tspan
             id="tspan8010"
             sodipodi:role="line"
             y="0"
             x="0 2.7972 6.9972 11.8944 15.623414 19.353014 23.082027 29.382029 32.649628 36.379227 39.17643 43.376427 47.105442 49.566704 53.766705 56.101906 60.301903 64.501907 68.230919 74.530922 78.730919 83.62812 87.828117 90.163315 94.363319 98.563316 102.29234 105.56052 109.99513 112.33033 116.53033 122.83033 126.55993 130.75993 133.09512 135.89233">foreachserver,indexofhighestlogentry</tspan><tspan
             id="tspan8012"
             sodipodi:role="line"
             y="10.5"
             x="-0.78750002 3.4124999 7.6125002 11.8125 17.8773 24.177299 26.512501 32.8125 37.012501 42.841511 45.638714 49.368313 53.568314 55.903511 58.238125 61.967728 65.696739 68.031937 71.761543 78.061539 82.261543 88.561539 91.82914 95.558739 98.355942 102.55594 106.28554">knowntobereplicatedonserver</tspan><tspan
             id="tspan8014"
             sodipodi:role="line"
             y="19.950001"
             x="-0.78750002 2.0097001 4.3449001 8.5448999 10.879514 13.214714 15.549914 19.279514 21.614128 23.949327 27.678928 31.407942 37.707943 40.04314 46.343143 50.54314 54.743141 57.078342 61.278343 65.007355 67.804558 71.534157 75.263168 78.530769 82.260368 87.628166 94.163361 98.363365 102.56336 106.76337 109.09856 113.29856 117.49857 119.83376 123.56277 127.29238 129.627 131.96219 136.16219">(initializedto0,increasesmonotonically)</tspan></text>
</g><path
         inkscape:connector-curvature="0"
         id="path8018"
         style="fill:#285daa;fill-opacity:1;fill-rule:evenodd;stroke:none"
         d="m 730.273,6750.16 h 2268 v 124.93 h -2268 z" /><path
         inkscape:connector-curvature="0"
         id="path8020"
         style="fill:none;stroke:#285daa;stroke-width:15.75;stroke-linecap:butt;stroke-linejoin:round;stroke-miterlimit:10;stroke-dasharray:none;stroke-opacity:1"
         d="m 730.273,6750.16 h 2268 v 124.93 h -2268 z" /><g
         transform="scale(10)"
         id="g8022"><text
           id="text8026"
           style="font-variant:normal;font-weight:bold;font-size:10.5px;font-family:Arial;-inkscape-font-specification:Arial-BoldMT;writing-mode:lr-tb;fill:#ffffff;fill-opacity:1;fill-rule:nonzero;stroke:none"
           transform="matrix(1,0,0,-1,173.8,677.062)"><tspan
             id="tspan8024"
             sodipodi:role="line"
             y="0"
             x="0 7.0035 10.5 16.338634 19.835135">State</tspan></text>
</g><path
         inkscape:connector-curvature="0"
         id="path8028"
         style="fill:none;stroke:#285daa;stroke-width:15.75;stroke-linecap:butt;stroke-linejoin:round;stroke-miterlimit:10;stroke-dasharray:none;stroke-opacity:1"
         d="m 3187.27,1190.78 h 2268 v 3782.58 h -2268 z" /><g
         transform="scale(10)"
         id="g8030"><text
           id="text8034"
           style="font-variant:normal;font-weight:bold;font-size:8.39999962px;font-family:Arial;-inkscape-font-specification:Arial-BoldMT;writing-mode:lr-tb;fill:#a5001e;fill-opacity:1;fill-rule:nonzero;stroke:none"
           transform="matrix(1,0,0,-1,326.288,485.155)"><tspan
             id="tspan8032"
             sodipodi:role="line"
             y="0"
             x="0 6.0647998 8.3999996 13.068603 18.671402 23.341803 26.609989 31.280388 35.951374 39.218975 43.889961">AllServers:</tspan></text>
</g><g
         transform="scale(10)"
         id="g8036"><text
           id="text8040"
           style="font-variant:normal;font-weight:normal;font-size:8.39999962px;font-family:ArialMT;-inkscape-font-specification:ArialMT;writing-mode:lr-tb;fill:#000000;fill-opacity:1;fill-rule:nonzero;stroke:none"
           transform="matrix(1,0,0,-1,326.288,475.705)"><tspan
             id="tspan8038"
             y="0"
             x="0">•</tspan></text>
<text
           id="text8046"
           style="font-variant:normal;font-weight:normal;font-size:8.39999962px;font-family:TimesNewRomanPSMT;-inkscape-font-specification:TimesNewRomanPSMT;writing-mode:lr-tb;fill:#000000;fill-opacity:1;fill-rule:nonzero;stroke:none"
           transform="matrix(1,0,0,-1,336.0005,475.705)"><tspan
             id="tspan8042"
             sodipodi:role="line"
             y="0"
             x="0 2.7972 7.6943998 11.424 15.624 22.158613 28.693813 31.029015 33.364216 36.161415 40.361416 44.561413 48.290428 54.592384 61.43018 63.764793 67.494392 70.761993 73.097191 79.161995 83.361992 87.561989 89.897194 92.232391 95.961403 100.16297 104.59758 106.93278 111.13278 114.86238 117.65958 121.38918 127.92438 131.6534 135.85339 140.29074 142.62595 146.35555 149.62314 151.95834 158.02315 162.22314 166.42314 168.75835 171.09296 174.82256 179.02373 183.22372 186.95334 191.15334 195.35333 197.68794">IfcommitIndex&gt;lastApplied:incrementlastApplied,apply</tspan><tspan
             id="tspan8044"
             sodipodi:role="line"
             y="10.5"
             x="-0.26249999 2.0727 6.2726998 10.4727 13.2699 15.604514 19.334114 22.601713 24.936914 31.001715 35.201714 39.401714 41.736916 44.072113 47.801128 52.002689 56.899506 59.234703 65.534706 68.802887 71.137505 74.867104 77.202301 83.031319 89.566513 93.295532 97.025131 101.22513 103.56033 107.76033 113.58934 116.38654 120.58654 124.78654 126.88654 131.08655">log[lastApplied]tostatemachine(§5.3)</tspan></text>
<text
           id="text8050"
           style="font-variant:normal;font-weight:normal;font-size:8.39999962px;font-family:ArialMT;-inkscape-font-specification:ArialMT;writing-mode:lr-tb;fill:#000000;fill-opacity:1;fill-rule:nonzero;stroke:none"
           transform="matrix(1,0,0,-1,326.288,455.755)"><tspan
             id="tspan8048"
             y="0"
             x="0">•</tspan></text>
<text
           id="text8056"
           style="font-variant:normal;font-weight:normal;font-size:8.39999962px;font-family:TimesNewRomanPSMT;-inkscape-font-specification:TimesNewRomanPSMT;writing-mode:lr-tb;fill:#000000;fill-opacity:1;fill-rule:nonzero;stroke:none"
           transform="matrix(1,0,0,-1,336.0005,455.755)"><tspan
             id="tspan8052"
             sodipodi:role="line"
             y="0"
             x="0 2.7972 7.6943998 13.2972 17.968185 25.670986 28.468185 32.197201 36.397202 40.597198 44.326214 47.594398 52.029408 56.229408 61.126221 63.92342 67.653023 70.920624 75.120621 79.320618 83.520622 86.788223 92.61763 96.346642 100.54664 104.74664 107.08184 110.81144 113.14664 117.34664 122.71443 125.04964 128.77866 131.57585 140.0589 147.13954 153.97968 157.70927 161.90929 164.70648 167.50368 171.2327 175.43269 177.7679 182.31377 186.04279 188.83998 195.37694">IfRPCrequestorresponsecontainstermT&gt;currentTerm:</tspan><tspan
             id="tspan8054"
             sodipodi:role="line"
             y="10.5"
             x="-0.26249999 3.0051 6.7376299 11.169898 14.898912 19.098911 21.896112 24.693312 28.422327 32.622326 34.957527 39.503403 43.232418 46.029617 54.666573 61.352417 65.861183 70.061188 73.790787 77.990784 82.190788 86.390785 90.119797 92.917 97.352005 99.687202 105.98721 108.78441 112.98441 115.3196 117.65481 121.8548 127.91961 131.6492 136.5464 139.34361 143.54361 147.74361 149.84361 154.04361">setcurrentTerm=T,converttofollower(§5.1)</tspan></text>
</g><g
         transform="scale(10)"
         id="g8058"><text
           id="text8062"
           style="font-variant:normal;font-weight:bold;font-size:8.39999962px;font-family:Arial;-inkscape-font-specification:Arial-BoldMT;writing-mode:lr-tb;fill:#a5001e;fill-opacity:1;fill-rule:nonzero;stroke:none"
           transform="matrix(1,0,0,-1,326.288,428.455)"><tspan
             id="tspan8060"
             sodipodi:role="line"
             y="0"
             x="0 5.1324 10.264215 12.599414 14.934614 20.067015 26.601627 31.272614 34.540215 41.544796 44.341999 49.012985 53.683971 56.018585 60.689571 63.486771">Followers(§5.2):</tspan></text>
</g><g
         transform="scale(10)"
         id="g8064"><text
           id="text8068"
           style="font-variant:normal;font-weight:normal;font-size:8.39999962px;font-family:ArialMT;-inkscape-font-specification:ArialMT;writing-mode:lr-tb;fill:#000000;fill-opacity:1;fill-rule:nonzero;stroke:none"
           transform="matrix(1,0,0,-1,326.288,419.005)"><tspan
             id="tspan8066"
             y="0"
             x="0">•</tspan></text>
<text
           id="text8072"
           style="font-variant:normal;font-weight:normal;font-size:8.39999962px;font-family:TimesNewRomanPSMT;-inkscape-font-specification:TimesNewRomanPSMT;writing-mode:lr-tb;fill:#000000;fill-opacity:1;fill-rule:nonzero;stroke:none"
           transform="matrix(1,0,0,-1,336.0005,419.005)"><tspan
             id="tspan8070"
             sodipodi:role="line"
             y="0"
             x="0 5.6027999 9.3324003 12.6 16.799999 21 25.200001 31.5 33.835201 40.135201 45.737999 50.408985 56.011787 61.379578 64.176781 66.973976 71.173981 79.808983 83.538002 87.267601 91.467598 95.667603 98.002213 102.20222 105.93182 108.26701 111.99603 117.36382 121.09342 125.29342 131.59341 133.92862 137.65764 141.38724 145.58723 149.31625 152.11345">RespondtoRPCsfromcandidatesandleaders</tspan></text>
<text
           id="text8076"
           style="font-variant:normal;font-weight:normal;font-size:8.39999962px;font-family:ArialMT;-inkscape-font-specification:ArialMT;writing-mode:lr-tb;fill:#000000;fill-opacity:1;fill-rule:nonzero;stroke:none"
           transform="matrix(1,0,0,-1,326.288,408.505)"><tspan
             id="tspan8074"
             y="0"
             x="0">•</tspan></text>
<text
           id="text8084"
           style="font-variant:normal;font-weight:normal;font-size:8.39999962px;font-family:TimesNewRomanPSMT;-inkscape-font-specification:TimesNewRomanPSMT;writing-mode:lr-tb;fill:#000000;fill-opacity:1;fill-rule:nonzero;stroke:none"
           transform="matrix(1,0,0,-1,336.0005,408.505)"><tspan
             id="tspan8078"
             sodipodi:role="line"
             y="0"
             x="0 2.7972 7.6943998 11.423414 13.758614 17.488214 21.217228 23.552427 25.887629 30.087627 36.387627 38.72224 41.057442 47.592644 51.322243 55.522243 59.72224 64.156853 67.886452 70.221657 73.950668 78.150665 81.418266 85.147865 90.515663 96.581047 98.915665 101.25086 105.45086 109.65086 113.85086 118.28587 121.08307 124.81208 128.54169 132.27069 134.6059 138.80589 141.1411 145.34109 151.18407 157.24945 161.44945 165.64946 169.37846 173.57848 177.77847 182.91087 187.11087 189.44608 192.24327 194.57848 198.30807">IfelectiontimeoutelapseswithoutreceivingAppendEntries</tspan><tspan
             id="tspan8080"
             sodipodi:role="line"
             y="9.4499998"
             x="-0.26249999 5.3403001 10.011286 17.714087 20.511286 23.308485 27.508486 36.143097 39.8727 44.072697 46.8699 49.667099 53.396111 57.596111 62.03112 64.366318 68.095329 71.824936 76.024933 79.753944 84.651146 88.851151 93.748344 97.948349 100.74554 104.47456 108.67456 111.00976 113.34496 117.54496 123.84496 128.04497 132.24496 134.58015 140.40918 142.74437 149.04437 152.77339 156.50299 160.70299 164.90298 167.23759 171.43761 175.16721 177.5024 181.23141">RPCfromcurrentleaderorgrantingvotetocandidate:</tspan><tspan
             id="tspan8082"
             sodipodi:role="line"
             y="19.950001"
             x="-0.26249999 3.4670999 7.6671 11.8671 16.067101 19.796114 22.593313 27.02832 29.362934 35.662933 39.392536 43.121548 47.321548 51.521549 53.85675 58.056747 61.78635 64.120964">converttocandidate</tspan></text>
</g><g
         transform="scale(10)"
         id="g8086"><text
           id="text8090"
           style="font-variant:normal;font-weight:bold;font-size:8.39999962px;font-family:Arial;-inkscape-font-specification:Arial-BoldMT;writing-mode:lr-tb;fill:#a5001e;fill-opacity:1;fill-rule:nonzero;stroke:none"
           transform="matrix(1,0,0,-1,326.288,372.805)"><tspan
             id="tspan8088"
             sodipodi:role="line"
             y="0"
             x="0 6.0647998 10.735785 15.8676 21 23.335199 28.4676 33.138 35.9352 40.605598 47.610184 50.407383 55.077785 59.748768 62.083385 66.754372 69.551567">Candidates(§5.2):</tspan></text>
</g><g
         transform="scale(10)"
         id="g8092"><text
           id="text8096"
           style="font-variant:normal;font-weight:normal;font-size:8.39999962px;font-family:ArialMT;-inkscape-font-specification:ArialMT;writing-mode:lr-tb;fill:#000000;fill-opacity:1;fill-rule:nonzero;stroke:none"
           transform="matrix(1,0,0,-1,326.288,362.305)"><tspan
             id="tspan8094"
             y="0"
             x="0">•</tspan></text>
<text
           id="text8100"
           style="font-variant:normal;font-weight:normal;font-size:8.39999962px;font-family:TimesNewRomanPSMT;-inkscape-font-specification:TimesNewRomanPSMT;writing-mode:lr-tb;fill:#000000;fill-opacity:1;fill-rule:nonzero;stroke:none"
           transform="matrix(1,0,0,-1,336.0005,362.305)"><tspan
             id="tspan8098"
             sodipodi:role="line"
             y="0"
             x="0 6.0647998 12.3648 16.0944 20.294399 24.4944 28.694401 32.423412 35.220615 38.488213 40.823414 45.023415 51.323414 53.658615 59.958614 63.688213 67.417229 71.617226 75.81723 78.152428 82.352425 86.081444 88.416641 92.14624 96.346245 99.613846 101.94904 105.67805 108.47526 112.91026 116.63927 118.97448 122.70408 126.43309 128.7683 131.10349 135.3035 139.50349">Onconversiontocandidate,startelection:</tspan></text>
<text
           id="text8104"
           style="font-variant:normal;font-weight:normal;font-size:8.39999962px;font-family:ArialMT;-inkscape-font-specification:ArialMT;writing-mode:lr-tb;fill:#000000;fill-opacity:1;fill-rule:nonzero;stroke:none"
           transform="matrix(1,0,0,-1,335.738,351.805)"><tspan
             id="tspan8102"
             y="0"
             x="0">•</tspan></text>
<text
           id="text8108"
           style="font-variant:normal;font-weight:normal;font-size:8.39999962px;font-family:TimesNewRomanPSMT;-inkscape-font-specification:TimesNewRomanPSMT;writing-mode:lr-tb;fill:#000000;fill-opacity:1;fill-rule:nonzero;stroke:none"
           transform="matrix(1,0,0,-1,344.79425,351.805)"><tspan
             id="tspan8106"
             sodipodi:role="line"
             y="0"
             x="0 2.7972 6.9972 10.7268 13.524 17.253599 23.788799 27.517815 31.717813 36.15477 39.883785 44.083782 46.880985 49.678185 53.407196 57.607197 59.942398 64.488274 68.217285 71.014488">IncrementcurrentTerm</tspan></text>
<text
           id="text8112"
           style="font-variant:normal;font-weight:normal;font-size:8.39999962px;font-family:ArialMT;-inkscape-font-specification:ArialMT;writing-mode:lr-tb;fill:#000000;fill-opacity:1;fill-rule:nonzero;stroke:none"
           transform="matrix(1,0,0,-1,335.738,342.355)"><tspan
             id="tspan8110"
             y="0"
             x="0">•</tspan></text>
<text
           id="text8116"
           style="font-variant:normal;font-weight:normal;font-size:8.39999962px;font-family:TimesNewRomanPSMT;-inkscape-font-specification:TimesNewRomanPSMT;writing-mode:lr-tb;fill:#000000;fill-opacity:1;fill-rule:nonzero;stroke:none"
           transform="matrix(1,0,0,-1,344.79425,342.355)"><tspan
             id="tspan8114"
             sodipodi:role="line"
             y="0"
             x="0 4.9825692 9.1825695 11.517183 17.34659 20.143789 24.34379 29.240604 32.508789 36.237804 38.573002">Voteforself</tspan></text>
<text
           id="text8120"
           style="font-variant:normal;font-weight:normal;font-size:8.39999962px;font-family:ArialMT;-inkscape-font-specification:ArialMT;writing-mode:lr-tb;fill:#000000;fill-opacity:1;fill-rule:nonzero;stroke:none"
           transform="matrix(1,0,0,-1,335.738,331.855)"><tspan
             id="tspan8118"
             y="0"
             x="0">•</tspan></text>
<text
           id="text8124"
           style="font-variant:normal;font-weight:normal;font-size:8.39999962px;font-family:TimesNewRomanPSMT;-inkscape-font-specification:TimesNewRomanPSMT;writing-mode:lr-tb;fill:#000000;fill-opacity:1;fill-rule:nonzero;stroke:none"
           transform="matrix(1,0,0,-1,344.79425,331.855)"><tspan
             id="tspan8122"
             sodipodi:role="line"
             y="0"
             x="0 5.6027999 9.3324003 12.6 16.329599 20.764212 24.493813 26.829012 30.558025 34.287624 36.622826 38.957439 43.15744 49.457439 51.792641 54.127842 60.66304 64.392052">Resetelectiontimer</tspan></text>
<text
           id="text8128"
           style="font-variant:normal;font-weight:normal;font-size:8.39999962px;font-family:ArialMT;-inkscape-font-specification:ArialMT;writing-mode:lr-tb;fill:#000000;fill-opacity:1;fill-rule:nonzero;stroke:none"
           transform="matrix(1,0,0,-1,335.738,321.355)"><tspan
             id="tspan8126"
             y="0"
             x="0">•</tspan></text>
<text
           id="text8132"
           style="font-variant:normal;font-weight:normal;font-size:8.39999962px;font-family:TimesNewRomanPSMT;-inkscape-font-specification:TimesNewRomanPSMT;writing-mode:lr-tb;fill:#000000;fill-opacity:1;fill-rule:nonzero;stroke:none"
           transform="matrix(1,0,0,-1,344.79425,321.355)"><tspan
             id="tspan8130"
             sodipodi:role="line"
             y="0"
             x="0 4.6709862 8.3999996 12.6 18.9 24.5028 28.232401 32.4324 36.632401 40.361416 43.629601 45.964214 50.946785 55.146782 57.481983 63.312172 68.91497 73.585373 79.188171 84.555962 86.891167 93.191162 96.920181 99.255379 103.69038 107.89039 110.22559 114.42558 118.1546 123.0518 126.3194 130.049 132.84621 137.0462 140.77521 143.57242">SendRequestVoteRPCstoallotherservers</tspan></text>
<text
           id="text8136"
           style="font-variant:normal;font-weight:normal;font-size:8.39999962px;font-family:ArialMT;-inkscape-font-specification:ArialMT;writing-mode:lr-tb;fill:#000000;fill-opacity:1;fill-rule:nonzero;stroke:none"
           transform="matrix(1,0,0,-1,326.28795,311.905)"><tspan
             id="tspan8134"
             y="0"
             x="0">•</tspan></text>
<text
           id="text8140"
           style="font-variant:normal;font-weight:normal;font-size:8.39999962px;font-family:TimesNewRomanPSMT;-inkscape-font-specification:TimesNewRomanPSMT;writing-mode:lr-tb;fill:#000000;fill-opacity:1;fill-rule:nonzero;stroke:none"
           transform="matrix(1,0,0,-1,336.00045,311.905)"><tspan
             id="tspan8138"
             sodipodi:role="line"
             y="0"
             x="0 2.7972 7.6943998 11.8944 16.0944 18.4296 22.158613 27.526407 30.323606 34.053207 37.782223 41.511822 43.847023 48.04702 51.776035 58.076035 60.873234 63.670437 67.870438 76.505051 83.040245 86.769844 89.105049 93.305046 96.102249 98.437447 100.77264 107.07265 111.27264 116.16985 119.43745 123.16705 125.96425 130.16425 133.89384 136.69104 139.95865 144.39366 148.59366 152.32266 156.05226 160.25227 166.78748 172.61649 174.95168 178.68069 182.41029 186.61029 190.33931">Ifvotesreceivedfrommajorityofservers:becomeleader</tspan></text>
<text
           id="text8144"
           style="font-variant:normal;font-weight:normal;font-size:8.39999962px;font-family:ArialMT;-inkscape-font-specification:ArialMT;writing-mode:lr-tb;fill:#000000;fill-opacity:1;fill-rule:nonzero;stroke:none"
           transform="matrix(1,0,0,-1,326.28795,301.405)"><tspan
             id="tspan8142"
             y="0"
             x="0">•</tspan></text>
<text
           id="text8150"
           style="font-variant:normal;font-weight:normal;font-size:8.39999962px;font-family:TimesNewRomanPSMT;-inkscape-font-specification:TimesNewRomanPSMT;writing-mode:lr-tb;fill:#000000;fill-opacity:1;fill-rule:nonzero;stroke:none"
           transform="matrix(1,0,0,-1,336.00045,301.405)"><tspan
             id="tspan8146"
             sodipodi:role="line"
             y="0"
             x="0 2.7972 7.2311149 13.295915 17.495914 21.695915 25.424929 29.624929 33.824928 38.957329 43.15733 45.492527 48.28973 50.624344 54.353943 59.722912 65.325714 69.996696 77.699501 80.496696 84.225716 87.955315 91.684326 94.019524 98.219528 101.94854 108.24854 111.04574 113.84294 118.04294 126.67795 130.87794 134.60754 142.77254 145.10774 148.83676 152.56577 156.76576 160.49536 163.29257 167.72717 171.45679 175.65678 179.85678 184.05678 187.78638 190.58359 195.01859 197.35379">IfAppendEntriesRPCreceivedfromnewleader:convertto</tspan><tspan
             id="tspan8148"
             sodipodi:role="line"
             y="9.4499998"
             x="-0.26249999 2.5346999 6.7347002 9.0698996 11.4051 15.6051 21.669901 25.398914">follower</tspan></text>
<text
           id="text8154"
           style="font-variant:normal;font-weight:normal;font-size:8.39999962px;font-family:ArialMT;-inkscape-font-specification:ArialMT;writing-mode:lr-tb;fill:#000000;fill-opacity:1;fill-rule:nonzero;stroke:none"
           transform="matrix(1,0,0,-1,326.28795,281.455)"><tspan
             id="tspan8152"
             y="0"
             x="0">•</tspan></text>
<text
           id="text8158"
           style="font-variant:normal;font-weight:normal;font-size:8.39999962px;font-family:TimesNewRomanPSMT;-inkscape-font-specification:TimesNewRomanPSMT;writing-mode:lr-tb;fill:#000000;fill-opacity:1;fill-rule:nonzero;stroke:none"
           transform="matrix(1,0,0,-1,336.00045,281.455)"><tspan
             id="tspan8156"
             sodipodi:role="line"
             y="0"
             x="0 2.7972 7.6943998 11.423414 13.758614 17.488214 21.217228 23.552427 25.887629 30.087627 36.387627 38.72224 41.057442 47.592644 51.322243 55.522243 59.72224 64.156853 67.886452 70.221657 73.950668 78.150665 81.418266 85.147865 88.415466 92.850471 96.118073 98.453278 102.18288 104.98007 109.41469 113.61469 117.34428 125.50928 129.23888 131.5735 135.3031 139.0321 141.36731 143.70251 147.90251">Ifelectiontimeoutelapses:startnewelection</tspan></text>
</g><g
         transform="scale(10)"
         id="g8160"><text
           id="text8164"
           style="font-variant:normal;font-weight:bold;font-size:8.39999962px;font-family:Arial;-inkscape-font-specification:Arial-BoldMT;writing-mode:lr-tb;fill:#a5001e;fill-opacity:1;fill-rule:nonzero;stroke:none"
           transform="matrix(1,0,0,-1,326.288,264.655)"><tspan
             id="tspan8162"
             sodipodi:role="line"
             y="0"
             x="0 5.1324 9.8028002 14.473786 19.6056 24.276587 27.544186 32.215172">Leaders:</tspan></text>
</g><g
         transform="scale(10)"
         id="g8166"><text
           id="text8170"
           style="font-variant:normal;font-weight:normal;font-size:8.39999962px;font-family:ArialMT;-inkscape-font-specification:ArialMT;writing-mode:lr-tb;fill:#000000;fill-opacity:1;fill-rule:nonzero;stroke:none"
           transform="matrix(1,0,0,-1,326.288,255.205)"><tspan
             id="tspan8168"
             y="0"
             x="0">•</tspan></text>
<text
           id="text8178"
           style="font-variant:normal;font-weight:normal;font-size:8.39999962px;font-family:TimesNewRomanPSMT;-inkscape-font-specification:TimesNewRomanPSMT;writing-mode:lr-tb;fill:#000000;fill-opacity:1;fill-rule:nonzero;stroke:none"
           transform="matrix(1,0,0,-1,336.0005,255.205)"><tspan
             id="tspan8172"
             sodipodi:role="line"
             y="0"
             x="0 6.0647998 10.2648 14.4648 20.764799 24.4944 26.829599 30.558615 34.288216 36.622829 38.958027 43.158028 47.358028 51.793034 55.060635 58.790234 62.990234 69.290237 71.625435 75.825432 78.160049 80.495247 82.830452 86.559464 90.994469 94.724068 101.25927 105.45927 107.79388 113.63529 119.7001 123.90009 128.1001 131.8297 136.02969 140.22969 145.36151 149.56151 151.89671 154.69391 157.02911 160.75812 166.12709 171.72989 176.4003 182.0031">Uponelection:sendinitialemptyAppendEntriesRPCs</tspan><tspan
             id="tspan8174"
             sodipodi:role="line"
             y="10.5"
             x="-0.26249999 2.5346999 6.7347002 10.463714 14.193314 16.990515 19.325129 23.525127 27.254728 30.983742 33.318943 38.216141 40.551342 46.851341 50.580357 54.309956 58.038971 64.338974 67.607155 71.336174 74.133369 78.333374 82.062386 84.859581 89.294594 92.091789 95.820808 100.02081 103.7504 107.47942 111.91443 116.11443 120.31442 123.11163 125.44682 129.64682 135.94682 138.28203 142.48203 144.81664 150.64604 154.84605 158.57506 161.37225 163.70746 167.90746 172.10747 177.47525 179.81046">(heartbeat)toeachserver;repeatduringidleperiodsto</tspan><tspan
             id="tspan8176"
             sodipodi:role="line"
             y="19.950001"
             x="-0.26249999 3.9375 6.7347002 10.463714 14.663714 18.393314 22.593313 27.02832 30.757336 33.092533 36.821548 40.551147 42.886349 45.220963 49.420963 55.720963 58.056164 60.391361 66.926559 70.655579 74.855576 79.05558 81.390778 86.758965 89.556168 93.756165 97.956161 100.05617 104.25616">preventelectiontimeouts(§5.2)</tspan></text>
<text
           id="text8182"
           style="font-variant:normal;font-weight:normal;font-size:8.39999962px;font-family:ArialMT;-inkscape-font-specification:ArialMT;writing-mode:lr-tb;fill:#000000;fill-opacity:1;fill-rule:nonzero;stroke:none"
           transform="matrix(1,0,0,-1,326.288,224.755)"><tspan
             id="tspan8180"
             y="0"
             x="0">•</tspan></text>
<text
           id="text8188"
           style="font-variant:normal;font-weight:normal;font-size:8.39999962px;font-family:TimesNewRomanPSMT;-inkscape-font-specification:TimesNewRomanPSMT;writing-mode:lr-tb;fill:#000000;fill-opacity:1;fill-rule:nonzero;stroke:none"
           transform="matrix(1,0,0,-1,336.0005,224.755)"><tspan
             id="tspan8184"
             sodipodi:role="line"
             y="0"
             x="0 2.7972 7.6943998 11.423414 15.623414 22.158613 28.693813 32.422829 36.622829 42.922829 45.720028 49.449627 53.178642 56.908241 59.242855 63.442856 67.172455 73.472458 76.269653 79.066856 83.266853 91.901466 95.631065 97.96627 100.30088 104.03048 108.23048 110.56568 115.00069 118.72971 122.9297 127.1297 130.8593 135.0593 141.3593 145.08832 149.28831 151.62352 154.42072 160.72072 163.05533 169.35533 171.69054 175.89053 179.62013 183.34915 187.78415 190.11935 194.31935 198.51935">Ifcommandreceivedfromclient:appendentrytolocallog,</tspan><tspan
             id="tspan8186"
             sodipodi:role="line"
             y="10.5"
             x="-0.26249999 2.5346999 6.2637138 9.5319004 13.7319 17.9319 22.131901 28.4319 32.160915 34.958115 37.293316 41.022327 45.919529 49.649128 53.849129 56.183743 58.980942 65.280945 69.010544 73.210541 77.410545 79.745743 82.080353 85.809959 92.109955 94.44516 100.74516 104.01276 106.34795 110.07697 112.41217 118.24158 124.77619 128.5058 132.2348 136.4348 138.77 142.97 148.79941 151.59662 155.79662 159.99661 162.09662 166.29662">respondafterentryappliedtostatemachine(§5.3)</tspan></text>
<text
           id="text8192"
           style="font-variant:normal;font-weight:normal;font-size:8.39999962px;font-family:ArialMT;-inkscape-font-specification:ArialMT;writing-mode:lr-tb;fill:#000000;fill-opacity:1;fill-rule:nonzero;stroke:none"
           transform="matrix(1,0,0,-1,326.288,204.805)"><tspan
             id="tspan8190"
             y="0"
             x="0">•</tspan></text>
<text
           id="text8198"
           style="font-variant:normal;font-weight:normal;font-size:8.39999962px;font-family:TimesNewRomanPSMT;-inkscape-font-specification:TimesNewRomanPSMT;writing-mode:lr-tb;fill:#000000;fill-opacity:1;fill-rule:nonzero;stroke:none"
           transform="matrix(1,0,0,-1,336.0005,204.805)"><tspan
             id="tspan8194"
             sodipodi:role="line"
             y="0"
             x="0 2.7972 7.6943998 10.0296 13.758614 17.026215 21.461222 23.796421 27.99642 34.296421 36.631622 40.831619 45.03162 48.760635 55.060635 61.774193 65.97419 69.703209 73.903206 76.238403 79.035606 83.235603 87.435608 91.164619 97.465797 100.26299 104.463 109.3602 115.18921 117.98641 122.18641 124.52161 126.85681 131.05681 137.12161 140.85062 143.64783 148.08282 151.35043 155.08003 159.28003">Iflastlogindex≥nextIndexforafollower:send</tspan><tspan
             id="tspan8196"
             sodipodi:role="line"
             y="10.5"
             x="-0.26249999 5.8023 10.0023 14.2023 17.9319 22.131901 26.3319 31.463715 35.663715 37.998913 40.796116 43.131313 46.860329 52.228516 57.831318 62.501717 70.20491 76.269714 78.604912 80.939522 87.239525 89.574722 93.774727 100.07472 103.80432 108.00433 110.33894 113.13614 115.47134 119.20094 124.56873 127.83633 130.17154 133.90114 136.69833 139.03354 141.36873 145.56873 151.86873 155.59775 160.03276 164.23276 167.96236 172.16235 174.49756 177.29475 181.49475 185.69475 189.42435">AppendEntriesRPCwithlogentriesstartingatnextIndex</tspan></text>
<text
           id="text8202"
           style="font-variant:normal;font-weight:normal;font-size:8.39999962px;font-family:ArialMT;-inkscape-font-specification:ArialMT;writing-mode:lr-tb;fill:#000000;fill-opacity:1;fill-rule:nonzero;stroke:none"
           transform="matrix(1,0,0,-1,335.738,184.855)"><tspan
             id="tspan8200"
             y="0"
             x="0">•</tspan></text>
<text
           id="text8208"
           style="font-variant:normal;font-weight:normal;font-size:8.39999962px;font-family:TimesNewRomanPSMT;-inkscape-font-specification:TimesNewRomanPSMT;writing-mode:lr-tb;fill:#000000;fill-opacity:1;fill-rule:nonzero;stroke:none"
           transform="matrix(1,0,0,-1,344.79425,184.855)"><tspan
             id="tspan8204"
             sodipodi:role="line"
             y="0"
             x="0 2.7972 7.6943998 10.962 15.162 18.8916 22.620615 26.350214 29.617813 32.885414 35.682613 39.882614 42.217815 46.652821 50.852821 55.052822 59.252819 62.981834 65.317032 71.148392 75.348389 79.077408 83.277405 85.612602 88.409805 92.609802 96.809807 100.53882 106.84 110.5696 114.76959 121.06999 127.60461 131.3342 133.6694 137.39842 141.59842 144.39561 148.59561 152.79562 156.52463 162.82658 165.62379 169.82379">Ifsuccessful:updatenextIndexandmatchIndexfor</tspan><tspan
             id="tspan8206"
             sodipodi:role="line"
             y="10.5"
             x="-0.65625 2.14095 6.34095 8.6761503 11.01135 15.21135 21.27615 25.005163 29.902365 32.699566 36.899563 41.099564 43.199566 47.399563">follower(§5.3)</tspan></text>
<text
           id="text8212"
           style="font-variant:normal;font-weight:normal;font-size:8.39999962px;font-family:ArialMT;-inkscape-font-specification:ArialMT;writing-mode:lr-tb;fill:#000000;fill-opacity:1;fill-rule:nonzero;stroke:none"
           transform="matrix(1,0,0,-1,335.738,163.855)"><tspan
             id="tspan8210"
             y="0"
             x="0">•</tspan></text>
<text
           id="text8218"
           style="font-variant:normal;font-weight:normal;font-size:8.39999962px;font-family:TimesNewRomanPSMT;-inkscape-font-specification:TimesNewRomanPSMT;writing-mode:lr-tb;fill:#000000;fill-opacity:1;fill-rule:nonzero;stroke:none"
           transform="matrix(1,0,0,-1,344.79425,163.855)"><tspan
             id="tspan8214"
             sodipodi:role="line"
             y="0"
             x="0 2.7972 7.2311149 13.295915 17.495914 21.695915 25.424929 29.624929 33.824928 38.957329 43.15733 45.492527 48.28973 50.624344 54.353943 59.722912 62.520111 66.24971 68.584328 70.919525 76.287323 80.48732 84.216919 87.94593 91.675537 95.875534 99.143135 104.97254 109.17254 114.06974 116.40436 120.60435 126.90436 129.23955 133.43956 137.16916 141.36916 145.56915 148.83676 151.17195 154.43956 156.77475 160.50377 164.70377 168.43336 172.63336">IfAppendEntriesfailsbecauseofloginconsistency:</tspan><tspan
             id="tspan8216"
             sodipodi:role="line"
             y="9.4499998"
             x="-0.65625 3.54375 7.2733498 11.002364 13.799564 17.528578 24.063778 27.793379 31.993378 36.430332 40.630333 44.359932 48.559933 50.894547 53.69175 57.891747 62.091747 65.82135 72.12252 75.85154 80.051537 86.35154 89.148735 92.877754 95.212952 98.010155 104.31015 107.10735 111.30735 115.50735 117.60735 121.80735">decrementnextIndexandretry(§5.3)</tspan></text>
<text
           id="text8222"
           style="font-variant:normal;font-weight:normal;font-size:8.39999962px;font-family:ArialMT;-inkscape-font-specification:ArialMT;writing-mode:lr-tb;fill:#000000;fill-opacity:1;fill-rule:nonzero;stroke:none"
           transform="matrix(1,0,0,-1,326.288,143.905)"><tspan
             id="tspan8220"
             y="0"
             x="0">•</tspan></text>
<text
           id="text8230"
           style="font-variant:normal;font-weight:normal;font-size:8.39999962px;font-family:TimesNewRomanPSMT;-inkscape-font-specification:TimesNewRomanPSMT;writing-mode:lr-tb;fill:#000000;fill-opacity:1;fill-rule:nonzero;stroke:none"
           transform="matrix(1,0,0,-1,336.0005,143.905)"><tspan
             id="tspan8224"
             sodipodi:role="line"
             y="0"
             x="0 2.7972 7.6943998 10.0296 14.2296 17.958614 20.755814 26.584826 30.314426 34.514427 36.849625 40.117226 42.452427 47.820221 51.54982 57.849819 66.014809 69.28241 73.482414 77.212013 83.512009 85.847214 90.047211 93.77623 98.211235 106.37623 113.21636 116.94538 121.14538 127.68058 134.21577 136.55038 138.88559 141.68279 145.8828 150.08279 153.81239 158.01434 162.21434 168.04335 174.57855 178.30757 180.64278 184.84277 187.63997 189.97517 192.31036">IfthereexistsanNsuchthatN&gt;commitIndex,amajority</tspan><tspan
             id="tspan8226"
             sodipodi:role="line"
             y="9.4499998"
             x="-0.26249999 3.9375 8.8346996 15.3699 19.098913 21.434114 25.163713 29.363714 32.160915 36.360912 40.560913 44.290516 48.492466 51.289669 53.624866 58.522068 65.233284 71.298668 75.498665 79.227684 83.427681 89.727684 92.062881 96.262878 100.46288 103.26008 109.32488 112.12208 114.22208 116.55669 120.28629 123.0835 131.71851 136.4561 143.29507 147.02408 151.22409 154.02129 156.81848 160.5475 164.7475 167.0827 171.62857 175.35759 178.15479 184.69174">ofmatchIndex[i]≥N,andlog[N].term==currentTerm:</tspan><tspan
             id="tspan8228"
             sodipodi:role="line"
             y="19.950001"
             x="-0.26249999 3.0051 6.7376299 11.169898 14.898912 19.098911 25.634111 32.169312 34.503925 36.839127 39.636326 43.836327 48.036327 51.765926 58.067883 64.905678 73.070671 75.867867 80.067871 84.267868 86.367867 90.567871 94.767868 98.967873 103.16787 105.26787 109.46787 112.26507">setcommitIndex=N(§5.3,§5.4).</tspan></text>
</g><path
         inkscape:connector-curvature="0"
         id="path8232"
         style="fill:#285daa;fill-opacity:1;fill-rule:evenodd;stroke:none"
         d="m 3187.27,4973.36 h 2268 v 124.93 h -2268 z" /><path
         inkscape:connector-curvature="0"
         id="path8234"
         style="fill:none;stroke:#285daa;stroke-width:15.75;stroke-linecap:butt;stroke-linejoin:round;stroke-miterlimit:10;stroke-dasharray:none;stroke-opacity:1"
         d="m 3187.27,4973.36 h 2268 v 124.93 h -2268 z" /><g
         transform="scale(10)"
         id="g8236"><text
           id="text8240"
           style="font-variant:normal;font-weight:bold;font-size:10.5px;font-family:Arial;-inkscape-font-specification:Arial-BoldMT;writing-mode:lr-tb;fill:#ffffff;fill-opacity:1;fill-rule:nonzero;stroke:none"
           transform="matrix(1,0,0,-1,388.859,499.382)"><tspan
             id="tspan8238"
             sodipodi:role="line"
             y="0"
             x="0 7.5809999 13.9965 16.915501 22.7535 31.508936 35.005436 41.420937 48.422768 55.426266 61.264267 65.349304 71.187935 77.02594 81.110977">RulesforServers</tspan></text>
</g></g></g></svg>
