<?xml version="1.0" encoding="UTF-8"?>
<!DOCTYPE svg PUBLIC "-//W3C//DTD SVG 1.1//EN" "http://www.w3.org/Graphics/SVG/1.1/DTD/svg11.dtd">
<svg xmlns="http://www.w3.org/2000/svg" xmlns:xlink="http://www.w3.org/1999/xlink" version="1.1" width="481px" height="171px" viewBox="-0.5 -0.5 481 171"><defs/><g><rect x="0" y="10" width="40" height="40" fill="rgb(255, 255, 255)" stroke="rgb(0, 0, 0)" pointer-events="all"/><rect x="40" y="10" width="40" height="40" fill="rgb(255, 255, 255)" stroke="rgb(0, 0, 0)" pointer-events="all"/><rect x="80" y="10" width="40" height="40" fill="rgb(255, 255, 255)" stroke="rgb(0, 0, 0)" pointer-events="all"/><rect x="120" y="10" width="40" height="40" fill="#e1d5e7" stroke="#9673a6" pointer-events="all"/><rect x="160" y="10" width="40" height="40" fill="rgb(255, 255, 255)" stroke="rgb(0, 0, 0)" pointer-events="all"/><rect x="0" y="50" width="40" height="40" fill="rgb(255, 255, 255)" stroke="rgb(0, 0, 0)" pointer-events="all"/><rect x="40" y="50" width="40" height="40" fill="#e1d5e7" stroke="#9673a6" pointer-events="all"/><rect x="80" y="50" width="40" height="40" fill="rgb(255, 255, 255)" stroke="rgb(0, 0, 0)" pointer-events="all"/><rect x="120" y="50" width="40" height="40" fill="rgb(255, 255, 255)" stroke="rgb(0, 0, 0)" pointer-events="all"/><rect x="160" y="50" width="40" height="40" fill="#e1d5e7" stroke="#9673a6" pointer-events="all"/><rect x="0" y="90" width="40" height="40" fill="#e1d5e7" stroke="#9673a6" pointer-events="all"/><rect x="40" y="90" width="40" height="40" fill="rgb(255, 255, 255)" stroke="rgb(0, 0, 0)" pointer-events="all"/><rect x="80" y="90" width="40" height="40" fill="rgb(255, 255, 255)" stroke="rgb(0, 0, 0)" pointer-events="all"/><rect x="120" y="90" width="40" height="40" fill="rgb(255, 255, 255)" stroke="rgb(0, 0, 0)" pointer-events="all"/><rect x="160" y="90" width="40" height="40" fill="rgb(255, 255, 255)" stroke="rgb(0, 0, 0)" pointer-events="all"/><rect x="0" y="130" width="40" height="40" fill="rgb(255, 255, 255)" stroke="rgb(0, 0, 0)" pointer-events="all"/><rect x="40" y="130" width="40" height="40" fill="#e1d5e7" stroke="#9673a6" pointer-events="all"/><rect x="80" y="130" width="40" height="40" fill="rgb(255, 255, 255)" stroke="rgb(0, 0, 0)" pointer-events="all"/><rect x="120" y="130" width="40" height="40" fill="rgb(255, 255, 255)" stroke="rgb(0, 0, 0)" pointer-events="all"/><rect x="160" y="130" width="40" height="40" fill="rgb(255, 255, 255)" stroke="rgb(0, 0, 0)" pointer-events="all"/><rect x="280" y="10" width="40" height="40" fill="rgb(255, 255, 255)" stroke="rgb(0, 0, 0)" pointer-events="all"/><rect x="320" y="10" width="40" height="40" fill="rgb(255, 255, 255)" stroke="rgb(0, 0, 0)" pointer-events="all"/><rect x="360" y="10" width="40" height="40" fill="rgb(255, 255, 255)" stroke="rgb(0, 0, 0)" pointer-events="all"/><rect x="400" y="10" width="40" height="40" fill="rgb(255, 255, 255)" stroke="rgb(0, 0, 0)" pointer-events="all"/><rect x="440" y="10" width="40" height="40" fill="rgb(255, 255, 255)" stroke="rgb(0, 0, 0)" pointer-events="all"/><rect x="280" y="50" width="40" height="40" fill="rgb(255, 255, 255)" stroke="rgb(0, 0, 0)" pointer-events="all"/><rect x="320" y="50" width="40" height="40" fill="rgb(255, 255, 255)" stroke="rgb(0, 0, 0)" pointer-events="all"/><rect x="360" y="50" width="40" height="40" fill="rgb(255, 255, 255)" stroke="rgb(0, 0, 0)" pointer-events="all"/><rect x="400" y="50" width="40" height="40" fill="rgb(255, 255, 255)" stroke="rgb(0, 0, 0)" pointer-events="all"/><rect x="440" y="50" width="40" height="40" fill="rgb(255, 255, 255)" stroke="rgb(0, 0, 0)" pointer-events="all"/><rect x="280" y="90" width="40" height="40" fill="#e1d5e7" stroke="#9673a6" pointer-events="all"/><rect x="320" y="90" width="40" height="40" fill="rgb(255, 255, 255)" stroke="rgb(0, 0, 0)" pointer-events="all"/><rect x="360" y="90" width="40" height="40" fill="#e1d5e7" stroke="#9673a6" pointer-events="all"/><rect x="400" y="90" width="40" height="40" fill="rgb(255, 255, 255)" stroke="rgb(0, 0, 0)" pointer-events="all"/><rect x="440" y="90" width="40" height="40" fill="rgb(255, 255, 255)" stroke="rgb(0, 0, 0)" pointer-events="all"/><rect x="280" y="130" width="40" height="40" fill="rgb(255, 255, 255)" stroke="rgb(0, 0, 0)" pointer-events="all"/><rect x="320" y="130" width="40" height="40" fill="#e1d5e7" stroke="#9673a6" pointer-events="all"/><rect x="360" y="130" width="40" height="40" fill="rgb(255, 255, 255)" stroke="rgb(0, 0, 0)" pointer-events="all"/><rect x="400" y="130" width="40" height="40" fill="rgb(255, 255, 255)" stroke="rgb(0, 0, 0)" pointer-events="all"/><rect x="440" y="130" width="40" height="40" fill="rgb(255, 255, 255)" stroke="rgb(0, 0, 0)" pointer-events="all"/><ellipse cx="60" cy="70" rx="30" ry="30" fill="none" stroke="#666666" pointer-events="all"/><path d="M 81.21 91.21 L 87.19 97.19" fill="none" stroke="#666666" stroke-miterlimit="10" pointer-events="stroke"/><path d="M 92.14 102.14 L 85.54 98.84 L 88.84 95.54 Z" fill="#666666" stroke="#666666" stroke-miterlimit="10" pointer-events="all"/><path d="M 126.74 56.91 L 108.13 93.81" fill="none" stroke="#666666" stroke-miterlimit="10" pointer-events="stroke"/><path d="M 104.98 100.06 L 106.04 92.76 L 110.21 94.86 Z" fill="#666666" stroke="#666666" stroke-miterlimit="10" pointer-events="all"/><ellipse cx="140" cy="30" rx="30" ry="30" fill="none" stroke="#666666" pointer-events="all"/><path d="M 153.09 83.26 L 116.19 101.87" fill="none" stroke="#666666" stroke-miterlimit="10" pointer-events="stroke"/><path d="M 109.94 105.02 L 115.14 99.79 L 117.24 103.96 Z" fill="#666666" stroke="#666666" stroke-miterlimit="10" pointer-events="all"/><ellipse cx="180" cy="70" rx="30" ry="30" fill="none" stroke="#666666" pointer-events="all"/><ellipse cx="100" cy="110" rx="10" ry="10" fill="none" stroke="none" pointer-events="all"/><path d="M 220.5 95 L 220.5 85 L 250.5 85 L 250.5 74.5 L 269.5 90 L 250.5 105.5 L 250.5 95 Z" fill="none" stroke="rgb(0, 0, 0)" stroke-miterlimit="10" pointer-events="all"/></g></svg>